<?xml version="1.0" encoding="utf-8" standalone="no"?>
<!DOCTYPE svg PUBLIC "-//W3C//DTD SVG 1.1//EN"
  "http://www.w3.org/Graphics/SVG/1.1/DTD/svg11.dtd">
<svg height="331.389812pt" version="1.1" viewBox="0 0 398.513437 331.389812" width="398.513437pt" xmlns="http://www.w3.org/2000/svg" xmlns:xlink="http://www.w3.org/1999/xlink">
 <metadata>
  <rdf:RDF xmlns:cc="http://creativecommons.org/ns#" xmlns:dc="http://purl.org/dc/elements/1.1/" xmlns:rdf="http://www.w3.org/1999/02/22-rdf-syntax-ns#">
   <cc:Work>
    <dc:type rdf:resource="http://purl.org/dc/dcmitype/StillImage"/>
    <dc:date>2024-06-10T21:32:09.695668</dc:date>
    <dc:format>image/svg+xml</dc:format>
    <dc:creator>
     <cc:Agent>
      <dc:title>Matplotlib v3.4.3, https://matplotlib.org/</dc:title>
     </cc:Agent>
    </dc:creator>
   </cc:Work>
  </rdf:RDF>
 </metadata>
 <defs>
  <style type="text/css">*{stroke-linecap:butt;stroke-linejoin:round;}</style>
 </defs>
 <g id="figure_1">
  <g id="patch_1">
   <path d="M 0 331.389812 
L 398.513437 331.389812 
L 398.513437 0 
L 0 0 
z
" style="fill:#ffffff;"/>
  </g>
  <g id="axes_1">
   <g id="patch_2">
    <path d="M 34.193438 288.430125 
L 391.313438 288.430125 
L 391.313438 22.318125 
L 34.193438 22.318125 
z
" style="fill:#eaeaf2;"/>
   </g>
   <g id="matplotlib.axis_1">
    <g id="xtick_1">
     <g id="line2d_1">
      <path clip-path="url(#paf35691ac5)" d="M 50.426165 288.430125 
L 50.426165 22.318125 
" style="fill:none;stroke:#ffffff;stroke-linecap:round;"/>
     </g>
     <g id="text_1">
      <!-- 0 -->
      <g style="fill:#262626;" transform="translate(46.92679 306.288406)scale(0.11 -0.11)">
       <defs>
        <path d="M 2034 4250 
Q 1547 4250 1301 3770 
Q 1056 3291 1056 2328 
Q 1056 1369 1301 889 
Q 1547 409 2034 409 
Q 2525 409 2770 889 
Q 3016 1369 3016 2328 
Q 3016 3291 2770 3770 
Q 2525 4250 2034 4250 
z
M 2034 4750 
Q 2819 4750 3233 4129 
Q 3647 3509 3647 2328 
Q 3647 1150 3233 529 
Q 2819 -91 2034 -91 
Q 1250 -91 836 529 
Q 422 1150 422 2328 
Q 422 3509 836 4129 
Q 1250 4750 2034 4750 
z
" id="DejaVuSans-30" transform="scale(0.015625)"/>
       </defs>
       <use xlink:href="#DejaVuSans-30"/>
      </g>
     </g>
    </g>
    <g id="xtick_2">
     <g id="line2d_2">
      <path clip-path="url(#paf35691ac5)" d="M 115.42207 288.430125 
L 115.42207 22.318125 
" style="fill:none;stroke:#ffffff;stroke-linecap:round;"/>
     </g>
     <g id="text_2">
      <!-- 200 -->
      <g style="fill:#262626;" transform="translate(104.923945 306.288406)scale(0.11 -0.11)">
       <defs>
        <path d="M 1228 531 
L 3431 531 
L 3431 0 
L 469 0 
L 469 531 
Q 828 903 1448 1529 
Q 2069 2156 2228 2338 
Q 2531 2678 2651 2914 
Q 2772 3150 2772 3378 
Q 2772 3750 2511 3984 
Q 2250 4219 1831 4219 
Q 1534 4219 1204 4116 
Q 875 4013 500 3803 
L 500 4441 
Q 881 4594 1212 4672 
Q 1544 4750 1819 4750 
Q 2544 4750 2975 4387 
Q 3406 4025 3406 3419 
Q 3406 3131 3298 2873 
Q 3191 2616 2906 2266 
Q 2828 2175 2409 1742 
Q 1991 1309 1228 531 
z
" id="DejaVuSans-32" transform="scale(0.015625)"/>
       </defs>
       <use xlink:href="#DejaVuSans-32"/>
       <use x="63.623047" xlink:href="#DejaVuSans-30"/>
       <use x="127.246094" xlink:href="#DejaVuSans-30"/>
      </g>
     </g>
    </g>
    <g id="xtick_3">
     <g id="line2d_3">
      <path clip-path="url(#paf35691ac5)" d="M 180.417975 288.430125 
L 180.417975 22.318125 
" style="fill:none;stroke:#ffffff;stroke-linecap:round;"/>
     </g>
     <g id="text_3">
      <!-- 400 -->
      <g style="fill:#262626;" transform="translate(169.91985 306.288406)scale(0.11 -0.11)">
       <defs>
        <path d="M 2419 4116 
L 825 1625 
L 2419 1625 
L 2419 4116 
z
M 2253 4666 
L 3047 4666 
L 3047 1625 
L 3713 1625 
L 3713 1100 
L 3047 1100 
L 3047 0 
L 2419 0 
L 2419 1100 
L 313 1100 
L 313 1709 
L 2253 4666 
z
" id="DejaVuSans-34" transform="scale(0.015625)"/>
       </defs>
       <use xlink:href="#DejaVuSans-34"/>
       <use x="63.623047" xlink:href="#DejaVuSans-30"/>
       <use x="127.246094" xlink:href="#DejaVuSans-30"/>
      </g>
     </g>
    </g>
    <g id="xtick_4">
     <g id="line2d_4">
      <path clip-path="url(#paf35691ac5)" d="M 245.41388 288.430125 
L 245.41388 22.318125 
" style="fill:none;stroke:#ffffff;stroke-linecap:round;"/>
     </g>
     <g id="text_4">
      <!-- 600 -->
      <g style="fill:#262626;" transform="translate(234.915755 306.288406)scale(0.11 -0.11)">
       <defs>
        <path d="M 2113 2584 
Q 1688 2584 1439 2293 
Q 1191 2003 1191 1497 
Q 1191 994 1439 701 
Q 1688 409 2113 409 
Q 2538 409 2786 701 
Q 3034 994 3034 1497 
Q 3034 2003 2786 2293 
Q 2538 2584 2113 2584 
z
M 3366 4563 
L 3366 3988 
Q 3128 4100 2886 4159 
Q 2644 4219 2406 4219 
Q 1781 4219 1451 3797 
Q 1122 3375 1075 2522 
Q 1259 2794 1537 2939 
Q 1816 3084 2150 3084 
Q 2853 3084 3261 2657 
Q 3669 2231 3669 1497 
Q 3669 778 3244 343 
Q 2819 -91 2113 -91 
Q 1303 -91 875 529 
Q 447 1150 447 2328 
Q 447 3434 972 4092 
Q 1497 4750 2381 4750 
Q 2619 4750 2861 4703 
Q 3103 4656 3366 4563 
z
" id="DejaVuSans-36" transform="scale(0.015625)"/>
       </defs>
       <use xlink:href="#DejaVuSans-36"/>
       <use x="63.623047" xlink:href="#DejaVuSans-30"/>
       <use x="127.246094" xlink:href="#DejaVuSans-30"/>
      </g>
     </g>
    </g>
    <g id="xtick_5">
     <g id="line2d_5">
      <path clip-path="url(#paf35691ac5)" d="M 310.409785 288.430125 
L 310.409785 22.318125 
" style="fill:none;stroke:#ffffff;stroke-linecap:round;"/>
     </g>
     <g id="text_5">
      <!-- 800 -->
      <g style="fill:#262626;" transform="translate(299.91166 306.288406)scale(0.11 -0.11)">
       <defs>
        <path d="M 2034 2216 
Q 1584 2216 1326 1975 
Q 1069 1734 1069 1313 
Q 1069 891 1326 650 
Q 1584 409 2034 409 
Q 2484 409 2743 651 
Q 3003 894 3003 1313 
Q 3003 1734 2745 1975 
Q 2488 2216 2034 2216 
z
M 1403 2484 
Q 997 2584 770 2862 
Q 544 3141 544 3541 
Q 544 4100 942 4425 
Q 1341 4750 2034 4750 
Q 2731 4750 3128 4425 
Q 3525 4100 3525 3541 
Q 3525 3141 3298 2862 
Q 3072 2584 2669 2484 
Q 3125 2378 3379 2068 
Q 3634 1759 3634 1313 
Q 3634 634 3220 271 
Q 2806 -91 2034 -91 
Q 1263 -91 848 271 
Q 434 634 434 1313 
Q 434 1759 690 2068 
Q 947 2378 1403 2484 
z
M 1172 3481 
Q 1172 3119 1398 2916 
Q 1625 2713 2034 2713 
Q 2441 2713 2670 2916 
Q 2900 3119 2900 3481 
Q 2900 3844 2670 4047 
Q 2441 4250 2034 4250 
Q 1625 4250 1398 4047 
Q 1172 3844 1172 3481 
z
" id="DejaVuSans-38" transform="scale(0.015625)"/>
       </defs>
       <use xlink:href="#DejaVuSans-38"/>
       <use x="63.623047" xlink:href="#DejaVuSans-30"/>
       <use x="127.246094" xlink:href="#DejaVuSans-30"/>
      </g>
     </g>
    </g>
    <g id="xtick_6">
     <g id="line2d_6">
      <path clip-path="url(#paf35691ac5)" d="M 375.40569 288.430125 
L 375.40569 22.318125 
" style="fill:none;stroke:#ffffff;stroke-linecap:round;"/>
     </g>
     <g id="text_6">
      <!-- 1000 -->
      <g style="fill:#262626;" transform="translate(361.40819 306.288406)scale(0.11 -0.11)">
       <defs>
        <path d="M 794 531 
L 1825 531 
L 1825 4091 
L 703 3866 
L 703 4441 
L 1819 4666 
L 2450 4666 
L 2450 531 
L 3481 531 
L 3481 0 
L 794 0 
L 794 531 
z
" id="DejaVuSans-31" transform="scale(0.015625)"/>
       </defs>
       <use xlink:href="#DejaVuSans-31"/>
       <use x="63.623047" xlink:href="#DejaVuSans-30"/>
       <use x="127.246094" xlink:href="#DejaVuSans-30"/>
       <use x="190.869141" xlink:href="#DejaVuSans-30"/>
      </g>
     </g>
    </g>
    <g id="text_7">
     <!-- epsiodes -->
     <g style="fill:#262626;" transform="translate(186.162188 321.694187)scale(0.12 -0.12)">
      <defs>
       <path d="M 3597 1894 
L 3597 1613 
L 953 1613 
Q 991 1019 1311 708 
Q 1631 397 2203 397 
Q 2534 397 2845 478 
Q 3156 559 3463 722 
L 3463 178 
Q 3153 47 2828 -22 
Q 2503 -91 2169 -91 
Q 1331 -91 842 396 
Q 353 884 353 1716 
Q 353 2575 817 3079 
Q 1281 3584 2069 3584 
Q 2775 3584 3186 3129 
Q 3597 2675 3597 1894 
z
M 3022 2063 
Q 3016 2534 2758 2815 
Q 2500 3097 2075 3097 
Q 1594 3097 1305 2825 
Q 1016 2553 972 2059 
L 3022 2063 
z
" id="DejaVuSans-65" transform="scale(0.015625)"/>
       <path d="M 1159 525 
L 1159 -1331 
L 581 -1331 
L 581 3500 
L 1159 3500 
L 1159 2969 
Q 1341 3281 1617 3432 
Q 1894 3584 2278 3584 
Q 2916 3584 3314 3078 
Q 3713 2572 3713 1747 
Q 3713 922 3314 415 
Q 2916 -91 2278 -91 
Q 1894 -91 1617 61 
Q 1341 213 1159 525 
z
M 3116 1747 
Q 3116 2381 2855 2742 
Q 2594 3103 2138 3103 
Q 1681 3103 1420 2742 
Q 1159 2381 1159 1747 
Q 1159 1113 1420 752 
Q 1681 391 2138 391 
Q 2594 391 2855 752 
Q 3116 1113 3116 1747 
z
" id="DejaVuSans-70" transform="scale(0.015625)"/>
       <path d="M 2834 3397 
L 2834 2853 
Q 2591 2978 2328 3040 
Q 2066 3103 1784 3103 
Q 1356 3103 1142 2972 
Q 928 2841 928 2578 
Q 928 2378 1081 2264 
Q 1234 2150 1697 2047 
L 1894 2003 
Q 2506 1872 2764 1633 
Q 3022 1394 3022 966 
Q 3022 478 2636 193 
Q 2250 -91 1575 -91 
Q 1294 -91 989 -36 
Q 684 19 347 128 
L 347 722 
Q 666 556 975 473 
Q 1284 391 1588 391 
Q 1994 391 2212 530 
Q 2431 669 2431 922 
Q 2431 1156 2273 1281 
Q 2116 1406 1581 1522 
L 1381 1569 
Q 847 1681 609 1914 
Q 372 2147 372 2553 
Q 372 3047 722 3315 
Q 1072 3584 1716 3584 
Q 2034 3584 2315 3537 
Q 2597 3491 2834 3397 
z
" id="DejaVuSans-73" transform="scale(0.015625)"/>
       <path d="M 603 3500 
L 1178 3500 
L 1178 0 
L 603 0 
L 603 3500 
z
M 603 4863 
L 1178 4863 
L 1178 4134 
L 603 4134 
L 603 4863 
z
" id="DejaVuSans-69" transform="scale(0.015625)"/>
       <path d="M 1959 3097 
Q 1497 3097 1228 2736 
Q 959 2375 959 1747 
Q 959 1119 1226 758 
Q 1494 397 1959 397 
Q 2419 397 2687 759 
Q 2956 1122 2956 1747 
Q 2956 2369 2687 2733 
Q 2419 3097 1959 3097 
z
M 1959 3584 
Q 2709 3584 3137 3096 
Q 3566 2609 3566 1747 
Q 3566 888 3137 398 
Q 2709 -91 1959 -91 
Q 1206 -91 779 398 
Q 353 888 353 1747 
Q 353 2609 779 3096 
Q 1206 3584 1959 3584 
z
" id="DejaVuSans-6f" transform="scale(0.015625)"/>
       <path d="M 2906 2969 
L 2906 4863 
L 3481 4863 
L 3481 0 
L 2906 0 
L 2906 525 
Q 2725 213 2448 61 
Q 2172 -91 1784 -91 
Q 1150 -91 751 415 
Q 353 922 353 1747 
Q 353 2572 751 3078 
Q 1150 3584 1784 3584 
Q 2172 3584 2448 3432 
Q 2725 3281 2906 2969 
z
M 947 1747 
Q 947 1113 1208 752 
Q 1469 391 1925 391 
Q 2381 391 2643 752 
Q 2906 1113 2906 1747 
Q 2906 2381 2643 2742 
Q 2381 3103 1925 3103 
Q 1469 3103 1208 2742 
Q 947 2381 947 1747 
z
" id="DejaVuSans-64" transform="scale(0.015625)"/>
      </defs>
      <use xlink:href="#DejaVuSans-65"/>
      <use x="61.523438" xlink:href="#DejaVuSans-70"/>
      <use x="125" xlink:href="#DejaVuSans-73"/>
      <use x="177.099609" xlink:href="#DejaVuSans-69"/>
      <use x="204.882812" xlink:href="#DejaVuSans-6f"/>
      <use x="266.064453" xlink:href="#DejaVuSans-64"/>
      <use x="329.541016" xlink:href="#DejaVuSans-65"/>
      <use x="391.064453" xlink:href="#DejaVuSans-73"/>
     </g>
    </g>
   </g>
   <g id="matplotlib.axis_2">
    <g id="ytick_1">
     <g id="line2d_7">
      <path clip-path="url(#paf35691ac5)" d="M 34.193438 268.777939 
L 391.313438 268.777939 
" style="fill:none;stroke:#ffffff;stroke-linecap:round;"/>
     </g>
     <g id="text_8">
      <!-- 0.4 -->
      <g style="fill:#262626;" transform="translate(7.2 272.957079)scale(0.11 -0.11)">
       <defs>
        <path d="M 684 794 
L 1344 794 
L 1344 0 
L 684 0 
L 684 794 
z
" id="DejaVuSans-2e" transform="scale(0.015625)"/>
       </defs>
       <use xlink:href="#DejaVuSans-30"/>
       <use x="63.623047" xlink:href="#DejaVuSans-2e"/>
       <use x="95.410156" xlink:href="#DejaVuSans-34"/>
      </g>
     </g>
    </g>
    <g id="ytick_2">
     <g id="line2d_8">
      <path clip-path="url(#paf35691ac5)" d="M 34.193438 219.887344 
L 391.313438 219.887344 
" style="fill:none;stroke:#ffffff;stroke-linecap:round;"/>
     </g>
     <g id="text_9">
      <!-- 0.6 -->
      <g style="fill:#262626;" transform="translate(7.2 224.066484)scale(0.11 -0.11)">
       <use xlink:href="#DejaVuSans-30"/>
       <use x="63.623047" xlink:href="#DejaVuSans-2e"/>
       <use x="95.410156" xlink:href="#DejaVuSans-36"/>
      </g>
     </g>
    </g>
    <g id="ytick_3">
     <g id="line2d_9">
      <path clip-path="url(#paf35691ac5)" d="M 34.193438 170.996749 
L 391.313438 170.996749 
" style="fill:none;stroke:#ffffff;stroke-linecap:round;"/>
     </g>
     <g id="text_10">
      <!-- 0.8 -->
      <g style="fill:#262626;" transform="translate(7.2 175.175889)scale(0.11 -0.11)">
       <use xlink:href="#DejaVuSans-30"/>
       <use x="63.623047" xlink:href="#DejaVuSans-2e"/>
       <use x="95.410156" xlink:href="#DejaVuSans-38"/>
      </g>
     </g>
    </g>
    <g id="ytick_4">
     <g id="line2d_10">
      <path clip-path="url(#paf35691ac5)" d="M 34.193438 122.106154 
L 391.313438 122.106154 
" style="fill:none;stroke:#ffffff;stroke-linecap:round;"/>
     </g>
     <g id="text_11">
      <!-- 1.0 -->
      <g style="fill:#262626;" transform="translate(7.2 126.285294)scale(0.11 -0.11)">
       <use xlink:href="#DejaVuSans-31"/>
       <use x="63.623047" xlink:href="#DejaVuSans-2e"/>
       <use x="95.410156" xlink:href="#DejaVuSans-30"/>
      </g>
     </g>
    </g>
    <g id="ytick_5">
     <g id="line2d_11">
      <path clip-path="url(#paf35691ac5)" d="M 34.193438 73.215559 
L 391.313438 73.215559 
" style="fill:none;stroke:#ffffff;stroke-linecap:round;"/>
     </g>
     <g id="text_12">
      <!-- 1.2 -->
      <g style="fill:#262626;" transform="translate(7.2 77.394699)scale(0.11 -0.11)">
       <use xlink:href="#DejaVuSans-31"/>
       <use x="63.623047" xlink:href="#DejaVuSans-2e"/>
       <use x="95.410156" xlink:href="#DejaVuSans-32"/>
      </g>
     </g>
    </g>
    <g id="ytick_6">
     <g id="line2d_12">
      <path clip-path="url(#paf35691ac5)" d="M 34.193438 24.324964 
L 391.313438 24.324964 
" style="fill:none;stroke:#ffffff;stroke-linecap:round;"/>
     </g>
     <g id="text_13">
      <!-- 1.4 -->
      <g style="fill:#262626;" transform="translate(7.2 28.504104)scale(0.11 -0.11)">
       <use xlink:href="#DejaVuSans-31"/>
       <use x="63.623047" xlink:href="#DejaVuSans-2e"/>
       <use x="95.410156" xlink:href="#DejaVuSans-34"/>
      </g>
     </g>
    </g>
   </g>
   <g id="line2d_13">
    <path clip-path="url(#paf35691ac5)" d="M 50.426165 154.514743 
L 50.751144 159.51473 
L 51.076124 154.63987 
L 51.726083 154.595051 
L 52.051062 154.875107 
L 52.376042 154.416721 
L 52.701021 154.803153 
L 53.026001 160.79787 
L 53.35098 153.396962 
L 53.67596 111.042773 
L 54.00094 112.567444 
L 54.325919 109.07968 
L 54.975878 123.245601 
L 55.300858 109.306956 
L 55.625837 124.232793 
L 55.950817 109.360115 
L 56.275796 88.175338 
L 56.600776 97.216033 
L 56.925755 125.572134 
L 57.250735 131.825367 
L 57.575714 105.433255 
L 57.900694 93.004667 
L 58.225673 96.260633 
L 58.550653 89.544073 
L 58.875632 95.327538 
L 59.200612 88.735711 
L 59.525591 101.481972 
L 59.850571 90.503415 
L 60.175551 114.721718 
L 60.50053 103.062591 
L 60.82551 96.077609 
L 61.150489 101.55316 
L 61.475469 110.41114 
L 61.800448 108.615572 
L 62.125428 110.929685 
L 62.450407 111.008264 
L 62.775387 97.715628 
L 63.100366 96.039003 
L 63.425346 104.395653 
L 63.750325 108.199021 
L 64.075305 95.280741 
L 64.400284 94.481066 
L 64.725264 92.004748 
L 65.050243 94.953534 
L 65.375223 89.742104 
L 65.700202 111.467358 
L 66.025182 95.576698 
L 66.350161 103.606317 
L 66.675141 104.705182 
L 67.000121 94.137848 
L 67.3251 104.502738 
L 67.65008 123.174864 
L 67.975059 89.871054 
L 68.300039 101.372903 
L 68.625018 99.10696 
L 68.949998 95.273479 
L 69.274977 89.298656 
L 69.599957 94.436869 
L 69.924936 123.968996 
L 70.249916 96.596907 
L 70.574895 123.26706 
L 70.899875 116.05172 
L 71.224854 92.0919 
L 71.549834 96.246694 
L 71.874813 111.148321 
L 72.199793 102.528498 
L 72.524772 104.32089 
L 72.849752 101.212813 
L 73.174732 91.87277 
L 73.499711 97.313001 
L 73.824691 151.235333 
L 74.14967 103.611043 
L 74.47465 106.950603 
L 74.799629 98.322565 
L 75.124609 94.117852 
L 75.449588 100.284504 
L 75.774568 94.784388 
L 76.099547 102.299146 
L 76.424527 115.209317 
L 76.749506 102.97369 
L 77.074486 115.91902 
L 77.399465 146.315118 
L 77.724445 96.424861 
L 78.049424 116.329008 
L 78.374404 109.409459 
L 78.699383 106.025772 
L 79.024363 104.257621 
L 79.349342 98.102986 
L 79.674322 120.939148 
L 79.999302 92.612323 
L 80.324281 124.441992 
L 80.649261 100.750712 
L 80.97424 132.414488 
L 81.29922 132.938096 
L 81.624199 158.914681 
L 81.949179 151.850092 
L 82.274158 164.435284 
L 82.599138 113.578769 
L 82.924117 143.115425 
L 83.249097 98.548547 
L 83.574076 111.692747 
L 83.899056 111.461187 
L 84.224035 103.36469 
L 84.549015 108.480603 
L 84.873994 105.486961 
L 85.198974 95.383069 
L 85.523953 105.787257 
L 85.848933 133.696393 
L 86.173913 121.992908 
L 86.498892 125.414322 
L 86.823872 124.772402 
L 87.148851 148.12931 
L 87.79881 103.009857 
L 88.12379 107.611103 
L 88.448769 109.552195 
L 88.773749 115.983803 
L 89.098728 93.359819 
L 89.423708 124.282833 
L 89.748687 119.912593 
L 90.073667 109.086863 
L 90.398646 114.337824 
L 90.723626 115.69584 
L 91.048605 113.121308 
L 91.373585 104.020528 
L 91.698564 111.551271 
L 92.023544 103.753134 
L 92.348523 111.049137 
L 92.673503 101.494827 
L 92.998483 117.130089 
L 93.323462 92.482412 
L 93.973421 121.195924 
L 94.298401 120.229357 
L 94.62338 123.881819 
L 94.94836 95.386853 
L 95.273339 124.660898 
L 95.923298 90.639813 
L 96.248278 92.247182 
L 96.573257 118.415042 
L 96.898237 105.374424 
L 97.223216 109.383085 
L 97.548196 105.479809 
L 97.873175 116.864309 
L 98.198155 123.1263 
L 98.523134 122.299571 
L 98.848114 106.94655 
L 99.173094 127.360216 
L 99.498073 113.311084 
L 99.823053 106.232994 
L 100.148032 136.131285 
L 100.797991 95.24118 
L 101.122971 101.508943 
L 101.44795 128.666933 
L 101.77293 112.013364 
L 102.097909 87.945109 
L 102.747868 196.513056 
L 103.072848 200.972995 
L 103.397827 102.473568 
L 103.722807 94.582395 
L 104.047786 126.481032 
L 104.372766 176.937691 
L 104.697745 104.265493 
L 105.022725 118.281965 
L 105.347704 86.839946 
L 105.672684 155.005319 
L 105.997664 192.425232 
L 106.322643 111.248122 
L 106.647623 98.901025 
L 106.972602 206.651145 
L 107.297582 126.457993 
L 107.622561 141.514603 
L 107.947541 106.040187 
L 108.27252 173.847593 
L 108.922479 192.229774 
L 109.247459 124.479639 
L 110.222397 271.568103 
L 110.547377 173.836981 
L 110.872356 168.291835 
L 111.197336 175.318114 
L 111.522315 165.84051 
L 111.847295 160.405319 
L 112.172275 132.162036 
L 112.497254 113.947372 
L 112.822234 142.771296 
L 113.147213 131.061303 
L 113.472193 141.087025 
L 113.797172 144.347521 
L 114.122152 126.908441 
L 114.447131 130.839803 
L 114.772111 125.485242 
L 115.42207 171.246665 
L 115.747049 111.140798 
L 116.072029 133.051208 
L 116.397008 162.714907 
L 116.721988 145.763108 
L 117.046967 90.893698 
L 117.371947 177.064736 
L 117.696926 169.664156 
L 118.021906 238.07645 
L 118.346885 149.414506 
L 118.671865 103.792036 
L 118.996845 100.353851 
L 119.321824 107.907807 
L 119.646804 76.112563 
L 120.296763 91.520271 
L 120.621742 70.369543 
L 120.946722 76.590866 
L 121.271701 75.626742 
L 121.596681 143.201703 
L 122.571619 67.831279 
L 122.896599 93.027177 
L 123.221578 66.676336 
L 123.546558 80.99304 
L 123.871537 66.907541 
L 124.196517 71.678334 
L 124.521496 67.6224 
L 124.846476 93.723884 
L 125.171456 72.423558 
L 125.496435 73.085225 
L 125.821415 93.850164 
L 126.146394 168.782596 
L 126.471374 88.86717 
L 126.796353 109.906612 
L 127.121333 104.660323 
L 127.446312 75.972071 
L 127.771292 80.992677 
L 128.096271 106.600242 
L 128.421251 80.363023 
L 128.74623 91.689565 
L 129.07121 91.444155 
L 129.396189 59.947714 
L 129.721169 100.087076 
L 130.046148 69.246257 
L 130.371128 69.368581 
L 130.696107 84.096249 
L 131.021087 75.344518 
L 131.346066 77.341955 
L 131.671046 76.652514 
L 131.996026 67.224333 
L 132.645985 71.297951 
L 132.970964 78.881262 
L 133.295944 74.029279 
L 133.620923 77.212722 
L 133.945903 73.540717 
L 134.270882 76.437121 
L 134.595862 77.726401 
L 134.920841 78.235228 
L 135.245821 67.002956 
L 135.5708 67.927698 
L 135.89578 72.00553 
L 136.220759 84.070937 
L 136.545739 62.30575 
L 136.870718 62.062246 
L 137.195698 53.702311 
L 137.520677 52.793277 
L 137.845657 57.107408 
L 138.170637 69.794139 
L 138.495616 106.590844 
L 138.820596 70.72427 
L 139.145575 71.621317 
L 139.470555 69.808109 
L 139.795534 80.208507 
L 140.120514 70.124505 
L 140.445493 70.167199 
L 140.770473 68.94622 
L 141.095452 63.572142 
L 141.745411 74.456931 
L 142.070391 63.586072 
L 142.39537 72.857694 
L 142.72035 73.834416 
L 143.045329 72.835785 
L 143.370309 73.302636 
L 143.695288 70.584538 
L 144.020268 126.607761 
L 144.345247 79.440253 
L 144.670227 49.934538 
L 144.995207 59.223374 
L 145.320186 62.49487 
L 145.645166 89.306701 
L 145.970145 61.13675 
L 146.295125 65.340952 
L 146.620104 62.135215 
L 146.945084 61.814434 
L 147.270063 73.867233 
L 147.595043 71.369026 
L 147.920022 54.666448 
L 148.569981 79.904788 
L 148.894961 57.220673 
L 149.21994 82.784087 
L 149.54492 62.894209 
L 149.869899 64.615904 
L 150.194879 84.090116 
L 150.519858 122.04638 
L 150.844838 63.500879 
L 151.169818 64.720687 
L 151.494797 68.976974 
L 151.819777 63.287023 
L 152.144756 71.94953 
L 152.469736 71.743779 
L 152.794715 56.808872 
L 153.444674 64.783551 
L 153.769654 67.001346 
L 154.094633 52.277233 
L 154.744592 95.994344 
L 155.069572 71.47409 
L 155.394551 108.708044 
L 155.719531 68.584819 
L 156.04451 66.501321 
L 156.36949 94.754219 
L 156.694469 99.172226 
L 157.019449 94.989129 
L 157.344428 83.542902 
L 157.669408 137.961346 
L 157.994388 136.512834 
L 158.644347 62.356372 
L 158.969326 44.494786 
L 159.294306 116.119032 
L 159.619285 74.839456 
L 159.944265 93.914911 
L 160.269244 55.303823 
L 160.594224 53.245165 
L 160.919203 68.522455 
L 161.244183 75.073823 
L 161.569162 45.681951 
L 161.894142 59.39062 
L 162.219121 57.288234 
L 162.86908 45.70889 
L 163.19406 58.342463 
L 163.519039 64.926229 
L 163.844019 90.524504 
L 164.168999 64.019029 
L 164.493978 70.501958 
L 165.143937 48.907435 
L 165.468917 73.200327 
L 165.793896 58.916545 
L 166.118876 55.62797 
L 166.443855 58.919428 
L 166.768835 108.227917 
L 167.093814 47.346814 
L 167.743773 81.763595 
L 168.393732 63.614719 
L 168.718712 72.148357 
L 169.043691 51.973067 
L 169.368671 50.239596 
L 169.69365 78.7638 
L 170.01863 54.786475 
L 170.668589 67.645818 
L 170.993569 146.18114 
L 171.318548 62.975964 
L 171.643528 50.919047 
L 171.968507 60.138557 
L 172.293487 47.14684 
L 172.618466 53.152264 
L 172.943446 49.776935 
L 173.593405 55.210198 
L 173.918384 61.867125 
L 174.243364 65.830118 
L 174.568343 94.227362 
L 174.893323 78.801239 
L 175.218302 70.244269 
L 175.543282 84.529291 
L 175.868261 49.553864 
L 176.193241 59.862921 
L 176.51822 81.6196 
L 176.8432 51.153725 
L 177.16818 65.417448 
L 177.493159 65.423426 
L 177.818139 86.056816 
L 178.468098 54.20855 
L 178.793077 45.23679 
L 179.443036 72.706427 
L 179.768016 45.667604 
L 180.092995 47.979936 
L 180.742954 62.219138 
L 181.067934 50.039459 
L 181.392913 48.138095 
L 181.717893 53.722231 
L 182.042872 44.391214 
L 182.367852 52.889735 
L 182.692831 146.729801 
L 183.017811 76.905486 
L 183.34279 68.987032 
L 183.66777 69.437752 
L 183.99275 48.888296 
L 184.317729 57.103768 
L 184.642709 52.390005 
L 184.967688 58.955438 
L 185.292668 56.790611 
L 185.617647 52.741139 
L 185.942627 47.013465 
L 186.267606 49.216757 
L 186.592586 56.842811 
L 186.917565 83.497971 
L 187.242545 45.248687 
L 187.567524 81.020645 
L 187.892504 130.483712 
L 188.217483 55.931877 
L 188.542463 55.698368 
L 188.867442 50.775035 
L 189.192422 63.811704 
L 189.517401 54.241282 
L 190.167361 90.393012 
L 190.49234 84.644118 
L 190.81732 88.846005 
L 191.142299 48.91309 
L 191.467279 44.533867 
L 191.792258 41.850437 
L 192.442217 47.848653 
L 192.767197 72.661812 
L 193.092176 52.213846 
L 193.417156 61.257688 
L 193.742135 64.052235 
L 194.067115 41.075077 
L 194.392094 63.29011 
L 194.717074 60.740063 
L 195.042053 54.46691 
L 195.367033 60.258108 
L 195.692012 44.715833 
L 196.016992 59.631889 
L 196.341971 44.271789 
L 196.666951 77.134712 
L 196.991931 167.898173 
L 197.31691 105.679879 
L 197.64189 84.183613 
L 197.966869 48.508885 
L 198.291849 65.750027 
L 198.616828 57.614128 
L 198.941808 88.941543 
L 199.266787 39.490156 
L 199.591767 48.031188 
L 199.916746 85.044981 
L 200.241726 58.667652 
L 200.566705 57.869547 
L 200.891685 70.777742 
L 201.216664 48.376041 
L 201.541644 51.960761 
L 201.866623 49.061857 
L 202.191603 37.512915 
L 202.516582 38.060101 
L 202.841562 45.815173 
L 203.166542 48.525413 
L 203.816501 46.526302 
L 204.14148 71.404803 
L 204.46646 48.127926 
L 204.791439 79.803411 
L 205.116419 60.846845 
L 205.441398 57.21241 
L 205.766378 108.818229 
L 206.091357 103.724911 
L 206.416337 107.631662 
L 206.741316 115.756291 
L 207.066296 84.433682 
L 207.391275 80.310067 
L 207.716255 64.553635 
L 208.041234 86.914427 
L 208.366214 71.142342 
L 208.691193 93.015704 
L 209.016173 82.95761 
L 209.341152 63.582644 
L 209.666132 72.074025 
L 209.991112 50.082543 
L 210.316091 53.116937 
L 210.641071 89.276764 
L 210.96605 36.016636 
L 211.29103 73.504474 
L 211.616009 46.578802 
L 211.940989 45.132059 
L 212.265968 70.566268 
L 212.590948 68.142604 
L 212.915927 104.113753 
L 213.240907 57.437715 
L 213.565886 96.857734 
L 213.890866 65.463268 
L 214.215845 58.110271 
L 214.865804 70.029244 
L 215.190784 49.934998 
L 215.515763 68.021234 
L 215.840743 73.520313 
L 216.165723 50.887164 
L 216.490702 84.138685 
L 217.140661 38.878371 
L 217.465641 56.727917 
L 217.79062 63.523579 
L 218.440579 40.932556 
L 218.765559 43.929136 
L 219.090538 48.196535 
L 219.415518 48.292826 
L 219.740497 51.076375 
L 220.065477 42.611675 
L 220.390456 47.502764 
L 220.715436 59.902549 
L 221.040415 46.280767 
L 221.365395 46.133329 
L 222.015354 36.030482 
L 222.340333 49.561826 
L 222.990293 40.332584 
L 223.315272 46.205287 
L 223.640252 42.733685 
L 223.965231 46.718507 
L 224.290211 42.57491 
L 224.94017 41.065224 
L 225.265149 37.038162 
L 225.590129 38.836328 
L 225.915108 47.848814 
L 226.240088 81.304595 
L 226.565067 44.727031 
L 226.890047 47.467401 
L 227.215026 79.729103 
L 227.540006 56.681816 
L 227.864985 46.774959 
L 228.189965 48.075075 
L 228.514944 47.94354 
L 228.839924 45.246939 
L 229.164904 87.584556 
L 229.489883 101.978831 
L 229.814863 74.820461 
L 230.139842 70.974466 
L 230.464822 58.023091 
L 231.114781 55.475913 
L 231.43976 37.368704 
L 231.76474 84.81345 
L 232.089719 52.307873 
L 232.414699 44.068212 
L 232.739678 61.953157 
L 233.064658 49.048701 
L 233.389637 49.508595 
L 233.714617 59.410102 
L 234.039596 52.994247 
L 234.364576 97.450574 
L 234.689555 56.54788 
L 235.339514 49.842621 
L 235.664494 89.45279 
L 235.989474 110.542402 
L 236.314453 66.075619 
L 236.639433 48.247204 
L 236.964412 72.127637 
L 237.289392 57.208947 
L 237.614371 49.732272 
L 237.939351 68.879635 
L 238.26433 49.77481 
L 238.58931 48.331087 
L 238.914289 84.100381 
L 239.239269 98.584821 
L 239.564248 68.946719 
L 239.889228 49.606607 
L 240.214207 71.034455 
L 240.539187 57.196231 
L 240.864166 38.069518 
L 242.164085 63.973878 
L 242.489064 46.582497 
L 242.814044 43.65222 
L 243.139023 42.264382 
L 243.464003 49.178363 
L 243.788982 49.047411 
L 244.113962 46.755438 
L 244.438941 40.466887 
L 244.763921 54.114302 
L 245.41388 37.966235 
L 245.738859 52.32115 
L 246.063839 52.765551 
L 246.388818 73.862598 
L 247.038777 98.243363 
L 247.363757 64.877283 
L 247.688736 66.17186 
L 248.013716 95.195048 
L 248.338695 88.652358 
L 248.663675 57.911616 
L 248.988655 118.461982 
L 249.313634 101.769539 
L 249.638614 73.376408 
L 249.963593 55.857639 
L 250.288573 115.265765 
L 250.613552 57.848135 
L 250.938532 54.213251 
L 251.263511 44.726797 
L 251.588491 38.820153 
L 251.91347 58.94152 
L 252.23845 43.378343 
L 252.563429 44.767536 
L 252.888409 40.908716 
L 253.213388 48.13718 
L 253.863347 40.585353 
L 254.188327 39.29699 
L 254.513306 42.619346 
L 254.838286 36.470828 
L 255.163266 46.570117 
L 255.488245 46.829815 
L 255.813225 77.38489 
L 256.138204 86.655292 
L 256.463184 76.371114 
L 256.788163 47.189478 
L 257.113143 61.165371 
L 257.438122 35.453923 
L 257.763102 35.482464 
L 258.088081 43.22816 
L 258.413061 79.098822 
L 258.73804 36.911053 
L 259.387999 48.381624 
L 259.712979 41.351221 
L 260.037958 56.790031 
L 260.362938 51.982519 
L 260.687917 54.1997 
L 261.012897 40.089863 
L 261.337876 49.231175 
L 261.662856 92.140625 
L 261.987836 106.422581 
L 262.312815 82.471528 
L 262.637795 276.334125 
L 262.962774 59.982014 
L 263.287754 99.973015 
L 263.937713 50.872926 
L 264.262692 49.051952 
L 264.587672 49.911843 
L 264.912651 53.9606 
L 265.237631 40.564445 
L 265.56261 37.070424 
L 265.88759 68.431936 
L 266.212569 40.406861 
L 266.537549 36.467802 
L 266.862528 40.205114 
L 267.187508 52.204321 
L 267.512487 40.86252 
L 267.837467 36.639444 
L 268.162447 48.175533 
L 268.487426 36.210453 
L 268.812406 61.41037 
L 269.137385 41.992388 
L 269.462365 43.892837 
L 269.787344 53.428902 
L 270.112324 40.66143 
L 270.437303 71.706076 
L 271.087262 37.390257 
L 271.412242 66.321777 
L 271.737221 40.939174 
L 272.062201 41.952232 
L 272.38718 40.876882 
L 272.71216 37.335588 
L 273.037139 41.828816 
L 273.362119 49.09392 
L 273.687098 48.997705 
L 274.012078 35.89329 
L 274.337057 40.681378 
L 274.662037 53.46775 
L 274.987017 37.057039 
L 275.311996 54.595254 
L 275.636976 50.391845 
L 275.961955 43.736916 
L 276.286935 41.558129 
L 276.611914 52.958174 
L 276.936894 43.168558 
L 277.261873 51.77821 
L 277.586853 36.670953 
L 277.911832 44.350607 
L 278.236812 36.488442 
L 278.561791 35.964555 
L 278.886771 48.053609 
L 279.21175 36.279501 
L 279.53673 45.708625 
L 279.861709 37.117935 
L 280.186689 38.67052 
L 280.511668 35.416043 
L 280.836648 44.692354 
L 281.161628 50.66148 
L 281.486607 53.151317 
L 281.811587 59.510877 
L 282.136566 36.882343 
L 282.461546 38.579358 
L 282.786525 41.044426 
L 283.111505 96.026265 
L 283.436484 82.351566 
L 283.761464 41.070283 
L 284.086443 39.117659 
L 284.411423 34.840849 
L 284.736402 62.31892 
L 285.061382 63.551672 
L 285.386361 57.758727 
L 285.711341 44.044699 
L 286.03632 40.578331 
L 286.3613 45.131679 
L 286.686279 35.432224 
L 287.011259 40.810139 
L 287.336238 38.551045 
L 287.661218 60.086738 
L 287.986198 43.154511 
L 288.311177 69.854855 
L 288.636157 71.803048 
L 288.961136 35.08519 
L 289.286116 58.294241 
L 289.611095 40.350518 
L 289.936075 35.925773 
L 290.261054 47.531647 
L 290.586034 38.753889 
L 290.911013 45.941498 
L 291.235993 73.848783 
L 291.560972 42.487433 
L 291.885952 141.874149 
L 292.535911 43.345684 
L 292.86089 74.91652 
L 293.18587 41.009675 
L 293.835829 37.666363 
L 294.160809 38.890945 
L 294.485788 39.263927 
L 294.810768 37.411337 
L 295.135747 50.472741 
L 295.460727 69.45915 
L 295.785706 40.303334 
L 296.110686 37.281947 
L 296.435665 50.332075 
L 296.760645 43.496216 
L 297.085624 39.186573 
L 297.410604 41.727782 
L 297.735583 39.112641 
L 298.060563 81.871119 
L 299.360481 41.814425 
L 299.68546 35.234216 
L 300.01044 41.733756 
L 300.335419 37.967727 
L 300.660399 41.085519 
L 300.985379 62.05819 
L 301.310358 38.514623 
L 301.960317 85.532791 
L 302.285297 53.730213 
L 302.610276 78.695823 
L 302.935256 52.557918 
L 303.260235 49.081341 
L 303.910194 68.07357 
L 304.235174 38.666706 
L 304.560153 76.064068 
L 304.885133 54.942214 
L 305.210112 66.478346 
L 305.535092 55.460944 
L 305.860071 49.906414 
L 306.185051 71.149888 
L 306.51003 63.713556 
L 306.83501 40.448607 
L 307.15999 38.003448 
L 307.809949 83.093106 
L 308.134928 61.021816 
L 308.459908 78.977485 
L 308.784887 43.148654 
L 309.109867 42.224204 
L 309.434846 35.422814 
L 309.759826 56.815647 
L 310.084805 43.804043 
L 310.409785 46.380103 
L 310.734764 60.476231 
L 311.059744 40.303133 
L 311.384723 75.031616 
L 311.709703 55.824809 
L 312.034682 48.135308 
L 312.359662 51.750975 
L 312.684641 70.010257 
L 313.009621 44.645305 
L 313.3346 56.705295 
L 313.65958 76.058583 
L 314.309539 40.309947 
L 314.634519 50.359233 
L 314.959498 46.503184 
L 315.284478 50.02693 
L 315.609457 60.090755 
L 315.934437 140.363948 
L 316.259416 81.647507 
L 317.234355 36.511034 
L 317.559334 37.319907 
L 317.884314 38.695636 
L 318.209293 34.617002 
L 318.534273 43.267576 
L 318.859252 46.529952 
L 319.184232 38.056304 
L 319.509211 49.824494 
L 319.834191 56.025729 
L 320.159171 46.112489 
L 320.48415 70.534418 
L 320.80913 36.193586 
L 321.134109 41.393971 
L 321.459089 35.696496 
L 321.784068 49.037448 
L 322.109048 34.414125 
L 322.434027 36.642834 
L 322.759007 34.59143 
L 323.083986 36.279792 
L 323.408966 94.274107 
L 323.733945 94.425114 
L 324.058925 44.9711 
L 324.383904 51.545959 
L 324.708884 69.773543 
L 325.033863 41.52284 
L 325.358843 66.909406 
L 325.683822 58.82228 
L 326.008802 59.372575 
L 326.658761 44.567971 
L 326.983741 66.545587 
L 327.30872 49.526782 
L 327.6337 70.266448 
L 328.283659 37.171428 
L 328.608638 51.735864 
L 328.933618 35.95476 
L 329.258597 47.216646 
L 329.583577 46.273263 
L 329.908556 50.951144 
L 330.233536 66.606878 
L 330.558515 39.734132 
L 330.883495 36.26543 
L 331.208474 44.210722 
L 331.858433 72.091379 
L 332.183413 55.490518 
L 332.508392 72.742656 
L 333.158352 42.146278 
L 333.483331 75.485449 
L 333.808311 86.848438 
L 334.13329 87.632821 
L 334.783249 40.029586 
L 335.108229 36.113579 
L 335.433208 36.338855 
L 335.758188 53.390476 
L 336.083167 46.091277 
L 336.408147 48.895366 
L 336.733126 44.66649 
L 337.058106 55.232253 
L 337.383085 38.729701 
L 337.708065 40.182444 
L 338.033044 40.343152 
L 338.358024 44.121774 
L 338.683003 34.788294 
L 339.007983 36.850015 
L 339.332962 50.125729 
L 339.657942 54.479647 
L 339.982922 49.65303 
L 340.307901 40.507954 
L 340.632881 49.237709 
L 340.95786 40.994632 
L 341.28284 38.674721 
L 341.932799 53.564686 
L 342.257778 60.478591 
L 342.907737 49.891598 
L 343.232717 67.066772 
L 343.557696 37.379473 
L 344.207655 38.680619 
L 344.532635 35.491379 
L 344.857614 42.425893 
L 345.182594 75.183037 
L 345.507573 34.734805 
L 345.832553 48.25023 
L 346.157533 40.605081 
L 346.482512 36.210454 
L 346.807492 45.095742 
L 347.132471 36.917169 
L 347.457451 57.170264 
L 347.78243 99.622638 
L 348.10741 112.903664 
L 348.432389 66.370733 
L 348.757369 67.227156 
L 349.082348 40.829048 
L 349.407328 41.765397 
L 349.732307 44.053605 
L 350.057287 36.492423 
L 350.382266 44.670895 
L 350.707246 38.746918 
L 351.032225 38.101729 
L 351.357205 78.718147 
L 351.682184 51.666467 
L 352.007164 94.172096 
L 352.332143 44.743097 
L 352.657123 56.73142 
L 352.982103 45.589619 
L 353.307082 41.95318 
L 353.632062 48.227239 
L 353.957041 44.991262 
L 354.282021 58.865054 
L 354.607 37.840766 
L 354.93198 43.781029 
L 355.256959 36.513984 
L 355.581939 39.751456 
L 355.906918 38.639151 
L 356.556877 63.50648 
L 356.881857 36.64917 
L 357.206836 61.469586 
L 357.531816 35.119472 
L 358.181775 50.082285 
L 358.506754 52.001395 
L 358.831734 46.448038 
L 359.156714 229.541913 
L 359.481693 43.374582 
L 359.806673 45.782312 
L 360.131652 75.767817 
L 360.456632 136.049645 
L 360.781611 67.378208 
L 361.106591 80.008162 
L 361.43157 64.634227 
L 361.75655 35.677715 
L 362.406509 64.915866 
L 362.731488 90.333589 
L 363.056468 100.350876 
L 363.381447 64.532517 
L 363.706427 87.81487 
L 364.031406 54.577325 
L 364.681365 34.606352 
L 365.006345 35.906036 
L 365.331324 36.131315 
L 365.656304 38.619935 
L 365.981284 54.201319 
L 366.306263 35.559183 
L 366.631243 41.112957 
L 366.956222 36.943898 
L 367.281202 45.384607 
L 367.606181 61.141386 
L 367.931161 37.756428 
L 368.25614 41.507344 
L 368.58112 46.763908 
L 368.906099 45.022881 
L 369.231079 42.002244 
L 369.881038 47.188721 
L 370.206017 38.519985 
L 370.530997 41.069602 
L 370.855976 34.814605 
L 371.180956 36.248686 
L 371.505935 140.777147 
L 371.830915 64.621206 
L 372.805854 39.36568 
L 373.130833 36.87128 
L 373.455813 50.013166 
L 373.780792 36.065305 
L 374.105772 39.444745 
L 374.430751 40.767752 
L 374.755731 38.471881 
L 375.08071 46.169781 
L 375.08071 46.169781 
" style="fill:none;stroke:#4c72b0;stroke-linecap:round;stroke-width:1.5;"/>
   </g>
   <g id="line2d_14">
    <path clip-path="url(#paf35691ac5)" d="M 50.426165 154.514743 
L 50.751144 155.014742 
L 52.701021 154.84775 
L 53.026001 155.442762 
L 53.35098 155.238182 
L 54.325919 143.202137 
L 54.650899 140.451056 
L 54.975878 138.730511 
L 55.300858 135.788155 
L 55.625837 134.632619 
L 55.950817 132.105369 
L 56.600776 124.662732 
L 56.925755 124.753672 
L 57.250735 125.460842 
L 57.575714 123.458083 
L 58.550653 115.152185 
L 59.850571 107.872038 
L 60.175551 108.557006 
L 60.50053 108.007564 
L 60.82551 106.814569 
L 61.150489 106.288428 
L 61.475469 106.700699 
L 61.800448 106.892186 
L 62.450407 107.667169 
L 63.100366 105.608714 
L 63.425346 105.487408 
L 63.750325 105.758569 
L 65.375223 100.56083 
L 65.700202 101.651482 
L 66.025182 101.044004 
L 66.675141 101.64073 
L 67.000121 100.890442 
L 67.3251 101.251671 
L 67.65008 103.443991 
L 67.975059 102.086697 
L 68.300039 102.015318 
L 68.625018 101.724482 
L 68.949998 101.079381 
L 69.274977 99.901309 
L 69.599957 99.354865 
L 69.924936 101.816278 
L 70.249916 101.294341 
L 70.574895 103.491613 
L 70.899875 104.747624 
L 71.224854 103.482051 
L 71.549834 102.758516 
L 71.874813 103.597496 
L 72.199793 103.490596 
L 72.524772 103.573626 
L 72.849752 103.337544 
L 73.174732 102.191067 
L 73.499711 101.70326 
L 73.824691 106.656468 
L 74.14967 106.351925 
L 74.47465 106.411793 
L 74.799629 105.60287 
L 75.124609 104.454368 
L 75.449588 104.037382 
L 75.774568 103.112082 
L 76.099547 103.030789 
L 76.424527 104.248642 
L 76.749506 104.121146 
L 77.074486 105.300934 
L 77.399465 109.402352 
L 77.724445 108.104603 
L 78.049424 108.927044 
L 78.374404 108.975285 
L 79.024363 108.238062 
L 79.349342 107.224555 
L 79.674322 108.596014 
L 79.999302 106.997645 
L 80.324281 108.74208 
L 80.649261 107.942943 
L 81.29922 112.644897 
L 82.274158 125.100256 
L 82.599138 123.948107 
L 82.924117 125.864839 
L 83.249097 123.13321 
L 83.899056 120.936366 
L 84.224035 119.179198 
L 84.873994 116.847101 
L 85.198974 114.700698 
L 85.523953 113.809354 
L 85.848933 115.798058 
L 86.173913 116.417543 
L 86.823872 118.062739 
L 87.148851 121.069396 
L 87.473831 121.070989 
L 87.79881 119.264876 
L 88.448769 117.244768 
L 88.773749 117.118672 
L 89.098728 114.742786 
L 89.423708 115.696791 
L 89.748687 116.118371 
L 90.073667 115.41522 
L 90.398646 115.307481 
L 90.723626 115.346317 
L 91.048605 115.123816 
L 91.373585 114.013487 
L 91.698564 113.767265 
L 92.023544 112.765852 
L 92.348523 112.594181 
L 92.673503 111.484245 
L 92.998483 112.04883 
L 93.323462 110.092188 
L 93.648442 110.048233 
L 94.62338 113.250856 
L 94.94836 111.464456 
L 95.273339 112.7841 
L 95.598319 112.247073 
L 96.248278 108.302431 
L 96.573257 109.313692 
L 96.898237 108.919765 
L 97.223216 108.966097 
L 97.548196 108.617468 
L 97.873175 109.442152 
L 98.523134 111.959467 
L 98.848114 111.458176 
L 99.173094 113.04838 
L 99.498073 113.07465 
L 99.823053 112.390485 
L 100.148032 114.764565 
L 100.473012 115.124071 
L 100.797991 113.135782 
L 101.122971 111.973098 
L 101.44795 113.642481 
L 101.77293 113.47957 
L 102.097909 110.926124 
L 102.422889 114.833662 
L 103.072848 130.798741 
L 103.722807 124.627841 
L 104.047786 124.81316 
L 104.372766 130.025613 
L 104.697745 127.449601 
L 105.022725 126.532837 
L 105.347704 122.563548 
L 105.672684 125.807725 
L 105.997664 132.469476 
L 106.322643 130.347341 
L 106.647623 127.202709 
L 106.972602 135.147553 
L 107.297582 134.278597 
L 107.622561 135.002197 
L 107.947541 132.105996 
L 108.5975 141.133515 
L 108.922479 146.243141 
L 109.247459 144.06679 
L 109.572438 147.15683 
L 109.897418 153.850436 
L 110.222397 165.622203 
L 110.547377 166.44368 
L 110.872356 166.628496 
L 111.197336 167.497458 
L 111.522315 167.331763 
L 111.847295 166.639119 
L 112.172275 163.19141 
L 112.497254 158.267006 
L 112.822234 156.717435 
L 113.147213 154.151822 
L 113.797172 151.99556 
L 114.447131 147.622144 
L 114.772111 145.408454 
L 115.09709 145.980096 
L 115.42207 148.506753 
L 115.747049 144.770157 
L 116.072029 143.598262 
L 116.397008 145.509927 
L 116.721988 145.535245 
L 117.046967 140.07109 
L 117.696926 146.359825 
L 118.021906 155.531487 
L 118.346885 154.919789 
L 120.621742 120.263138 
L 121.271701 111.868994 
L 121.596681 115.002265 
L 121.92166 115.328039 
L 122.24664 112.976993 
L 122.571619 108.462422 
L 122.896599 106.918897 
L 123.221578 102.894641 
L 123.546558 100.704481 
L 124.196517 94.760142 
L 124.521496 92.046368 
L 124.846476 92.214119 
L 125.496435 88.520079 
L 125.821415 89.053088 
L 126.146394 97.026039 
L 126.471374 96.210152 
L 126.796353 97.579798 
L 127.121333 98.28785 
L 127.771292 94.549913 
L 128.096271 95.754946 
L 128.421251 94.215753 
L 129.07121 93.711237 
L 129.396189 90.334884 
L 129.721169 91.310104 
L 130.371128 87.130205 
L 130.696107 86.82681 
L 131.346066 84.844918 
L 131.671046 84.025678 
L 132.321005 81.015578 
L 132.645985 80.043815 
L 132.970964 79.92756 
L 133.295944 79.337732 
L 133.620923 79.125231 
L 133.945903 78.566779 
L 134.270882 78.353813 
L 134.920841 78.285488 
L 135.5708 76.234281 
L 135.89578 75.811406 
L 136.220759 76.637359 
L 137.195698 71.871234 
L 137.845657 68.677835 
L 138.170637 68.789465 
L 138.495616 72.569603 
L 139.470555 72.058636 
L 139.795534 72.873623 
L 140.770473 72.014626 
L 141.095452 71.170378 
L 141.420432 70.898739 
L 141.745411 71.254558 
L 142.070391 70.487709 
L 143.370309 71.424384 
L 143.695288 71.340399 
L 144.020268 76.867136 
L 144.345247 77.124447 
L 144.670227 74.405456 
L 145.320186 71.84801 
L 145.645166 73.593879 
L 145.970145 72.348166 
L 146.620104 70.696222 
L 146.945084 69.808043 
L 147.270063 70.213962 
L 147.595043 70.329469 
L 147.920022 68.763166 
L 148.245002 68.770066 
L 148.569981 69.883538 
L 148.894961 68.617252 
L 149.21994 70.033935 
L 149.869899 68.849557 
L 150.194879 70.373612 
L 150.519858 75.540889 
L 151.169818 73.375268 
L 151.494797 72.935439 
L 151.819777 71.970597 
L 152.469736 71.946019 
L 152.794715 70.432305 
L 153.119695 69.494499 
L 153.444674 69.023404 
L 153.769654 68.821198 
L 154.094633 67.166802 
L 154.419613 68.128776 
L 154.744592 70.915333 
L 155.069572 70.971209 
L 155.394551 74.744892 
L 156.04451 73.366128 
L 157.019449 79.583413 
L 157.344428 79.979362 
L 157.994388 90.851088 
L 158.319367 91.197038 
L 158.644347 88.312971 
L 158.969326 83.931153 
L 159.294306 87.149941 
L 159.619285 85.918892 
L 159.944265 86.718494 
L 160.594224 80.543841 
L 160.919203 79.341702 
L 161.244183 78.914914 
L 161.569162 75.591618 
L 162.544101 70.213189 
L 162.86908 67.762759 
L 163.19406 66.82073 
L 163.519039 66.63128 
L 163.844019 69.020602 
L 164.168999 68.520445 
L 164.493978 68.718596 
L 164.818958 67.951835 
L 165.143937 66.047395 
L 165.468917 66.762688 
L 166.443855 64.3407 
L 166.768835 68.729421 
L 167.093814 66.591161 
L 167.418794 66.230869 
L 167.743773 67.784141 
L 168.068753 68.392766 
L 168.393732 67.914961 
L 168.718712 68.338301 
L 169.368671 65.055559 
L 169.69365 66.426383 
L 170.01863 65.262393 
L 170.343609 64.781202 
L 170.668589 65.067664 
L 170.993569 73.179011 
L 171.318548 72.158707 
L 171.643528 70.034741 
L 171.968507 69.045122 
L 172.293487 66.855294 
L 173.268425 62.752251 
L 173.593405 61.998046 
L 173.918384 61.984954 
L 174.243364 62.36947 
L 174.568343 65.555259 
L 174.893323 66.879857 
L 175.218302 67.216298 
L 175.543282 68.947598 
L 175.868261 67.008224 
L 176.193241 66.293694 
L 176.51822 67.826285 
L 176.8432 66.159029 
L 177.493159 66.018726 
L 177.818139 68.022535 
L 178.143118 68.165522 
L 178.468098 66.769825 
L 178.793077 64.616521 
L 179.118057 64.180205 
L 179.443036 65.032827 
L 180.092995 61.584668 
L 180.417975 61.063099 
L 180.742954 61.178703 
L 181.392913 58.87211 
L 181.717893 58.357122 
L 182.042872 56.960531 
L 182.367852 56.553452 
L 182.692831 65.571087 
L 183.017811 66.704526 
L 183.66777 67.183275 
L 183.99275 65.353777 
L 184.317729 64.528776 
L 184.642709 63.314899 
L 185.292668 62.270118 
L 185.617647 61.317221 
L 186.267606 58.819836 
L 186.592586 58.622134 
L 186.917565 61.109717 
L 187.242545 59.523614 
L 187.567524 61.673317 
L 187.892504 68.554357 
L 188.867442 64.596965 
L 189.192422 64.518439 
L 189.517401 63.490723 
L 189.842381 64.554779 
L 190.49234 68.889154 
L 190.81732 70.884839 
L 192.442217 60.557598 
L 192.767197 61.76802 
L 193.092176 60.812602 
L 193.417156 60.857111 
L 193.742135 61.176623 
L 194.067115 59.166469 
L 194.392094 59.578833 
L 194.717074 59.694956 
L 195.042053 59.172151 
L 195.367033 59.280747 
L 195.692012 57.824255 
L 196.016992 58.005019 
L 196.341971 56.631696 
L 196.666951 58.681997 
L 196.991931 69.603615 
L 197.31691 73.211241 
L 197.64189 74.308479 
L 197.966869 71.728519 
L 198.291849 71.13067 
L 198.616828 69.779016 
L 198.941808 71.695269 
L 199.266787 68.474757 
L 199.591767 66.4304 
L 199.916746 68.291858 
L 200.566705 66.383449 
L 200.891685 66.822878 
L 201.541644 63.676451 
L 201.866623 62.214992 
L 202.516582 57.576316 
L 203.166542 55.612722 
L 203.816501 53.961934 
L 204.14148 55.706221 
L 204.46646 54.948392 
L 204.791439 57.433894 
L 205.116419 57.775189 
L 205.441398 57.718911 
L 206.091357 66.91845 
L 206.741316 75.466423 
L 207.066296 76.363149 
L 207.391275 76.757841 
L 207.716255 75.53742 
L 208.041234 76.675121 
L 208.366214 76.121843 
L 208.691193 77.811229 
L 209.016173 78.325867 
L 209.341152 76.851545 
L 209.666132 76.373793 
L 210.316091 71.681895 
L 210.641071 73.441382 
L 210.96605 69.698907 
L 211.29103 70.079464 
L 211.940989 65.469664 
L 212.265968 65.979324 
L 212.590948 66.195652 
L 212.915927 69.987462 
L 213.240907 68.732488 
L 213.565886 71.545012 
L 213.890866 70.936838 
L 214.215845 69.654181 
L 214.540825 69.038628 
L 214.865804 69.13769 
L 215.190784 67.217421 
L 215.515763 67.297802 
L 215.840743 67.920053 
L 216.165723 66.216764 
L 216.490702 68.008956 
L 216.815682 67.073569 
L 217.140661 64.254049 
L 217.465641 63.501436 
L 217.79062 63.50365 
L 218.1156 62.269185 
L 218.765559 58.514884 
L 219.415518 56.564027 
L 219.740497 56.015261 
L 220.065477 54.674903 
L 220.390456 53.957689 
L 220.715436 54.552175 
L 221.690374 51.835318 
L 222.015354 50.254834 
L 222.340333 50.185533 
L 222.665313 49.650372 
L 222.990293 48.718593 
L 223.315272 48.467262 
L 223.640252 47.893905 
L 223.965231 47.776365 
L 224.94017 46.145681 
L 225.590129 44.595069 
L 225.915108 44.920443 
L 226.240088 48.558859 
L 226.565067 48.175676 
L 226.890047 48.104848 
L 227.215026 51.267274 
L 227.540006 51.808728 
L 228.189965 50.982324 
L 228.514944 50.678445 
L 228.839924 50.135295 
L 229.814863 60.30312 
L 230.139842 61.370254 
L 230.789801 60.617639 
L 231.114781 60.103467 
L 231.43976 57.82999 
L 231.76474 60.528336 
L 232.089719 59.70629 
L 232.414699 58.142482 
L 232.739678 58.52355 
L 233.389637 56.769318 
L 233.714617 57.033396 
L 234.039596 56.629481 
L 234.364576 60.71159 
L 234.689555 60.295219 
L 235.014535 59.619222 
L 235.339514 58.641562 
L 235.664494 61.722685 
L 235.989474 66.604656 
L 236.314453 66.551753 
L 236.639433 64.721298 
L 236.964412 65.461932 
L 237.289392 64.636633 
L 237.614371 63.146197 
L 237.939351 63.719541 
L 238.58931 60.92567 
L 238.914289 63.243141 
L 239.239269 66.777309 
L 239.564248 66.99425 
L 239.889228 65.255486 
L 240.214207 65.833383 
L 240.539187 64.969667 
L 240.864166 62.279652 
L 241.189146 60.549202 
L 241.514125 59.56444 
L 241.839105 59.371229 
L 242.164085 59.831494 
L 243.464003 54.908767 
L 244.113962 53.565912 
L 244.438941 52.25601 
L 244.763921 52.441839 
L 245.0889 51.867963 
L 245.41388 50.47779 
L 246.063839 50.872469 
L 246.388818 53.171482 
L 247.038777 60.519217 
L 247.688736 61.476707 
L 248.338695 67.228923 
L 248.663675 66.297192 
L 248.988655 71.513671 
L 249.313634 74.539258 
L 249.638614 74.422973 
L 249.963593 72.56644 
L 250.288573 76.836372 
L 250.938532 72.865119 
L 251.588491 66.928173 
L 251.91347 66.129508 
L 252.888409 59.842007 
L 253.538368 57.218196 
L 254.513306 52.798142 
L 254.838286 51.165411 
L 255.488245 50.318275 
L 256.463184 58.386286 
L 256.788163 57.266605 
L 257.113143 57.656482 
L 257.763102 53.44085 
L 258.088081 52.419581 
L 258.413061 55.087505 
L 258.73804 53.26986 
L 259.06302 52.295753 
L 259.387999 51.90434 
L 259.712979 50.849028 
L 260.037958 51.443128 
L 260.362938 51.497067 
L 260.687917 51.767331 
L 261.012897 50.599584 
L 261.337876 50.462743 
L 262.312815 62.075916 
L 262.637795 83.501736 
L 262.962774 81.149764 
L 263.287754 83.032089 
L 263.612733 82.552254 
L 264.587672 73.70716 
L 264.912651 71.732504 
L 265.56261 65.461171 
L 265.88759 65.758247 
L 266.862528 58.513331 
L 267.187508 57.88243 
L 267.837467 54.22634 
L 268.162447 53.621259 
L 268.487426 51.880179 
L 268.812406 52.833198 
L 269.462365 50.963489 
L 269.787344 51.21003 
L 270.112324 50.15517 
L 270.437303 52.310261 
L 270.762283 52.616437 
L 271.087262 51.093819 
L 271.412242 52.616615 
L 272.062201 50.499207 
L 273.037139 47.668034 
L 273.687098 47.929331 
L 274.012078 46.725727 
L 274.337057 46.121292 
L 274.662037 46.855938 
L 274.987017 45.876048 
L 275.311996 46.747968 
L 275.636976 47.112356 
L 275.961955 46.774812 
L 276.286935 46.253144 
L 276.611914 46.923647 
L 276.936894 46.548138 
L 277.261873 47.071145 
L 277.586853 46.031126 
L 277.911832 45.863074 
L 278.561791 44.029505 
L 278.886771 44.431916 
L 279.21175 43.616674 
L 279.53673 43.825869 
L 280.511668 41.977562 
L 280.836648 42.249042 
L 281.486607 44.096389 
L 281.811587 45.637837 
L 282.461546 44.143995 
L 282.786525 43.834038 
L 283.111505 49.053261 
L 283.436484 52.383091 
L 284.086443 50.038395 
L 284.411423 48.518641 
L 285.061382 51.263969 
L 285.386361 51.913445 
L 286.3613 49.57774 
L 286.686279 48.163188 
L 287.336238 46.540199 
L 287.661218 47.894853 
L 287.986198 47.420819 
L 288.636157 51.878105 
L 288.961136 50.198814 
L 289.286116 51.008356 
L 289.936075 48.540893 
L 290.261054 48.439968 
L 290.586034 47.47136 
L 290.911013 47.318374 
L 291.235993 49.971415 
L 291.560972 49.223017 
L 291.885952 58.48813 
L 292.210931 61.744928 
L 292.535911 59.905003 
L 292.86089 61.406155 
L 294.160809 53.739678 
L 294.810768 50.804026 
L 295.135747 50.770898 
L 295.460727 52.639723 
L 296.110686 49.99367 
L 296.435665 50.027511 
L 296.760645 49.374381 
L 297.410604 47.692819 
L 297.735583 46.834801 
L 298.060563 50.338433 
L 298.385542 52.453966 
L 298.710522 53.151519 
L 299.035501 52.840736 
L 299.360481 51.738105 
L 299.68546 50.087716 
L 300.660399 47.420027 
L 300.985379 48.883843 
L 301.310358 47.846921 
L 301.635338 49.475248 
L 301.960317 53.081003 
L 302.285297 53.145924 
L 302.610276 55.700914 
L 302.935256 55.386614 
L 303.260235 54.756087 
L 303.585215 55.325998 
L 303.910194 56.600755 
L 304.235174 54.80735 
L 304.560153 56.933022 
L 304.885133 56.733941 
L 305.210112 57.708381 
L 305.535092 57.483638 
L 305.860071 56.725915 
L 306.185051 58.168313 
L 306.51003 58.722837 
L 307.15999 55.006217 
L 307.484969 55.860125 
L 307.809949 58.583423 
L 308.134928 58.827262 
L 308.459908 60.842284 
L 309.434846 55.191526 
L 309.759826 55.353938 
L 310.409785 53.417064 
L 310.734764 54.122981 
L 311.059744 52.740996 
L 311.384723 54.970058 
L 311.709703 55.055533 
L 312.034682 54.36351 
L 312.359662 54.102257 
L 312.684641 55.693057 
L 313.009621 54.588282 
L 313.3346 54.799983 
L 313.65958 56.925843 
L 313.98456 57.23091 
L 314.309539 55.538814 
L 314.634519 55.020856 
L 314.959498 54.169088 
L 315.284478 53.754873 
L 315.609457 54.388461 
L 315.934437 62.98601 
L 316.259416 64.852159 
L 316.584396 64.987975 
L 316.909375 63.908224 
L 317.559334 58.783645 
L 318.534273 53.429911 
L 318.859252 52.739916 
L 319.184232 51.271554 
L 319.509211 51.126848 
L 319.834191 51.616736 
L 320.159171 51.066312 
L 320.48415 53.013122 
L 320.80913 51.331169 
L 321.134109 50.337449 
L 321.459089 48.873354 
L 321.784068 48.889763 
L 322.434027 46.362263 
L 323.083986 44.294641 
L 323.733945 53.80584 
L 324.058925 52.922366 
L 324.383904 52.784725 
L 324.708884 54.483607 
L 325.033863 53.18753 
L 325.358843 54.559718 
L 326.008802 55.424634 
L 326.333781 55.184129 
L 326.658761 54.122513 
L 326.983741 55.364821 
L 327.30872 54.781017 
L 327.6337 56.32956 
L 327.958679 56.095645 
L 328.283659 54.203223 
L 328.608638 53.956487 
L 328.933618 52.156315 
L 329.583577 51.123439 
L 329.908556 51.10621 
L 330.233536 52.656277 
L 330.883495 49.854199 
L 331.208474 49.289851 
L 331.533454 50.042327 
L 331.858433 52.247232 
L 332.183413 52.571561 
L 332.508392 54.58867 
L 332.833372 54.743274 
L 333.158352 53.483575 
L 333.483331 55.683762 
L 334.13329 61.683489 
L 334.45827 61.797495 
L 335.433208 55.176878 
L 335.758188 54.998238 
L 336.083167 54.107542 
L 336.408147 53.586324 
L 336.733126 52.694341 
L 337.058106 52.948132 
L 337.708065 50.391904 
L 338.033044 49.387029 
L 338.358024 48.860504 
L 339.007983 46.392956 
L 339.332962 46.766233 
L 339.657942 47.537575 
L 339.982922 47.74912 
L 340.307901 47.025003 
L 340.632881 47.246274 
L 341.28284 45.826471 
L 341.607819 45.968721 
L 341.932799 46.728318 
L 342.257778 48.103345 
L 342.582758 48.747131 
L 342.907737 48.861578 
L 343.232717 50.682097 
L 343.882676 48.209144 
L 344.532635 46.0798 
L 344.857614 45.714409 
L 345.182594 48.661272 
L 345.507573 47.268626 
L 345.832553 47.366786 
L 346.157533 46.690615 
L 346.482512 45.642599 
L 346.807492 45.587914 
L 347.132471 44.720839 
L 347.457451 45.965782 
L 348.10741 57.488687 
L 348.757369 59.261918 
L 349.407328 55.853307 
L 349.732307 54.673337 
L 350.057287 52.855246 
L 350.382266 52.036811 
L 351.032225 49.447212 
L 351.357205 52.374306 
L 351.682184 52.303522 
L 352.007164 56.490379 
L 352.332143 55.315651 
L 352.657123 55.457228 
L 353.632062 52.719588 
L 353.957041 51.946756 
L 354.282021 52.638586 
L 354.607 51.158804 
L 354.93198 50.421026 
L 355.581939 48.102435 
L 355.906918 47.156107 
L 356.231898 47.657191 
L 356.556877 49.24212 
L 356.881857 47.982825 
L 357.206836 49.331501 
L 357.531816 47.910298 
L 357.856795 47.402524 
L 358.181775 47.670501 
L 358.506754 48.10359 
L 358.831734 47.938035 
L 359.156714 66.098423 
L 359.806673 62.021666 
L 360.131652 63.396281 
L 360.456632 70.661617 
L 360.781611 70.333276 
L 361.106591 71.300765 
L 361.43157 70.634111 
L 361.75655 67.138471 
L 362.081529 65.312726 
L 362.406509 65.27304 
L 363.056468 71.036273 
L 363.381447 70.385897 
L 363.706427 72.128795 
L 364.031406 70.373648 
L 365.656304 56.942089 
L 365.981284 56.668012 
L 366.306263 54.557129 
L 367.281202 50.965708 
L 367.606181 51.983276 
L 367.931161 50.560591 
L 368.25614 49.655266 
L 368.906099 48.931806 
L 369.231079 48.238849 
L 369.556058 47.840057 
L 369.881038 47.774924 
L 370.206017 46.84943 
L 370.530997 46.271447 
L 371.180956 44.238055 
L 371.505935 53.891964 
L 371.830915 54.964888 
L 372.155895 55.138567 
L 372.480874 54.661601 
L 373.130833 51.505936 
L 373.455813 51.356659 
L 374.105772 48.789246 
L 374.755731 47.035575 
L 375.08071 46.948996 
L 375.08071 46.948996 
" style="fill:none;stroke:#dd8452;stroke-linecap:round;stroke-width:1.5;"/>
   </g>
   <g id="patch_3">
    <path d="M 34.193438 288.430125 
L 34.193438 22.318125 
" style="fill:none;stroke:#ffffff;stroke-linecap:square;stroke-linejoin:miter;stroke-width:1.25;"/>
   </g>
   <g id="patch_4">
    <path d="M 391.313438 288.430125 
L 391.313438 22.318125 
" style="fill:none;stroke:#ffffff;stroke-linecap:square;stroke-linejoin:miter;stroke-width:1.25;"/>
   </g>
   <g id="patch_5">
    <path d="M 34.193438 288.430125 
L 391.313437 288.430125 
" style="fill:none;stroke:#ffffff;stroke-linecap:square;stroke-linejoin:miter;stroke-width:1.25;"/>
   </g>
   <g id="patch_6">
    <path d="M 34.193438 22.318125 
L 391.313437 22.318125 
" style="fill:none;stroke:#ffffff;stroke-linecap:square;stroke-linejoin:miter;stroke-width:1.25;"/>
   </g>
   <g id="text_14">
    <!-- learning curve on cuda of DQN for micro_grid -->
    <g style="fill:#262626;" transform="translate(76.624688 16.318125)scale(0.12 -0.12)">
     <defs>
      <path d="M 603 4863 
L 1178 4863 
L 1178 0 
L 603 0 
L 603 4863 
z
" id="DejaVuSans-6c" transform="scale(0.015625)"/>
      <path d="M 2194 1759 
Q 1497 1759 1228 1600 
Q 959 1441 959 1056 
Q 959 750 1161 570 
Q 1363 391 1709 391 
Q 2188 391 2477 730 
Q 2766 1069 2766 1631 
L 2766 1759 
L 2194 1759 
z
M 3341 1997 
L 3341 0 
L 2766 0 
L 2766 531 
Q 2569 213 2275 61 
Q 1981 -91 1556 -91 
Q 1019 -91 701 211 
Q 384 513 384 1019 
Q 384 1609 779 1909 
Q 1175 2209 1959 2209 
L 2766 2209 
L 2766 2266 
Q 2766 2663 2505 2880 
Q 2244 3097 1772 3097 
Q 1472 3097 1187 3025 
Q 903 2953 641 2809 
L 641 3341 
Q 956 3463 1253 3523 
Q 1550 3584 1831 3584 
Q 2591 3584 2966 3190 
Q 3341 2797 3341 1997 
z
" id="DejaVuSans-61" transform="scale(0.015625)"/>
      <path d="M 2631 2963 
Q 2534 3019 2420 3045 
Q 2306 3072 2169 3072 
Q 1681 3072 1420 2755 
Q 1159 2438 1159 1844 
L 1159 0 
L 581 0 
L 581 3500 
L 1159 3500 
L 1159 2956 
Q 1341 3275 1631 3429 
Q 1922 3584 2338 3584 
Q 2397 3584 2469 3576 
Q 2541 3569 2628 3553 
L 2631 2963 
z
" id="DejaVuSans-72" transform="scale(0.015625)"/>
      <path d="M 3513 2113 
L 3513 0 
L 2938 0 
L 2938 2094 
Q 2938 2591 2744 2837 
Q 2550 3084 2163 3084 
Q 1697 3084 1428 2787 
Q 1159 2491 1159 1978 
L 1159 0 
L 581 0 
L 581 3500 
L 1159 3500 
L 1159 2956 
Q 1366 3272 1645 3428 
Q 1925 3584 2291 3584 
Q 2894 3584 3203 3211 
Q 3513 2838 3513 2113 
z
" id="DejaVuSans-6e" transform="scale(0.015625)"/>
      <path d="M 2906 1791 
Q 2906 2416 2648 2759 
Q 2391 3103 1925 3103 
Q 1463 3103 1205 2759 
Q 947 2416 947 1791 
Q 947 1169 1205 825 
Q 1463 481 1925 481 
Q 2391 481 2648 825 
Q 2906 1169 2906 1791 
z
M 3481 434 
Q 3481 -459 3084 -895 
Q 2688 -1331 1869 -1331 
Q 1566 -1331 1297 -1286 
Q 1028 -1241 775 -1147 
L 775 -588 
Q 1028 -725 1275 -790 
Q 1522 -856 1778 -856 
Q 2344 -856 2625 -561 
Q 2906 -266 2906 331 
L 2906 616 
Q 2728 306 2450 153 
Q 2172 0 1784 0 
Q 1141 0 747 490 
Q 353 981 353 1791 
Q 353 2603 747 3093 
Q 1141 3584 1784 3584 
Q 2172 3584 2450 3431 
Q 2728 3278 2906 2969 
L 2906 3500 
L 3481 3500 
L 3481 434 
z
" id="DejaVuSans-67" transform="scale(0.015625)"/>
      <path id="DejaVuSans-20" transform="scale(0.015625)"/>
      <path d="M 3122 3366 
L 3122 2828 
Q 2878 2963 2633 3030 
Q 2388 3097 2138 3097 
Q 1578 3097 1268 2742 
Q 959 2388 959 1747 
Q 959 1106 1268 751 
Q 1578 397 2138 397 
Q 2388 397 2633 464 
Q 2878 531 3122 666 
L 3122 134 
Q 2881 22 2623 -34 
Q 2366 -91 2075 -91 
Q 1284 -91 818 406 
Q 353 903 353 1747 
Q 353 2603 823 3093 
Q 1294 3584 2113 3584 
Q 2378 3584 2631 3529 
Q 2884 3475 3122 3366 
z
" id="DejaVuSans-63" transform="scale(0.015625)"/>
      <path d="M 544 1381 
L 544 3500 
L 1119 3500 
L 1119 1403 
Q 1119 906 1312 657 
Q 1506 409 1894 409 
Q 2359 409 2629 706 
Q 2900 1003 2900 1516 
L 2900 3500 
L 3475 3500 
L 3475 0 
L 2900 0 
L 2900 538 
Q 2691 219 2414 64 
Q 2138 -91 1772 -91 
Q 1169 -91 856 284 
Q 544 659 544 1381 
z
M 1991 3584 
L 1991 3584 
z
" id="DejaVuSans-75" transform="scale(0.015625)"/>
      <path d="M 191 3500 
L 800 3500 
L 1894 563 
L 2988 3500 
L 3597 3500 
L 2284 0 
L 1503 0 
L 191 3500 
z
" id="DejaVuSans-76" transform="scale(0.015625)"/>
      <path d="M 2375 4863 
L 2375 4384 
L 1825 4384 
Q 1516 4384 1395 4259 
Q 1275 4134 1275 3809 
L 1275 3500 
L 2222 3500 
L 2222 3053 
L 1275 3053 
L 1275 0 
L 697 0 
L 697 3053 
L 147 3053 
L 147 3500 
L 697 3500 
L 697 3744 
Q 697 4328 969 4595 
Q 1241 4863 1831 4863 
L 2375 4863 
z
" id="DejaVuSans-66" transform="scale(0.015625)"/>
      <path d="M 1259 4147 
L 1259 519 
L 2022 519 
Q 2988 519 3436 956 
Q 3884 1394 3884 2338 
Q 3884 3275 3436 3711 
Q 2988 4147 2022 4147 
L 1259 4147 
z
M 628 4666 
L 1925 4666 
Q 3281 4666 3915 4102 
Q 4550 3538 4550 2338 
Q 4550 1131 3912 565 
Q 3275 0 1925 0 
L 628 0 
L 628 4666 
z
" id="DejaVuSans-44" transform="scale(0.015625)"/>
      <path d="M 2522 4238 
Q 1834 4238 1429 3725 
Q 1025 3213 1025 2328 
Q 1025 1447 1429 934 
Q 1834 422 2522 422 
Q 3209 422 3611 934 
Q 4013 1447 4013 2328 
Q 4013 3213 3611 3725 
Q 3209 4238 2522 4238 
z
M 3406 84 
L 4238 -825 
L 3475 -825 
L 2784 -78 
Q 2681 -84 2626 -87 
Q 2572 -91 2522 -91 
Q 1538 -91 948 567 
Q 359 1225 359 2328 
Q 359 3434 948 4092 
Q 1538 4750 2522 4750 
Q 3503 4750 4090 4092 
Q 4678 3434 4678 2328 
Q 4678 1516 4351 937 
Q 4025 359 3406 84 
z
" id="DejaVuSans-51" transform="scale(0.015625)"/>
      <path d="M 628 4666 
L 1478 4666 
L 3547 763 
L 3547 4666 
L 4159 4666 
L 4159 0 
L 3309 0 
L 1241 3903 
L 1241 0 
L 628 0 
L 628 4666 
z
" id="DejaVuSans-4e" transform="scale(0.015625)"/>
      <path d="M 3328 2828 
Q 3544 3216 3844 3400 
Q 4144 3584 4550 3584 
Q 5097 3584 5394 3201 
Q 5691 2819 5691 2113 
L 5691 0 
L 5113 0 
L 5113 2094 
Q 5113 2597 4934 2840 
Q 4756 3084 4391 3084 
Q 3944 3084 3684 2787 
Q 3425 2491 3425 1978 
L 3425 0 
L 2847 0 
L 2847 2094 
Q 2847 2600 2669 2842 
Q 2491 3084 2119 3084 
Q 1678 3084 1418 2786 
Q 1159 2488 1159 1978 
L 1159 0 
L 581 0 
L 581 3500 
L 1159 3500 
L 1159 2956 
Q 1356 3278 1631 3431 
Q 1906 3584 2284 3584 
Q 2666 3584 2933 3390 
Q 3200 3197 3328 2828 
z
" id="DejaVuSans-6d" transform="scale(0.015625)"/>
      <path d="M 3263 -1063 
L 3263 -1509 
L -63 -1509 
L -63 -1063 
L 3263 -1063 
z
" id="DejaVuSans-5f" transform="scale(0.015625)"/>
     </defs>
     <use xlink:href="#DejaVuSans-6c"/>
     <use x="27.783203" xlink:href="#DejaVuSans-65"/>
     <use x="89.306641" xlink:href="#DejaVuSans-61"/>
     <use x="150.585938" xlink:href="#DejaVuSans-72"/>
     <use x="189.949219" xlink:href="#DejaVuSans-6e"/>
     <use x="253.328125" xlink:href="#DejaVuSans-69"/>
     <use x="281.111328" xlink:href="#DejaVuSans-6e"/>
     <use x="344.490234" xlink:href="#DejaVuSans-67"/>
     <use x="407.966797" xlink:href="#DejaVuSans-20"/>
     <use x="439.753906" xlink:href="#DejaVuSans-63"/>
     <use x="494.734375" xlink:href="#DejaVuSans-75"/>
     <use x="558.113281" xlink:href="#DejaVuSans-72"/>
     <use x="599.226562" xlink:href="#DejaVuSans-76"/>
     <use x="658.40625" xlink:href="#DejaVuSans-65"/>
     <use x="719.929688" xlink:href="#DejaVuSans-20"/>
     <use x="751.716797" xlink:href="#DejaVuSans-6f"/>
     <use x="812.898438" xlink:href="#DejaVuSans-6e"/>
     <use x="876.277344" xlink:href="#DejaVuSans-20"/>
     <use x="908.064453" xlink:href="#DejaVuSans-63"/>
     <use x="963.044922" xlink:href="#DejaVuSans-75"/>
     <use x="1026.423828" xlink:href="#DejaVuSans-64"/>
     <use x="1089.900391" xlink:href="#DejaVuSans-61"/>
     <use x="1151.179688" xlink:href="#DejaVuSans-20"/>
     <use x="1182.966797" xlink:href="#DejaVuSans-6f"/>
     <use x="1244.148438" xlink:href="#DejaVuSans-66"/>
     <use x="1279.353516" xlink:href="#DejaVuSans-20"/>
     <use x="1311.140625" xlink:href="#DejaVuSans-44"/>
     <use x="1388.142578" xlink:href="#DejaVuSans-51"/>
     <use x="1466.853516" xlink:href="#DejaVuSans-4e"/>
     <use x="1541.658203" xlink:href="#DejaVuSans-20"/>
     <use x="1573.445312" xlink:href="#DejaVuSans-66"/>
     <use x="1608.650391" xlink:href="#DejaVuSans-6f"/>
     <use x="1669.832031" xlink:href="#DejaVuSans-72"/>
     <use x="1710.945312" xlink:href="#DejaVuSans-20"/>
     <use x="1742.732422" xlink:href="#DejaVuSans-6d"/>
     <use x="1840.144531" xlink:href="#DejaVuSans-69"/>
     <use x="1867.927734" xlink:href="#DejaVuSans-63"/>
     <use x="1922.908203" xlink:href="#DejaVuSans-72"/>
     <use x="1961.771484" xlink:href="#DejaVuSans-6f"/>
     <use x="2022.953125" xlink:href="#DejaVuSans-5f"/>
     <use x="2072.953125" xlink:href="#DejaVuSans-67"/>
     <use x="2136.429688" xlink:href="#DejaVuSans-72"/>
     <use x="2177.542969" xlink:href="#DejaVuSans-69"/>
     <use x="2205.326172" xlink:href="#DejaVuSans-64"/>
    </g>
   </g>
   <g id="legend_1">
    <g id="patch_7">
     <path d="M 280.641406 282.930125 
L 383.613437 282.930125 
Q 385.813437 282.930125 385.813437 280.730125 
L 385.813437 249.53825 
Q 385.813437 247.33825 383.613437 247.33825 
L 280.641406 247.33825 
Q 278.441406 247.33825 278.441406 249.53825 
L 278.441406 280.730125 
Q 278.441406 282.930125 280.641406 282.930125 
z
" style="fill:#eaeaf2;opacity:0.8;stroke:#cccccc;stroke-linejoin:miter;"/>
    </g>
    <g id="line2d_15">
     <path d="M 282.841406 256.246531 
L 304.841406 256.246531 
" style="fill:none;stroke:#4c72b0;stroke-linecap:round;stroke-width:1.5;"/>
    </g>
    <g id="line2d_16"/>
    <g id="text_15">
     <!-- rewards -->
     <g style="fill:#262626;" transform="translate(313.641406 260.096531)scale(0.11 -0.11)">
      <defs>
       <path d="M 269 3500 
L 844 3500 
L 1563 769 
L 2278 3500 
L 2956 3500 
L 3675 769 
L 4391 3500 
L 4966 3500 
L 4050 0 
L 3372 0 
L 2619 2869 
L 1863 0 
L 1184 0 
L 269 3500 
z
" id="DejaVuSans-77" transform="scale(0.015625)"/>
      </defs>
      <use xlink:href="#DejaVuSans-72"/>
      <use x="38.863281" xlink:href="#DejaVuSans-65"/>
      <use x="100.386719" xlink:href="#DejaVuSans-77"/>
      <use x="182.173828" xlink:href="#DejaVuSans-61"/>
      <use x="243.453125" xlink:href="#DejaVuSans-72"/>
      <use x="282.816406" xlink:href="#DejaVuSans-64"/>
      <use x="346.292969" xlink:href="#DejaVuSans-73"/>
     </g>
    </g>
    <g id="line2d_17">
     <path d="M 282.841406 272.392469 
L 304.841406 272.392469 
" style="fill:none;stroke:#dd8452;stroke-linecap:round;stroke-width:1.5;"/>
    </g>
    <g id="line2d_18"/>
    <g id="text_16">
     <!-- soft rewards -->
     <g style="fill:#262626;" transform="translate(313.641406 276.242469)scale(0.11 -0.11)">
      <defs>
       <path d="M 1172 4494 
L 1172 3500 
L 2356 3500 
L 2356 3053 
L 1172 3053 
L 1172 1153 
Q 1172 725 1289 603 
Q 1406 481 1766 481 
L 2356 481 
L 2356 0 
L 1766 0 
Q 1100 0 847 248 
Q 594 497 594 1153 
L 594 3053 
L 172 3053 
L 172 3500 
L 594 3500 
L 594 4494 
L 1172 4494 
z
" id="DejaVuSans-74" transform="scale(0.015625)"/>
      </defs>
      <use xlink:href="#DejaVuSans-73"/>
      <use x="52.099609" xlink:href="#DejaVuSans-6f"/>
      <use x="113.28125" xlink:href="#DejaVuSans-66"/>
      <use x="146.736328" xlink:href="#DejaVuSans-74"/>
      <use x="185.945312" xlink:href="#DejaVuSans-20"/>
      <use x="217.732422" xlink:href="#DejaVuSans-72"/>
      <use x="256.595703" xlink:href="#DejaVuSans-65"/>
      <use x="318.119141" xlink:href="#DejaVuSans-77"/>
      <use x="399.90625" xlink:href="#DejaVuSans-61"/>
      <use x="461.185547" xlink:href="#DejaVuSans-72"/>
      <use x="500.548828" xlink:href="#DejaVuSans-64"/>
      <use x="564.025391" xlink:href="#DejaVuSans-73"/>
     </g>
    </g>
   </g>
  </g>
 </g>
 <defs>
  <clipPath id="paf35691ac5">
   <rect height="266.112" width="357.12" x="34.193438" y="22.318125"/>
  </clipPath>
 </defs>
</svg>
