<?xml version="1.0" encoding="utf-8" standalone="no"?>
<!DOCTYPE svg PUBLIC "-//W3C//DTD SVG 1.1//EN"
  "http://www.w3.org/Graphics/SVG/1.1/DTD/svg11.dtd">
<svg height="331.389812pt" version="1.1" viewBox="0 0 421.976457 331.389812" width="421.976457pt" xmlns="http://www.w3.org/2000/svg" xmlns:xlink="http://www.w3.org/1999/xlink">
 <metadata>
  <rdf:RDF xmlns:cc="http://creativecommons.org/ns#" xmlns:dc="http://purl.org/dc/elements/1.1/" xmlns:rdf="http://www.w3.org/1999/02/22-rdf-syntax-ns#">
   <cc:Work>
    <dc:type rdf:resource="http://purl.org/dc/dcmitype/StillImage"/>
    <dc:date>2024-05-20T14:32:18.500221</dc:date>
    <dc:format>image/svg+xml</dc:format>
    <dc:creator>
     <cc:Agent>
      <dc:title>Matplotlib v3.4.3, https://matplotlib.org/</dc:title>
     </cc:Agent>
    </dc:creator>
   </cc:Work>
  </rdf:RDF>
 </metadata>
 <defs>
  <style type="text/css">*{stroke-linecap:butt;stroke-linejoin:round;}</style>
 </defs>
 <g id="figure_1">
  <g id="patch_1">
   <path d="M 0 331.389812 
L 421.976457 331.389812 
L 421.976457 0 
L 0 0 
z
" style="fill:#ffffff;"/>
  </g>
  <g id="axes_1">
   <g id="patch_2">
    <path d="M 49.807187 288.430125 
L 406.927188 288.430125 
L 406.927188 22.318125 
L 49.807187 22.318125 
z
" style="fill:#eaeaf2;"/>
   </g>
   <g id="matplotlib.axis_1">
    <g id="xtick_1">
     <g id="line2d_1">
      <path clip-path="url(#p09b2e01af2)" d="M 66.039915 288.430125 
L 66.039915 22.318125 
" style="fill:none;stroke:#ffffff;stroke-linecap:round;"/>
     </g>
     <g id="text_1">
      <!-- 0 -->
      <g style="fill:#262626;" transform="translate(62.54054 306.288406)scale(0.11 -0.11)">
       <defs>
        <path d="M 2034 4250 
Q 1547 4250 1301 3770 
Q 1056 3291 1056 2328 
Q 1056 1369 1301 889 
Q 1547 409 2034 409 
Q 2525 409 2770 889 
Q 3016 1369 3016 2328 
Q 3016 3291 2770 3770 
Q 2525 4250 2034 4250 
z
M 2034 4750 
Q 2819 4750 3233 4129 
Q 3647 3509 3647 2328 
Q 3647 1150 3233 529 
Q 2819 -91 2034 -91 
Q 1250 -91 836 529 
Q 422 1150 422 2328 
Q 422 3509 836 4129 
Q 1250 4750 2034 4750 
z
" id="DejaVuSans-30" transform="scale(0.015625)"/>
       </defs>
       <use xlink:href="#DejaVuSans-30"/>
      </g>
     </g>
    </g>
    <g id="xtick_2">
     <g id="line2d_2">
      <path clip-path="url(#p09b2e01af2)" d="M 131.03582 288.430125 
L 131.03582 22.318125 
" style="fill:none;stroke:#ffffff;stroke-linecap:round;"/>
     </g>
     <g id="text_2">
      <!-- 200 -->
      <g style="fill:#262626;" transform="translate(120.537695 306.288406)scale(0.11 -0.11)">
       <defs>
        <path d="M 1228 531 
L 3431 531 
L 3431 0 
L 469 0 
L 469 531 
Q 828 903 1448 1529 
Q 2069 2156 2228 2338 
Q 2531 2678 2651 2914 
Q 2772 3150 2772 3378 
Q 2772 3750 2511 3984 
Q 2250 4219 1831 4219 
Q 1534 4219 1204 4116 
Q 875 4013 500 3803 
L 500 4441 
Q 881 4594 1212 4672 
Q 1544 4750 1819 4750 
Q 2544 4750 2975 4387 
Q 3406 4025 3406 3419 
Q 3406 3131 3298 2873 
Q 3191 2616 2906 2266 
Q 2828 2175 2409 1742 
Q 1991 1309 1228 531 
z
" id="DejaVuSans-32" transform="scale(0.015625)"/>
       </defs>
       <use xlink:href="#DejaVuSans-32"/>
       <use x="63.623047" xlink:href="#DejaVuSans-30"/>
       <use x="127.246094" xlink:href="#DejaVuSans-30"/>
      </g>
     </g>
    </g>
    <g id="xtick_3">
     <g id="line2d_3">
      <path clip-path="url(#p09b2e01af2)" d="M 196.031725 288.430125 
L 196.031725 22.318125 
" style="fill:none;stroke:#ffffff;stroke-linecap:round;"/>
     </g>
     <g id="text_3">
      <!-- 400 -->
      <g style="fill:#262626;" transform="translate(185.5336 306.288406)scale(0.11 -0.11)">
       <defs>
        <path d="M 2419 4116 
L 825 1625 
L 2419 1625 
L 2419 4116 
z
M 2253 4666 
L 3047 4666 
L 3047 1625 
L 3713 1625 
L 3713 1100 
L 3047 1100 
L 3047 0 
L 2419 0 
L 2419 1100 
L 313 1100 
L 313 1709 
L 2253 4666 
z
" id="DejaVuSans-34" transform="scale(0.015625)"/>
       </defs>
       <use xlink:href="#DejaVuSans-34"/>
       <use x="63.623047" xlink:href="#DejaVuSans-30"/>
       <use x="127.246094" xlink:href="#DejaVuSans-30"/>
      </g>
     </g>
    </g>
    <g id="xtick_4">
     <g id="line2d_4">
      <path clip-path="url(#p09b2e01af2)" d="M 261.02763 288.430125 
L 261.02763 22.318125 
" style="fill:none;stroke:#ffffff;stroke-linecap:round;"/>
     </g>
     <g id="text_4">
      <!-- 600 -->
      <g style="fill:#262626;" transform="translate(250.529505 306.288406)scale(0.11 -0.11)">
       <defs>
        <path d="M 2113 2584 
Q 1688 2584 1439 2293 
Q 1191 2003 1191 1497 
Q 1191 994 1439 701 
Q 1688 409 2113 409 
Q 2538 409 2786 701 
Q 3034 994 3034 1497 
Q 3034 2003 2786 2293 
Q 2538 2584 2113 2584 
z
M 3366 4563 
L 3366 3988 
Q 3128 4100 2886 4159 
Q 2644 4219 2406 4219 
Q 1781 4219 1451 3797 
Q 1122 3375 1075 2522 
Q 1259 2794 1537 2939 
Q 1816 3084 2150 3084 
Q 2853 3084 3261 2657 
Q 3669 2231 3669 1497 
Q 3669 778 3244 343 
Q 2819 -91 2113 -91 
Q 1303 -91 875 529 
Q 447 1150 447 2328 
Q 447 3434 972 4092 
Q 1497 4750 2381 4750 
Q 2619 4750 2861 4703 
Q 3103 4656 3366 4563 
z
" id="DejaVuSans-36" transform="scale(0.015625)"/>
       </defs>
       <use xlink:href="#DejaVuSans-36"/>
       <use x="63.623047" xlink:href="#DejaVuSans-30"/>
       <use x="127.246094" xlink:href="#DejaVuSans-30"/>
      </g>
     </g>
    </g>
    <g id="xtick_5">
     <g id="line2d_5">
      <path clip-path="url(#p09b2e01af2)" d="M 326.023535 288.430125 
L 326.023535 22.318125 
" style="fill:none;stroke:#ffffff;stroke-linecap:round;"/>
     </g>
     <g id="text_5">
      <!-- 800 -->
      <g style="fill:#262626;" transform="translate(315.52541 306.288406)scale(0.11 -0.11)">
       <defs>
        <path d="M 2034 2216 
Q 1584 2216 1326 1975 
Q 1069 1734 1069 1313 
Q 1069 891 1326 650 
Q 1584 409 2034 409 
Q 2484 409 2743 651 
Q 3003 894 3003 1313 
Q 3003 1734 2745 1975 
Q 2488 2216 2034 2216 
z
M 1403 2484 
Q 997 2584 770 2862 
Q 544 3141 544 3541 
Q 544 4100 942 4425 
Q 1341 4750 2034 4750 
Q 2731 4750 3128 4425 
Q 3525 4100 3525 3541 
Q 3525 3141 3298 2862 
Q 3072 2584 2669 2484 
Q 3125 2378 3379 2068 
Q 3634 1759 3634 1313 
Q 3634 634 3220 271 
Q 2806 -91 2034 -91 
Q 1263 -91 848 271 
Q 434 634 434 1313 
Q 434 1759 690 2068 
Q 947 2378 1403 2484 
z
M 1172 3481 
Q 1172 3119 1398 2916 
Q 1625 2713 2034 2713 
Q 2441 2713 2670 2916 
Q 2900 3119 2900 3481 
Q 2900 3844 2670 4047 
Q 2441 4250 2034 4250 
Q 1625 4250 1398 4047 
Q 1172 3844 1172 3481 
z
" id="DejaVuSans-38" transform="scale(0.015625)"/>
       </defs>
       <use xlink:href="#DejaVuSans-38"/>
       <use x="63.623047" xlink:href="#DejaVuSans-30"/>
       <use x="127.246094" xlink:href="#DejaVuSans-30"/>
      </g>
     </g>
    </g>
    <g id="xtick_6">
     <g id="line2d_6">
      <path clip-path="url(#p09b2e01af2)" d="M 391.01944 288.430125 
L 391.01944 22.318125 
" style="fill:none;stroke:#ffffff;stroke-linecap:round;"/>
     </g>
     <g id="text_6">
      <!-- 1000 -->
      <g style="fill:#262626;" transform="translate(377.02194 306.288406)scale(0.11 -0.11)">
       <defs>
        <path d="M 794 531 
L 1825 531 
L 1825 4091 
L 703 3866 
L 703 4441 
L 1819 4666 
L 2450 4666 
L 2450 531 
L 3481 531 
L 3481 0 
L 794 0 
L 794 531 
z
" id="DejaVuSans-31" transform="scale(0.015625)"/>
       </defs>
       <use xlink:href="#DejaVuSans-31"/>
       <use x="63.623047" xlink:href="#DejaVuSans-30"/>
       <use x="127.246094" xlink:href="#DejaVuSans-30"/>
       <use x="190.869141" xlink:href="#DejaVuSans-30"/>
      </g>
     </g>
    </g>
    <g id="text_7">
     <!-- epsiodes -->
     <g style="fill:#262626;" transform="translate(201.775937 321.694187)scale(0.12 -0.12)">
      <defs>
       <path d="M 3597 1894 
L 3597 1613 
L 953 1613 
Q 991 1019 1311 708 
Q 1631 397 2203 397 
Q 2534 397 2845 478 
Q 3156 559 3463 722 
L 3463 178 
Q 3153 47 2828 -22 
Q 2503 -91 2169 -91 
Q 1331 -91 842 396 
Q 353 884 353 1716 
Q 353 2575 817 3079 
Q 1281 3584 2069 3584 
Q 2775 3584 3186 3129 
Q 3597 2675 3597 1894 
z
M 3022 2063 
Q 3016 2534 2758 2815 
Q 2500 3097 2075 3097 
Q 1594 3097 1305 2825 
Q 1016 2553 972 2059 
L 3022 2063 
z
" id="DejaVuSans-65" transform="scale(0.015625)"/>
       <path d="M 1159 525 
L 1159 -1331 
L 581 -1331 
L 581 3500 
L 1159 3500 
L 1159 2969 
Q 1341 3281 1617 3432 
Q 1894 3584 2278 3584 
Q 2916 3584 3314 3078 
Q 3713 2572 3713 1747 
Q 3713 922 3314 415 
Q 2916 -91 2278 -91 
Q 1894 -91 1617 61 
Q 1341 213 1159 525 
z
M 3116 1747 
Q 3116 2381 2855 2742 
Q 2594 3103 2138 3103 
Q 1681 3103 1420 2742 
Q 1159 2381 1159 1747 
Q 1159 1113 1420 752 
Q 1681 391 2138 391 
Q 2594 391 2855 752 
Q 3116 1113 3116 1747 
z
" id="DejaVuSans-70" transform="scale(0.015625)"/>
       <path d="M 2834 3397 
L 2834 2853 
Q 2591 2978 2328 3040 
Q 2066 3103 1784 3103 
Q 1356 3103 1142 2972 
Q 928 2841 928 2578 
Q 928 2378 1081 2264 
Q 1234 2150 1697 2047 
L 1894 2003 
Q 2506 1872 2764 1633 
Q 3022 1394 3022 966 
Q 3022 478 2636 193 
Q 2250 -91 1575 -91 
Q 1294 -91 989 -36 
Q 684 19 347 128 
L 347 722 
Q 666 556 975 473 
Q 1284 391 1588 391 
Q 1994 391 2212 530 
Q 2431 669 2431 922 
Q 2431 1156 2273 1281 
Q 2116 1406 1581 1522 
L 1381 1569 
Q 847 1681 609 1914 
Q 372 2147 372 2553 
Q 372 3047 722 3315 
Q 1072 3584 1716 3584 
Q 2034 3584 2315 3537 
Q 2597 3491 2834 3397 
z
" id="DejaVuSans-73" transform="scale(0.015625)"/>
       <path d="M 603 3500 
L 1178 3500 
L 1178 0 
L 603 0 
L 603 3500 
z
M 603 4863 
L 1178 4863 
L 1178 4134 
L 603 4134 
L 603 4863 
z
" id="DejaVuSans-69" transform="scale(0.015625)"/>
       <path d="M 1959 3097 
Q 1497 3097 1228 2736 
Q 959 2375 959 1747 
Q 959 1119 1226 758 
Q 1494 397 1959 397 
Q 2419 397 2687 759 
Q 2956 1122 2956 1747 
Q 2956 2369 2687 2733 
Q 2419 3097 1959 3097 
z
M 1959 3584 
Q 2709 3584 3137 3096 
Q 3566 2609 3566 1747 
Q 3566 888 3137 398 
Q 2709 -91 1959 -91 
Q 1206 -91 779 398 
Q 353 888 353 1747 
Q 353 2609 779 3096 
Q 1206 3584 1959 3584 
z
" id="DejaVuSans-6f" transform="scale(0.015625)"/>
       <path d="M 2906 2969 
L 2906 4863 
L 3481 4863 
L 3481 0 
L 2906 0 
L 2906 525 
Q 2725 213 2448 61 
Q 2172 -91 1784 -91 
Q 1150 -91 751 415 
Q 353 922 353 1747 
Q 353 2572 751 3078 
Q 1150 3584 1784 3584 
Q 2172 3584 2448 3432 
Q 2725 3281 2906 2969 
z
M 947 1747 
Q 947 1113 1208 752 
Q 1469 391 1925 391 
Q 2381 391 2643 752 
Q 2906 1113 2906 1747 
Q 2906 2381 2643 2742 
Q 2381 3103 1925 3103 
Q 1469 3103 1208 2742 
Q 947 2381 947 1747 
z
" id="DejaVuSans-64" transform="scale(0.015625)"/>
      </defs>
      <use xlink:href="#DejaVuSans-65"/>
      <use x="61.523438" xlink:href="#DejaVuSans-70"/>
      <use x="125" xlink:href="#DejaVuSans-73"/>
      <use x="177.099609" xlink:href="#DejaVuSans-69"/>
      <use x="204.882812" xlink:href="#DejaVuSans-6f"/>
      <use x="266.064453" xlink:href="#DejaVuSans-64"/>
      <use x="329.541016" xlink:href="#DejaVuSans-65"/>
      <use x="391.064453" xlink:href="#DejaVuSans-73"/>
     </g>
    </g>
   </g>
   <g id="matplotlib.axis_2">
    <g id="ytick_1">
     <g id="line2d_7">
      <path clip-path="url(#p09b2e01af2)" d="M 49.807187 273.46972 
L 406.927188 273.46972 
" style="fill:none;stroke:#ffffff;stroke-linecap:round;"/>
     </g>
     <g id="text_8">
      <!-- 0.8 -->
      <g style="fill:#262626;" transform="translate(22.81375 277.648861)scale(0.11 -0.11)">
       <defs>
        <path d="M 684 794 
L 1344 794 
L 1344 0 
L 684 0 
L 684 794 
z
" id="DejaVuSans-2e" transform="scale(0.015625)"/>
       </defs>
       <use xlink:href="#DejaVuSans-30"/>
       <use x="63.623047" xlink:href="#DejaVuSans-2e"/>
       <use x="95.410156" xlink:href="#DejaVuSans-38"/>
      </g>
     </g>
    </g>
    <g id="ytick_2">
     <g id="line2d_8">
      <path clip-path="url(#p09b2e01af2)" d="M 49.807187 219.763385 
L 406.927188 219.763385 
" style="fill:none;stroke:#ffffff;stroke-linecap:round;"/>
     </g>
     <g id="text_9">
      <!-- 1.0 -->
      <g style="fill:#262626;" transform="translate(22.81375 223.942525)scale(0.11 -0.11)">
       <use xlink:href="#DejaVuSans-31"/>
       <use x="63.623047" xlink:href="#DejaVuSans-2e"/>
       <use x="95.410156" xlink:href="#DejaVuSans-30"/>
      </g>
     </g>
    </g>
    <g id="ytick_3">
     <g id="line2d_9">
      <path clip-path="url(#p09b2e01af2)" d="M 49.807187 166.057049 
L 406.927188 166.057049 
" style="fill:none;stroke:#ffffff;stroke-linecap:round;"/>
     </g>
     <g id="text_10">
      <!-- 1.2 -->
      <g style="fill:#262626;" transform="translate(22.81375 170.23619)scale(0.11 -0.11)">
       <use xlink:href="#DejaVuSans-31"/>
       <use x="63.623047" xlink:href="#DejaVuSans-2e"/>
       <use x="95.410156" xlink:href="#DejaVuSans-32"/>
      </g>
     </g>
    </g>
    <g id="ytick_4">
     <g id="line2d_10">
      <path clip-path="url(#p09b2e01af2)" d="M 49.807187 112.350713 
L 406.927188 112.350713 
" style="fill:none;stroke:#ffffff;stroke-linecap:round;"/>
     </g>
     <g id="text_11">
      <!-- 1.4 -->
      <g style="fill:#262626;" transform="translate(22.81375 116.529854)scale(0.11 -0.11)">
       <use xlink:href="#DejaVuSans-31"/>
       <use x="63.623047" xlink:href="#DejaVuSans-2e"/>
       <use x="95.410156" xlink:href="#DejaVuSans-34"/>
      </g>
     </g>
    </g>
    <g id="ytick_5">
     <g id="line2d_11">
      <path clip-path="url(#p09b2e01af2)" d="M 49.807187 58.644378 
L 406.927188 58.644378 
" style="fill:none;stroke:#ffffff;stroke-linecap:round;"/>
     </g>
     <g id="text_12">
      <!-- 1.6 -->
      <g style="fill:#262626;" transform="translate(22.81375 62.823518)scale(0.11 -0.11)">
       <use xlink:href="#DejaVuSans-31"/>
       <use x="63.623047" xlink:href="#DejaVuSans-2e"/>
       <use x="95.410156" xlink:href="#DejaVuSans-36"/>
      </g>
     </g>
    </g>
   </g>
   <g id="line2d_12">
    <path clip-path="url(#p09b2e01af2)" d="M 66.039915 222.340672 
L 66.364894 161.59358 
L 66.689874 184.639705 
L 67.014853 184.545851 
L 67.339833 256.130924 
L 67.664812 228.431343 
L 67.989792 249.032875 
L 68.314771 174.269587 
L 68.639751 214.731932 
L 68.96473 198.116178 
L 69.28971 171.959165 
L 69.61469 209.143268 
L 69.939669 190.058829 
L 70.264649 276.334125 
L 71.239587 140.735675 
L 71.564567 180.1975 
L 71.889546 188.887948 
L 72.214526 148.105357 
L 72.539505 133.431647 
L 72.864485 173.746205 
L 73.189464 120.521912 
L 73.514444 175.042816 
L 73.839423 182.124212 
L 74.164403 224.557543 
L 74.489382 120.991237 
L 74.814362 174.769966 
L 75.139341 139.953511 
L 75.464321 135.483806 
L 75.789301 114.416308 
L 76.11428 165.334541 
L 76.43926 158.445902 
L 76.764239 164.879484 
L 77.089219 151.269371 
L 77.414198 123.067152 
L 77.739178 152.386728 
L 78.064157 162.728293 
L 78.389137 91.701246 
L 78.714116 129.900756 
L 79.039096 101.974307 
L 79.364075 97.113108 
L 79.689055 180.682811 
L 80.014034 132.183301 
L 80.339014 157.781566 
L 80.663993 128.46111 
L 80.988973 128.225671 
L 81.313952 153.741039 
L 81.638932 159.586737 
L 82.288891 147.344389 
L 82.613871 155.130747 
L 82.93885 202.93216 
L 83.26383 116.338974 
L 83.588809 140.918651 
L 83.913789 138.025649 
L 84.238768 131.4389 
L 84.563748 147.128944 
L 84.888727 97.75263 
L 85.538686 143.938372 
L 85.863666 148.140842 
L 86.188645 93.101561 
L 86.513625 118.613978 
L 86.838604 115.812895 
L 87.163584 86.719003 
L 87.488563 114.971489 
L 87.813543 132.308811 
L 88.138522 133.190176 
L 88.463502 118.327695 
L 88.788482 123.932949 
L 89.113461 105.109737 
L 89.438441 112.974701 
L 89.76342 91.2574 
L 90.413379 111.193829 
L 90.738359 88.447741 
L 91.063338 92.275157 
L 91.388318 117.575654 
L 91.713297 129.951115 
L 92.038277 127.293767 
L 92.688236 187.151627 
L 93.013215 107.677654 
L 93.338195 74.217397 
L 93.663174 89.150103 
L 93.988154 87.50062 
L 94.313133 96.381215 
L 94.638113 89.600049 
L 94.963092 94.152165 
L 95.288072 123.711448 
L 95.613052 102.743794 
L 95.938031 89.994817 
L 96.263011 106.257288 
L 96.58799 106.707156 
L 96.91297 102.780961 
L 97.237949 110.995279 
L 97.562929 91.320152 
L 97.887908 198.195957 
L 98.212888 95.955001 
L 98.537867 105.780256 
L 98.862847 100.282488 
L 99.187826 147.404018 
L 99.512806 109.448359 
L 99.837785 106.495105 
L 100.162765 110.236787 
L 100.487744 108.003101 
L 100.812724 113.01385 
L 101.137703 145.820688 
L 101.462683 126.796445 
L 101.787663 139.895852 
L 102.112642 148.024467 
L 102.437622 123.420933 
L 103.41256 85.184366 
L 103.73754 119.094301 
L 104.062519 105.604858 
L 104.387499 70.949038 
L 105.037458 127.933862 
L 105.362437 154.333969 
L 105.687417 104.548153 
L 106.337376 84.697215 
L 106.662355 123.479818 
L 106.987335 79.648355 
L 107.312314 84.801416 
L 107.637294 81.371836 
L 107.962273 80.647555 
L 108.287253 94.248531 
L 108.612233 128.855943 
L 108.937212 112.383748 
L 109.262192 77.073965 
L 109.587171 106.458485 
L 109.912151 100.416895 
L 110.23713 88.744816 
L 110.56211 67.654609 
L 110.887089 75.718763 
L 111.212069 71.86592 
L 111.537048 126.030944 
L 112.187007 87.536402 
L 112.511987 79.762152 
L 112.836966 83.60785 
L 113.161946 85.512171 
L 113.486925 72.262784 
L 113.811905 93.041063 
L 114.136884 87.593875 
L 114.461864 103.237867 
L 114.786844 110.249696 
L 115.111823 100.632617 
L 115.436803 113.822241 
L 115.761782 88.540388 
L 116.086762 94.917354 
L 116.411741 90.602575 
L 116.736721 104.294128 
L 117.0617 83.445633 
L 117.38668 89.936693 
L 117.711659 113.83195 
L 118.036639 88.215178 
L 118.361618 105.626471 
L 118.686598 104.438057 
L 119.011577 87.168677 
L 119.336557 111.99799 
L 119.986516 106.677524 
L 120.311495 81.792559 
L 120.961454 124.639372 
L 121.286434 122.195784 
L 121.936393 78.873188 
L 122.261373 122.429798 
L 122.586352 94.287664 
L 123.236311 94.364471 
L 123.561291 107.784395 
L 123.88627 142.06751 
L 124.21125 101.423788 
L 124.536229 127.68445 
L 124.861209 86.431249 
L 125.186188 65.563473 
L 125.511168 119.182279 
L 125.836147 59.022765 
L 126.161127 62.976488 
L 126.486106 97.543185 
L 127.136065 89.976326 
L 127.786025 63.577767 
L 128.111004 70.295978 
L 128.435984 55.548459 
L 128.760963 71.834434 
L 129.085943 81.605531 
L 129.410922 75.933219 
L 129.735902 65.779703 
L 130.060881 97.394665 
L 130.385861 75.18473 
L 130.71084 74.476209 
L 131.03582 107.598709 
L 131.360799 95.168258 
L 131.685779 95.366085 
L 132.010758 68.805342 
L 132.335738 75.297146 
L 132.660717 89.618942 
L 132.985697 68.444516 
L 133.635656 51.107749 
L 133.960635 120.899866 
L 134.285615 109.202988 
L 134.610595 123.420953 
L 134.935574 102.52213 
L 135.260554 68.901689 
L 135.585533 58.072769 
L 135.910513 57.21767 
L 136.235492 118.281953 
L 136.560472 53.851018 
L 136.885451 69.649471 
L 137.210431 72.141068 
L 137.53541 86.551756 
L 137.86039 87.176707 
L 138.185369 90.448045 
L 138.510349 71.205586 
L 138.835328 158.77788 
L 139.160308 93.720746 
L 139.485287 87.491551 
L 139.810267 87.789222 
L 140.135246 87.266356 
L 140.460226 60.707401 
L 140.785206 53.994973 
L 141.110185 119.397091 
L 141.435165 72.139601 
L 141.760144 74.357618 
L 142.085124 52.84248 
L 142.410103 56.935596 
L 142.735083 123.966736 
L 143.060062 56.665904 
L 143.710021 68.320814 
L 144.035001 81.025681 
L 144.35998 62.92552 
L 144.68496 82.262428 
L 145.009939 56.715746 
L 145.334919 57.325166 
L 145.659898 57.277458 
L 145.984878 53.192376 
L 146.309857 54.002131 
L 146.634837 48.459104 
L 146.959816 72.119339 
L 147.609776 79.063319 
L 147.934755 86.249403 
L 148.259735 85.75868 
L 148.584714 49.870445 
L 148.909694 46.555664 
L 149.559653 89.538399 
L 149.884632 87.978776 
L 150.209612 72.556395 
L 150.534591 66.452868 
L 150.859571 101.793189 
L 151.18455 55.07924 
L 151.50953 44.507135 
L 151.834509 50.70723 
L 152.159489 53.343721 
L 152.484468 51.857874 
L 152.809448 40.362975 
L 153.134427 94.508917 
L 153.459407 84.517061 
L 153.784387 62.484673 
L 154.109366 70.933729 
L 154.434346 83.697902 
L 154.759325 64.23673 
L 155.084305 62.489448 
L 155.409284 45.821393 
L 155.734264 71.250413 
L 156.059243 47.088042 
L 156.384223 71.651462 
L 156.709202 78.373418 
L 157.034182 66.113269 
L 157.359161 65.702018 
L 157.684141 51.774373 
L 158.00912 57.095625 
L 158.3341 48.982056 
L 158.659079 68.470452 
L 158.984059 59.13403 
L 159.309038 68.502458 
L 159.634018 49.947347 
L 159.958997 52.988244 
L 160.283977 84.40222 
L 160.608957 59.563658 
L 160.933936 47.973819 
L 161.258916 49.89185 
L 161.583895 42.882979 
L 161.908875 57.365131 
L 162.233854 46.312355 
L 162.558834 42.339024 
L 162.883813 57.788123 
L 163.208793 46.349446 
L 163.858752 67.80546 
L 164.183731 39.928536 
L 164.508711 41.345638 
L 164.83369 44.752503 
L 165.15867 42.719783 
L 165.483649 46.49495 
L 165.808629 45.355292 
L 166.133608 57.460522 
L 166.458588 39.900659 
L 166.783568 46.400193 
L 167.433527 37.199217 
L 167.758506 40.949162 
L 168.083486 37.365561 
L 168.408465 37.207013 
L 168.733445 36.455272 
L 169.058424 44.816116 
L 169.708383 39.973006 
L 170.033363 46.3617 
L 170.358342 37.73755 
L 170.683322 37.121418 
L 171.008301 36.810974 
L 171.333281 80.373464 
L 171.65826 39.074936 
L 171.98324 39.631572 
L 172.308219 43.363816 
L 172.633199 36.347933 
L 172.958178 37.304119 
L 173.283158 39.118682 
L 173.608138 45.112252 
L 173.933117 38.07469 
L 174.258097 44.815485 
L 174.583076 38.941619 
L 174.908056 36.859982 
L 175.233035 66.482231 
L 175.558015 37.909634 
L 175.882994 62.097456 
L 176.207974 45.761348 
L 176.532953 40.651615 
L 176.857933 40.693553 
L 177.182912 43.420919 
L 177.507892 38.892272 
L 177.832871 41.895668 
L 178.157851 88.203567 
L 178.48283 48.95079 
L 178.80781 37.921615 
L 179.132789 85.337674 
L 179.457769 41.32586 
L 179.782749 52.027859 
L 180.107728 38.381531 
L 180.432708 38.7246 
L 180.757687 38.2101 
L 181.082667 49.275783 
L 181.407646 40.702902 
L 181.732626 46.368955 
L 182.057605 38.976814 
L 182.382585 40.661681 
L 182.707564 37.368943 
L 183.032544 37.465607 
L 183.357523 50.23512 
L 183.682503 38.388675 
L 184.007482 48.481205 
L 184.332462 51.746863 
L 184.657441 41.4719 
L 184.982421 39.912009 
L 185.63238 35.803381 
L 185.957359 41.528942 
L 186.282339 44.05292 
L 186.607319 66.381962 
L 186.932298 49.451076 
L 187.257278 51.965846 
L 187.907237 36.56683 
L 188.232216 38.262033 
L 188.557196 53.418586 
L 188.882175 41.25537 
L 189.207155 52.605363 
L 189.532134 55.744559 
L 189.857114 43.924756 
L 190.182093 45.782234 
L 190.832052 43.618725 
L 191.157032 77.4166 
L 191.482011 45.966389 
L 191.806991 52.379774 
L 192.13197 94.25927 
L 192.45695 82.618101 
L 192.78193 52.084174 
L 193.106909 40.167464 
L 193.431889 42.530489 
L 193.756868 75.236722 
L 194.406827 44.741292 
L 194.731807 36.425184 
L 195.056786 36.731975 
L 195.381766 65.976985 
L 195.706745 81.750729 
L 196.031725 45.841128 
L 196.356704 71.509503 
L 196.681684 41.468911 
L 197.006663 49.951988 
L 197.331643 46.565494 
L 197.656622 38.629643 
L 197.981602 42.367122 
L 198.306581 55.757595 
L 198.631561 54.625084 
L 198.95654 42.422009 
L 199.28152 51.200886 
L 199.6065 41.153367 
L 199.931479 83.103084 
L 200.256459 76.123395 
L 200.581438 52.431354 
L 200.906418 69.078805 
L 201.231397 51.382187 
L 201.556377 53.296272 
L 201.881356 49.115302 
L 202.206336 42.024398 
L 202.531315 37.81711 
L 202.856295 40.062793 
L 203.181274 69.876658 
L 203.506254 58.834468 
L 203.831233 94.457171 
L 204.156213 66.69745 
L 204.481192 60.702621 
L 204.806172 40.994045 
L 205.131151 44.088544 
L 205.456131 37.600209 
L 205.781111 37.307642 
L 206.10609 40.014311 
L 206.43107 56.942599 
L 206.756049 47.407054 
L 207.081029 68.805114 
L 207.406008 66.464359 
L 207.730988 36.258477 
L 208.055967 51.264028 
L 208.380947 43.152306 
L 208.705926 53.119864 
L 209.030906 74.244931 
L 209.355885 79.462365 
L 209.680865 43.181935 
L 210.005844 72.367551 
L 210.330824 51.07662 
L 210.655803 92.590407 
L 210.980783 107.882459 
L 211.305762 110.401149 
L 211.630742 43.451659 
L 211.955721 61.975304 
L 212.280701 52.333924 
L 212.605681 78.650183 
L 212.93066 43.823943 
L 213.580619 64.796549 
L 213.905599 109.256698 
L 214.230578 39.114861 
L 214.555558 45.612231 
L 214.880537 42.517534 
L 215.205517 52.284061 
L 215.530496 70.074229 
L 215.855476 167.039905 
L 216.180455 40.408945 
L 216.505435 47.905461 
L 216.830414 36.794935 
L 217.155394 51.938765 
L 217.480373 85.769936 
L 217.805353 86.435874 
L 218.130332 91.13418 
L 218.455312 84.334062 
L 218.780292 49.671441 
L 219.105271 51.683847 
L 219.430251 60.014405 
L 219.75523 51.50558 
L 220.08021 61.909161 
L 220.405189 66.456613 
L 220.730169 69.436591 
L 221.380128 41.521303 
L 221.705107 37.415712 
L 222.030087 51.264714 
L 222.355066 48.319356 
L 222.680046 55.822552 
L 223.005025 36.595063 
L 223.330005 36.177508 
L 223.654984 52.049915 
L 223.979964 97.449516 
L 224.304943 109.300536 
L 224.629923 96.508015 
L 225.279882 58.609973 
L 225.604862 97.674883 
L 225.929841 83.698256 
L 226.254821 42.594094 
L 226.5798 71.979947 
L 226.90478 41.427675 
L 227.229759 53.030789 
L 227.554739 75.853885 
L 227.879718 39.212825 
L 228.204698 38.017454 
L 228.529677 48.964012 
L 228.854657 43.086765 
L 229.179636 56.27954 
L 229.504616 48.872775 
L 229.829595 50.517395 
L 230.154575 45.121097 
L 230.479554 37.016413 
L 230.804534 37.998832 
L 231.129513 41.896926 
L 231.454493 39.680225 
L 232.104452 65.968763 
L 232.429432 68.070242 
L 233.079391 37.529913 
L 233.40437 58.476056 
L 233.72935 45.496197 
L 234.054329 65.526309 
L 234.379309 54.666732 
L 234.704288 37.572345 
L 235.029268 46.744705 
L 235.679227 70.042765 
L 236.329186 37.233773 
L 236.654165 70.573467 
L 237.304124 39.34614 
L 237.629104 42.889765 
L 237.954083 43.123484 
L 238.279063 37.720168 
L 238.604043 84.951546 
L 239.254002 42.574304 
L 239.578981 44.716869 
L 239.903961 37.240803 
L 240.22894 45.451137 
L 240.55392 37.119872 
L 240.878899 37.204531 
L 241.203879 45.046467 
L 241.528858 43.574771 
L 241.853838 72.710626 
L 242.178817 48.805061 
L 242.503797 40.049778 
L 242.828776 39.931202 
L 243.153756 63.524215 
L 243.478735 39.604828 
L 243.803715 37.088283 
L 244.128694 41.640387 
L 244.453674 42.460526 
L 244.778654 46.193252 
L 245.103633 52.35893 
L 245.753592 40.825656 
L 246.078572 44.518225 
L 246.403551 51.501877 
L 246.728531 51.268843 
L 247.05351 42.833611 
L 247.37849 77.532658 
L 247.703469 51.091062 
L 248.028449 58.055101 
L 248.353428 41.787588 
L 248.678408 81.203707 
L 249.003387 60.965861 
L 249.328367 69.94384 
L 249.653346 49.291368 
L 249.978326 55.843139 
L 250.303305 44.013209 
L 250.628285 61.286524 
L 250.953264 62.733417 
L 251.278244 47.336405 
L 251.603224 47.792944 
L 251.928203 65.291003 
L 252.253183 47.143207 
L 252.578162 62.534488 
L 252.903142 50.149159 
L 253.228121 64.485085 
L 253.553101 49.562723 
L 253.87808 43.180409 
L 254.20306 46.035422 
L 254.528039 37.851516 
L 254.853019 76.127324 
L 255.177998 56.873636 
L 255.502978 44.65787 
L 255.827957 44.361812 
L 256.152937 37.675369 
L 256.477916 42.639449 
L 256.802896 37.380209 
L 257.127875 37.502969 
L 257.452855 48.101405 
L 257.777835 35.770759 
L 258.102814 43.151621 
L 258.427794 42.896229 
L 258.752773 36.777584 
L 259.077753 56.625607 
L 259.727712 61.897515 
L 260.052691 38.722648 
L 260.377671 41.274353 
L 260.70265 49.17285 
L 261.02763 48.73166 
L 261.352609 46.495771 
L 261.677589 40.515478 
L 262.002568 67.36572 
L 262.327548 39.43756 
L 262.652527 41.449897 
L 262.977507 46.45702 
L 263.302486 38.370229 
L 263.627466 49.545795 
L 263.952445 42.804251 
L 264.277425 45.212532 
L 264.927384 35.742833 
L 265.252364 36.279819 
L 265.577343 79.300459 
L 265.902323 47.847752 
L 266.227302 48.483821 
L 266.552282 90.803729 
L 266.877261 70.870989 
L 267.202241 77.467602 
L 267.52722 165.448556 
L 267.8522 140.042786 
L 268.177179 71.336462 
L 268.502159 64.465883 
L 268.827138 46.872072 
L 269.152118 65.324222 
L 269.477097 63.895954 
L 269.802077 57.844531 
L 270.127056 40.367911 
L 270.452036 39.079837 
L 270.777016 47.702315 
L 271.101995 60.672314 
L 271.426975 61.932096 
L 271.751954 36.541511 
L 272.076934 53.008935 
L 272.401913 46.798245 
L 272.726893 66.51086 
L 273.051872 52.171088 
L 273.376852 65.31081 
L 273.701831 38.88884 
L 274.026811 49.991634 
L 274.35179 35.439371 
L 274.67677 57.867661 
L 275.001749 37.091412 
L 275.326729 39.120669 
L 275.651708 36.809105 
L 276.301667 39.165193 
L 276.951626 56.344028 
L 277.276606 53.749184 
L 277.601586 91.134735 
L 277.926565 50.377412 
L 278.251545 61.237296 
L 278.576524 102.894 
L 278.901504 43.193078 
L 279.226483 46.76095 
L 279.551463 43.479867 
L 279.876442 38.290338 
L 280.201422 37.651659 
L 280.526401 56.156831 
L 280.851381 59.635147 
L 281.17636 42.518232 
L 281.50134 58.696716 
L 281.826319 36.434897 
L 282.151299 41.17425 
L 282.476278 34.980374 
L 282.801258 48.499698 
L 283.126237 38.241198 
L 283.451217 53.186445 
L 283.776197 47.572346 
L 284.101176 44.526274 
L 284.426156 54.550747 
L 284.751135 45.423878 
L 285.076115 73.221593 
L 285.726074 38.959549 
L 286.051053 88.616272 
L 286.376033 35.25972 
L 286.701012 37.883131 
L 287.025992 39.290793 
L 287.350971 53.354674 
L 287.675951 37.30414 
L 288.00093 46.844734 
L 288.32591 41.955272 
L 288.975869 74.112879 
L 289.300848 70.545915 
L 289.625828 85.611792 
L 289.950807 52.972921 
L 290.275787 134.406235 
L 290.600767 92.159203 
L 291.250726 43.369289 
L 291.575705 41.789423 
L 291.900685 36.61266 
L 292.225664 35.818239 
L 292.550644 35.334051 
L 292.875623 37.365765 
L 293.200603 38.679868 
L 293.525582 38.002312 
L 293.850562 35.694707 
L 294.175541 37.667543 
L 294.500521 111.45086 
L 294.8255 82.105909 
L 295.15048 38.025493 
L 295.475459 34.456682 
L 295.800439 35.316923 
L 296.125418 34.414125 
L 296.450398 42.965338 
L 296.775378 40.71699 
L 297.100357 54.832818 
L 297.425337 37.381631 
L 297.750316 39.546285 
L 298.075296 56.01516 
L 298.400275 40.736868 
L 298.725255 49.329541 
L 299.050234 36.76197 
L 299.375214 54.093467 
L 299.700193 48.328903 
L 300.025173 37.202992 
L 300.350152 67.623743 
L 300.675132 49.007145 
L 301.000111 48.111296 
L 301.325091 67.19345 
L 301.65007 49.909207 
L 301.97505 105.618472 
L 302.625009 40.630875 
L 302.949988 43.754379 
L 303.274968 36.709924 
L 303.599948 66.780631 
L 303.924927 48.292235 
L 304.249907 99.018805 
L 304.574886 54.567168 
L 304.899866 54.049846 
L 305.224845 46.960108 
L 305.549825 35.50717 
L 305.874804 35.376457 
L 306.199784 40.671623 
L 306.524763 37.085855 
L 306.849743 44.262528 
L 307.174722 37.232308 
L 307.499702 66.559567 
L 307.824681 56.722653 
L 308.149661 36.747911 
L 308.47464 36.100999 
L 308.79962 46.831281 
L 309.449579 38.675027 
L 309.774559 36.086604 
L 310.099538 129.433208 
L 310.424518 73.282956 
L 310.749497 67.991348 
L 311.074477 55.845045 
L 311.399456 48.997016 
L 311.724436 48.068685 
L 312.049415 62.789281 
L 312.374395 39.326973 
L 312.699374 36.374056 
L 313.024354 53.832362 
L 313.349333 62.657443 
L 313.674313 82.463211 
L 313.999292 85.404756 
L 314.324272 41.394481 
L 314.649251 52.136063 
L 314.974231 47.24494 
L 315.29921 69.011968 
L 315.62419 45.209458 
L 315.949169 58.021272 
L 316.274149 95.583952 
L 316.599129 45.712803 
L 316.924108 87.201609 
L 317.249088 38.520631 
L 317.574067 64.433334 
L 317.899047 34.710144 
L 318.224026 37.714877 
L 318.549006 36.40822 
L 318.873985 50.410368 
L 319.198965 49.764329 
L 319.523944 52.187258 
L 319.848924 52.367103 
L 320.173903 44.36719 
L 320.498883 51.535036 
L 320.823862 48.673717 
L 321.148842 57.771897 
L 321.473821 74.16488 
L 321.798801 35.525856 
L 322.12378 36.215456 
L 322.44876 39.700108 
L 322.77374 40.213512 
L 323.098719 36.466903 
L 323.423699 42.104166 
L 323.748678 37.128864 
L 324.073658 42.567026 
L 324.398637 51.723427 
L 324.723617 49.143651 
L 325.048596 74.016505 
L 325.373576 38.519934 
L 325.698555 43.52468 
L 326.348514 74.750043 
L 326.673494 76.650806 
L 326.998473 43.766054 
L 327.323453 49.441909 
L 327.648432 64.960891 
L 327.973412 44.723506 
L 328.298391 38.839139 
L 328.623371 81.571799 
L 329.27333 50.456747 
L 329.59831 67.098425 
L 329.923289 126.770928 
L 330.573248 45.858284 
L 330.898228 40.433447 
L 331.223207 97.835072 
L 331.548187 73.305838 
L 331.873166 63.995414 
L 332.198146 49.002084 
L 332.523125 39.674454 
L 332.848105 41.773911 
L 333.173084 50.689519 
L 333.498064 37.513406 
L 333.823043 38.813822 
L 334.148023 51.264802 
L 334.473002 90.908044 
L 334.797982 37.477711 
L 335.122961 48.637279 
L 335.447941 38.810462 
L 336.0979 63.0737 
L 336.42288 90.153701 
L 336.747859 77.03473 
L 337.072839 49.746175 
L 337.397818 45.122805 
L 337.722798 56.304352 
L 338.047777 81.22052 
L 338.372757 80.846455 
L 338.697736 72.477739 
L 339.022716 92.445067 
L 339.347695 88.785441 
L 339.672675 42.929487 
L 339.997654 96.516202 
L 340.322634 83.033042 
L 340.647613 43.91628 
L 340.972593 107.954216 
L 341.297572 109.126722 
L 341.622552 50.757205 
L 341.947531 49.612835 
L 342.272511 41.154817 
L 342.597491 64.570082 
L 342.92247 76.084659 
L 343.24745 74.334189 
L 343.572429 44.153359 
L 343.897409 42.001841 
L 344.547368 48.861333 
L 344.872347 35.589901 
L 345.197327 48.519149 
L 345.522306 35.462656 
L 346.172265 47.501409 
L 346.822224 36.629682 
L 347.147204 36.395452 
L 347.472183 42.313843 
L 347.797163 37.404941 
L 348.122142 39.295319 
L 348.447122 37.000766 
L 348.772102 38.087304 
L 349.097081 38.058381 
L 349.422061 42.379955 
L 349.74704 35.261079 
L 350.07202 42.927721 
L 350.396999 38.203534 
L 350.721979 79.786041 
L 351.046958 54.234305 
L 351.371938 58.288063 
L 351.696917 38.634285 
L 352.021897 53.630411 
L 352.346876 120.296947 
L 352.671856 41.757164 
L 353.321815 78.170231 
L 353.646794 45.774045 
L 353.971774 60.638887 
L 354.296753 35.791397 
L 354.946712 61.853217 
L 355.271692 36.772179 
L 355.596672 48.165929 
L 355.921651 53.292797 
L 356.246631 63.822298 
L 356.57161 41.955523 
L 356.89659 51.223138 
L 357.221569 66.700414 
L 357.546549 67.588817 
L 357.871528 46.019592 
L 358.196508 74.424254 
L 358.521487 76.919473 
L 358.846467 59.928589 
L 359.171446 64.697708 
L 359.496426 76.890977 
L 359.821405 72.081843 
L 360.146385 35.09221 
L 360.471364 48.808947 
L 360.796344 37.292134 
L 361.121323 92.288707 
L 361.446303 35.213329 
L 361.771283 37.647256 
L 362.096262 36.815073 
L 362.746221 52.875628 
L 363.071201 43.648857 
L 363.39618 41.241215 
L 363.72116 35.093954 
L 364.046139 35.904239 
L 364.371119 37.222344 
L 364.696098 36.129045 
L 365.021078 110.682687 
L 365.346057 43.36683 
L 365.671037 67.532451 
L 365.996016 66.121251 
L 366.320996 59.428891 
L 366.645975 49.797921 
L 366.970955 58.544039 
L 367.295934 154.348421 
L 367.620914 41.649921 
L 367.945893 35.655864 
L 368.270873 36.749922 
L 368.595853 54.879252 
L 368.920832 50.871303 
L 369.245812 52.556672 
L 369.570791 45.705529 
L 369.895771 41.466125 
L 370.22075 35.556193 
L 370.54573 61.005812 
L 370.870709 36.8609 
L 371.520668 72.496336 
L 371.845648 65.26822 
L 372.170627 47.356186 
L 372.495607 40.562251 
L 372.820586 40.759506 
L 373.145566 81.226859 
L 373.795525 41.415656 
L 374.120504 58.365983 
L 374.445484 87.154196 
L 374.770464 47.292191 
L 375.095443 86.791052 
L 375.420423 63.145016 
L 375.745402 61.518097 
L 376.070382 91.337815 
L 376.395361 37.486588 
L 376.720341 42.923205 
L 377.3703 36.700241 
L 377.695279 62.57029 
L 378.345238 42.763279 
L 378.670218 69.636995 
L 378.995197 38.503171 
L 379.320177 43.888533 
L 379.645156 43.040269 
L 380.295115 60.870315 
L 380.620095 76.350396 
L 380.945074 46.331852 
L 381.270054 53.01396 
L 381.595034 41.795287 
L 381.920013 55.393861 
L 382.244993 81.464458 
L 382.569972 41.00758 
L 382.894952 42.22271 
L 383.219931 42.206468 
L 383.544911 35.42068 
L 383.86989 48.081658 
L 384.19487 49.668926 
L 384.519849 46.391137 
L 385.169808 81.959598 
L 385.494788 44.014276 
L 385.819767 35.741883 
L 386.144747 36.01495 
L 386.469726 46.313415 
L 386.794706 39.949207 
L 387.119685 38.069106 
L 387.444665 57.645077 
L 388.094624 47.313262 
L 388.419604 96.793094 
L 388.744583 51.201882 
L 389.069563 55.008105 
L 389.394542 42.774488 
L 389.719522 36.275943 
L 390.044501 61.945001 
L 390.369481 43.939196 
L 390.69446 37.754409 
L 390.69446 37.754409 
" style="fill:none;stroke:#4c72b0;stroke-linecap:round;stroke-width:1.5;"/>
   </g>
   <g id="line2d_13">
    <path clip-path="url(#p09b2e01af2)" d="M 66.039915 222.340672 
L 66.364894 216.265963 
L 67.014853 210.247588 
L 67.339833 214.835922 
L 67.664812 216.195464 
L 67.989792 219.479205 
L 68.314771 214.958243 
L 68.639751 214.935612 
L 68.96473 213.253669 
L 69.28971 209.124218 
L 69.61469 209.126123 
L 69.939669 207.219394 
L 70.264649 214.130867 
L 70.589628 215.266193 
L 70.914608 211.564361 
L 71.239587 204.481493 
L 71.564567 202.053093 
L 71.889546 200.736579 
L 72.539505 189.269276 
L 72.864485 187.716969 
L 73.189464 180.997463 
L 73.514444 180.401998 
L 73.839423 180.57422 
L 74.164403 184.972552 
L 74.489382 178.57442 
L 74.814362 178.193975 
L 75.464321 170.481316 
L 75.789301 164.874816 
L 76.11428 164.920788 
L 76.43926 164.273299 
L 76.764239 164.333918 
L 77.089219 163.027463 
L 77.414198 159.031432 
L 77.739178 158.366962 
L 78.064157 158.803095 
L 78.389137 152.09291 
L 78.714116 149.873694 
L 79.364075 140.286691 
L 79.689055 144.326303 
L 80.014034 143.112003 
L 80.339014 144.578959 
L 80.988973 141.493024 
L 81.313952 142.717825 
L 81.638932 144.404717 
L 81.963911 145.378724 
L 82.288891 145.57529 
L 82.613871 146.530836 
L 82.93885 152.170968 
L 83.26383 148.587769 
L 83.913789 146.841336 
L 84.238768 145.301093 
L 84.563748 145.483878 
L 84.888727 140.710753 
L 85.213707 138.403603 
L 85.538686 138.957079 
L 85.863666 139.875456 
L 86.188645 135.198066 
L 86.838604 131.766981 
L 87.163584 127.262183 
L 87.488563 126.033114 
L 88.138522 127.313633 
L 88.463502 126.415039 
L 88.788482 126.16683 
L 89.113461 124.061121 
L 89.438441 122.952479 
L 89.76342 119.782971 
L 90.0884 117.848181 
L 90.413379 117.182746 
L 91.063338 112.105836 
L 91.388318 112.652818 
L 92.038277 115.67376 
L 92.363256 119.609689 
L 92.688236 126.363882 
L 93.013215 124.49526 
L 93.338195 119.467473 
L 93.988154 113.542225 
L 94.963092 108.058381 
L 95.288072 109.623688 
L 95.613052 108.935699 
L 95.938031 107.04161 
L 96.58799 106.937576 
L 96.91297 106.521914 
L 97.237949 106.969251 
L 97.562929 105.404341 
L 97.887908 114.683503 
L 98.212888 112.810652 
L 98.537867 112.107613 
L 98.862847 110.9251 
L 99.187826 114.572992 
L 99.512806 114.060529 
L 99.837785 113.303986 
L 100.162765 112.997266 
L 100.487744 112.49785 
L 100.812724 112.54945 
L 101.137703 115.876574 
L 101.462683 116.968561 
L 102.112642 122.137608 
L 102.437622 122.26594 
L 102.762601 121.177784 
L 103.087581 119.246527 
L 103.41256 115.840311 
L 103.73754 116.16571 
L 104.062519 115.109625 
L 104.387499 110.693566 
L 104.712478 110.155501 
L 105.037458 111.933338 
L 105.362437 116.173401 
L 105.687417 115.010876 
L 106.337376 110.064724 
L 106.662355 111.406234 
L 107.312314 105.887543 
L 107.962273 101.15713 
L 108.287253 100.46627 
L 108.612233 103.305238 
L 108.937212 104.213089 
L 109.262192 101.499176 
L 109.587171 101.995107 
L 109.912151 101.837286 
L 110.23713 100.528039 
L 110.56211 97.240696 
L 111.212069 92.766244 
L 111.537048 96.092714 
L 111.862028 97.015836 
L 112.187007 96.067892 
L 112.836966 93.354371 
L 113.161946 92.570151 
L 113.486925 90.539415 
L 113.811905 90.789579 
L 114.136884 90.470009 
L 114.461864 91.746795 
L 114.786844 93.597085 
L 115.111823 94.300638 
L 115.436803 96.252798 
L 115.761782 95.481557 
L 116.086762 95.425137 
L 116.411741 94.942881 
L 116.736721 95.878005 
L 117.0617 94.634768 
L 117.38668 94.164961 
L 117.711659 96.13166 
L 118.036639 95.340011 
L 118.686598 97.175597 
L 119.011577 96.174905 
L 119.661536 98.918897 
L 119.986516 99.69476 
L 120.311495 97.90454 
L 120.636475 98.406914 
L 121.286434 103.146722 
L 121.611414 102.918633 
L 121.936393 100.514089 
L 122.261373 102.70566 
L 123.236311 100.43389 
L 123.561291 101.16894 
L 123.88627 105.258797 
L 124.21125 104.875296 
L 124.536229 107.156212 
L 124.861209 105.083715 
L 125.186188 101.131691 
L 125.511168 102.93675 
L 126.161127 94.988465 
L 126.486106 95.243937 
L 126.811086 95.087908 
L 127.136065 94.576749 
L 127.461045 92.591007 
L 128.435984 84.530127 
L 128.760963 83.260558 
L 129.085943 83.095055 
L 129.410922 82.378871 
L 129.735902 80.718955 
L 130.060881 82.386526 
L 130.71084 80.947332 
L 131.03582 83.61247 
L 131.685779 85.827852 
L 132.010758 84.125601 
L 132.335738 83.242756 
L 132.660717 83.880374 
L 132.985697 82.336789 
L 133.635656 77.182745 
L 133.960635 81.554457 
L 134.285615 84.31931 
L 134.610595 88.229475 
L 134.935574 89.65874 
L 135.260554 87.583035 
L 135.910513 81.890575 
L 136.235492 85.529713 
L 136.560472 82.361843 
L 137.210431 80.195652 
L 137.86039 81.465807 
L 138.185369 82.364031 
L 138.510349 81.248186 
L 138.835328 89.001156 
L 139.160308 89.473115 
L 140.135246 88.940382 
L 140.785206 82.904873 
L 141.110185 86.554094 
L 141.760144 84.037142 
L 142.410103 78.519468 
L 142.735083 83.064195 
L 143.385042 78.582414 
L 143.710021 77.556254 
L 144.035001 77.903197 
L 144.35998 76.405429 
L 144.68496 76.991129 
L 145.659898 71.607519 
L 146.634837 66.216566 
L 146.959816 66.806843 
L 147.609776 68.829148 
L 148.259735 72.089924 
L 148.909694 67.536745 
L 149.234673 67.683032 
L 149.884632 71.679589 
L 150.209612 71.76727 
L 150.534591 71.23583 
L 150.859571 74.291566 
L 151.18455 72.370333 
L 151.834509 67.696335 
L 152.484468 64.820754 
L 152.809448 62.374976 
L 153.134427 65.58837 
L 153.459407 67.481239 
L 153.784387 66.981582 
L 154.109366 67.376797 
L 154.434346 69.008908 
L 155.084305 67.927466 
L 155.409284 65.716858 
L 155.734264 66.270214 
L 156.059243 64.351997 
L 156.384223 65.081943 
L 156.709202 66.411091 
L 157.359161 66.313379 
L 157.684141 64.859479 
L 158.00912 64.083093 
L 158.3341 62.57299 
L 158.659079 63.162736 
L 158.984059 62.759865 
L 159.309038 63.334125 
L 159.958997 61.094727 
L 160.283977 63.425476 
L 160.608957 63.039294 
L 161.583895 58.620089 
L 161.908875 58.494593 
L 162.558834 55.782635 
L 162.883813 55.983184 
L 163.208793 55.01981 
L 163.533772 55.139034 
L 163.858752 56.405677 
L 164.508711 53.41673 
L 165.483649 51.060025 
L 165.808629 50.489551 
L 166.133608 51.186648 
L 166.458588 50.058049 
L 166.783568 49.692264 
L 167.108547 48.859455 
L 167.433527 47.693431 
L 167.758506 47.019004 
L 168.733445 44.297623 
L 169.058424 44.349472 
L 169.383404 44.168193 
L 169.708383 43.748674 
L 170.033363 44.009977 
L 171.008301 42.16204 
L 171.333281 45.983182 
L 171.98324 44.726279 
L 172.308219 44.590033 
L 172.958178 43.119652 
L 173.283158 42.719555 
L 173.608138 42.958825 
L 173.933117 42.470411 
L 174.258097 42.704919 
L 174.583076 42.328589 
L 174.908056 41.781728 
L 175.233035 44.251778 
L 175.558015 43.617564 
L 175.882994 45.465553 
L 176.207974 45.495133 
L 176.857933 44.579058 
L 177.182912 44.463244 
L 177.507892 43.906147 
L 177.832871 43.705099 
L 178.157851 48.154946 
L 178.48283 48.23453 
L 178.80781 47.203239 
L 179.132789 51.016682 
L 179.457769 50.0476 
L 179.782749 50.245626 
L 180.757687 47.044189 
L 181.082667 47.267349 
L 181.407646 46.610904 
L 181.732626 46.586709 
L 183.032544 43.810311 
L 183.357523 44.452792 
L 183.682503 43.846381 
L 184.007482 44.309863 
L 184.332462 45.053563 
L 184.982421 44.217058 
L 185.63238 42.769361 
L 185.957359 42.645319 
L 186.282339 42.786079 
L 186.607319 45.145667 
L 186.932298 45.576208 
L 187.257278 46.215172 
L 187.582257 45.950106 
L 188.232216 44.336804 
L 188.557196 45.244982 
L 188.882175 44.846021 
L 189.532134 46.634216 
L 189.857114 46.36327 
L 190.507073 46.152276 
L 190.832052 45.898921 
L 191.157032 49.050689 
L 191.482011 48.742259 
L 191.806991 49.10601 
L 192.13197 53.621336 
L 192.45695 56.521013 
L 192.78193 56.077329 
L 193.431889 53.290757 
L 193.756868 55.485354 
L 194.081848 55.646103 
L 194.406827 54.555622 
L 195.056786 51.141518 
L 195.381766 52.625064 
L 195.706745 55.537631 
L 196.031725 54.56798 
L 196.356704 56.262133 
L 196.681684 54.78281 
L 197.006663 54.299728 
L 197.331643 53.526305 
L 197.656622 52.036639 
L 197.981602 51.069687 
L 198.631561 51.847138 
L 198.95654 50.904625 
L 199.28152 50.934252 
L 199.6065 49.956163 
L 200.256459 55.556109 
L 200.581438 55.243634 
L 200.906418 56.627151 
L 201.231397 56.102654 
L 201.556377 55.822016 
L 201.881356 55.151345 
L 202.856295 51.019126 
L 203.181274 52.904879 
L 203.506254 53.497838 
L 203.831233 57.593771 
L 204.156213 58.504139 
L 204.481192 58.723987 
L 205.781111 52.203229 
L 206.10609 50.984337 
L 206.43107 51.580163 
L 206.756049 51.162852 
L 207.406008 54.280807 
L 207.730988 52.478574 
L 208.055967 52.357119 
L 208.380947 51.436638 
L 208.705926 51.60496 
L 209.355885 56.428298 
L 209.680865 55.103662 
L 210.005844 56.830051 
L 210.330824 56.254708 
L 210.980783 64.687696 
L 211.305762 69.259041 
L 211.630742 66.678303 
L 211.955721 66.208003 
L 212.280701 64.820595 
L 212.605681 66.203554 
L 212.93066 63.965593 
L 213.25564 62.951583 
L 213.580619 63.13608 
L 213.905599 67.748142 
L 214.555558 62.957555 
L 214.880537 60.913553 
L 215.205517 60.050604 
L 215.530496 61.052967 
L 215.855476 71.65166 
L 216.505435 66.465196 
L 216.830414 63.49817 
L 217.155394 62.342229 
L 218.130332 69.287497 
L 218.455312 70.792153 
L 219.105271 66.980459 
L 219.430251 66.283853 
L 219.75523 64.806026 
L 220.08021 64.516339 
L 220.405189 64.710367 
L 220.730169 65.182989 
L 221.055148 64.086771 
L 221.705107 59.388773 
L 222.355066 57.550666 
L 222.680046 57.377855 
L 223.330005 53.387369 
L 223.654984 53.253623 
L 224.629923 66.203152 
L 224.954902 67.098187 
L 225.279882 66.249365 
L 225.604862 69.391917 
L 225.929841 70.822551 
L 226.254821 67.999705 
L 226.5798 68.39773 
L 226.90478 65.700724 
L 227.229759 64.433731 
L 227.554739 65.575746 
L 228.204698 60.447254 
L 228.529677 59.29893 
L 228.854657 57.677713 
L 229.179636 57.537896 
L 230.154575 54.962496 
L 230.804534 51.650982 
L 231.454493 49.576041 
L 231.779473 50.064157 
L 232.429432 53.29618 
L 232.754411 53.098828 
L 233.079391 51.541936 
L 233.40437 52.235348 
L 233.72935 51.561433 
L 234.054329 52.957921 
L 234.379309 53.128802 
L 234.704288 51.573156 
L 235.029268 51.090311 
L 235.354247 51.957055 
L 235.679227 53.765626 
L 236.004206 53.809805 
L 236.329186 52.152202 
L 236.654165 53.994329 
L 236.979145 54.144433 
L 237.629104 51.68712 
L 237.954083 50.830756 
L 238.279063 49.519697 
L 238.604043 53.062882 
L 238.929022 54.18896 
L 239.903961 50.700869 
L 240.22894 50.175896 
L 240.878899 47.703717 
L 241.528858 47.05167 
L 241.853838 49.617566 
L 242.178817 49.536315 
L 242.828776 47.722016 
L 243.153756 49.302236 
L 244.128694 46.651305 
L 244.453674 46.232227 
L 244.778654 46.22833 
L 245.103633 46.84139 
L 245.428613 46.769197 
L 245.753592 46.174843 
L 246.078572 46.009181 
L 246.728531 47.02949 
L 247.05351 46.609902 
L 247.37849 49.702178 
L 247.703469 49.841066 
L 248.028449 50.66247 
L 248.353428 49.774982 
L 248.678408 52.917854 
L 249.003387 53.722655 
L 249.328367 55.344773 
L 249.653346 54.739433 
L 249.978326 54.849803 
L 250.303305 53.766144 
L 250.953264 55.339705 
L 251.603224 53.864732 
L 251.928203 55.007359 
L 252.253183 54.220944 
L 252.578162 55.052298 
L 252.903142 54.561984 
L 253.228121 55.554295 
L 253.553101 54.955137 
L 254.528039 51.488248 
L 254.853019 53.952155 
L 255.177998 54.244303 
L 255.827957 52.393275 
L 256.152937 50.921485 
L 256.477916 50.093281 
L 257.127875 47.690073 
L 257.452855 47.731207 
L 257.777835 46.535162 
L 258.427794 45.86675 
L 258.752773 44.957833 
L 259.727712 48.851694 
L 260.377671 47.182346 
L 261.02763 47.516423 
L 261.352609 47.414357 
L 261.677589 46.724469 
L 262.002568 48.788594 
L 262.652527 47.213132 
L 262.977507 47.13752 
L 263.302486 46.260791 
L 263.627466 46.589292 
L 263.952445 46.210788 
L 264.277425 46.110962 
L 264.602405 45.616154 
L 265.252364 43.793921 
L 265.577343 47.344575 
L 266.227302 47.503786 
L 266.552282 51.83378 
L 267.202241 56.110511 
L 267.8522 74.344163 
L 268.177179 74.043393 
L 268.502159 73.085642 
L 268.827138 70.464285 
L 269.477097 69.344846 
L 269.802077 68.194815 
L 270.452036 62.778895 
L 270.777016 61.271237 
L 271.101995 61.211345 
L 271.426975 61.28342 
L 271.751954 58.809229 
L 272.076934 58.2292 
L 272.401913 57.086104 
L 272.726893 58.02858 
L 273.051872 57.442831 
L 273.376852 58.229629 
L 273.701831 56.29555 
L 274.026811 55.665158 
L 274.35179 53.64258 
L 274.67677 54.065088 
L 275.326729 51.043015 
L 275.976688 48.441658 
L 276.301667 47.514011 
L 276.626647 47.502207 
L 276.951626 48.386389 
L 277.276606 48.922669 
L 277.601586 53.143875 
L 277.926565 52.867229 
L 278.251545 53.704236 
L 278.576524 58.623212 
L 279.226483 56.048274 
L 279.876442 53.141324 
L 280.201422 51.592357 
L 280.526401 52.048805 
L 280.851381 52.807439 
L 281.17636 51.778518 
L 281.50134 52.470338 
L 281.826319 50.866794 
L 282.151299 49.89754 
L 282.476278 48.405823 
L 282.801258 48.415211 
L 283.126237 47.397809 
L 283.451217 47.976673 
L 283.776197 47.93624 
L 284.101176 47.595244 
L 284.426156 48.290794 
L 284.751135 48.004102 
L 285.076115 50.525851 
L 285.401094 51.240919 
L 285.726074 50.012782 
L 286.051053 53.873131 
L 286.701012 50.598924 
L 287.025992 49.468111 
L 287.350971 49.856767 
L 287.675951 48.601505 
L 288.00093 48.425827 
L 288.32591 47.778772 
L 288.650889 48.657072 
L 289.625828 56.38446 
L 289.950807 56.043306 
L 290.275787 63.879599 
L 290.600767 66.707559 
L 290.925746 66.99307 
L 292.875623 53.392563 
L 294.175541 47.908088 
L 294.500521 54.262365 
L 294.8255 57.04672 
L 296.125418 49.611338 
L 296.775378 48.123763 
L 297.100357 48.794669 
L 297.750316 46.842657 
L 298.075296 47.759907 
L 298.400275 47.057603 
L 298.725255 47.284797 
L 299.050234 46.232514 
L 299.375214 47.01861 
L 299.700193 47.149639 
L 300.025173 46.154974 
L 300.350152 48.301851 
L 301.000111 48.346272 
L 301.325091 50.23099 
L 301.65007 50.198812 
L 301.97505 55.740778 
L 302.300029 57.805031 
L 303.274968 53.039855 
L 303.599948 54.413933 
L 303.924927 53.801763 
L 304.249907 58.323467 
L 304.899866 57.558038 
L 305.224845 56.498245 
L 305.874804 52.49687 
L 307.174722 48.11897 
L 307.499702 49.96303 
L 307.824681 50.638992 
L 308.47464 47.934996 
L 308.79962 47.824624 
L 309.124599 47.295214 
L 309.774559 45.398536 
L 310.099538 53.802003 
L 310.424518 55.750099 
L 310.749497 56.974223 
L 311.074477 56.861306 
L 311.724436 55.274257 
L 312.049415 56.02576 
L 312.699374 52.557699 
L 313.024354 52.685165 
L 313.349333 53.682393 
L 313.999292 59.444903 
L 314.324272 57.639861 
L 314.649251 57.089481 
L 314.974231 56.105027 
L 315.29921 57.395721 
L 315.62419 56.177095 
L 315.949169 56.361512 
L 316.274149 60.283756 
L 316.599129 58.826661 
L 316.924108 61.664156 
L 317.249088 59.349803 
L 317.574067 59.858156 
L 318.224026 55.380507 
L 318.549006 53.483279 
L 319.198965 52.834822 
L 319.848924 52.729769 
L 320.173903 51.893511 
L 320.498883 51.857664 
L 320.823862 51.539269 
L 321.148842 52.162532 
L 321.473821 54.362767 
L 322.12378 50.852714 
L 323.098719 47.553243 
L 323.423699 47.008335 
L 323.748678 46.020388 
L 324.073658 45.675052 
L 324.398637 46.27989 
L 324.723617 46.566266 
L 325.048596 49.31129 
L 325.373576 48.232154 
L 325.698555 47.761407 
L 326.023535 48.707811 
L 326.673494 53.845912 
L 326.998473 52.837926 
L 327.323453 52.498324 
L 327.648432 53.744581 
L 327.973412 52.842473 
L 328.298391 51.44214 
L 328.623371 54.455106 
L 328.94835 55.3111 
L 329.27333 54.825665 
L 329.59831 56.052941 
L 329.923289 63.12474 
L 330.248269 65.367875 
L 330.898228 61.118569 
L 331.223207 64.790219 
L 331.548187 65.641781 
L 331.873166 65.477144 
L 332.198146 63.829638 
L 332.848105 59.450099 
L 333.173084 58.574041 
L 333.823043 54.702562 
L 334.148023 54.358786 
L 334.473002 58.013712 
L 334.797982 55.960112 
L 335.122961 55.227828 
L 335.447941 53.586092 
L 335.772921 53.146473 
L 336.0979 54.139196 
L 336.42288 57.740647 
L 336.747859 59.670055 
L 337.072839 58.677667 
L 337.397818 57.322181 
L 337.722798 57.220398 
L 338.372757 61.743015 
L 338.697736 62.816487 
L 339.347695 68.079955 
L 339.672675 65.564908 
L 339.997654 68.660037 
L 340.322634 70.097338 
L 340.647613 67.479232 
L 341.297572 75.28673 
L 342.272511 67.575996 
L 342.597491 67.275405 
L 343.24745 68.774116 
L 344.222388 61.992951 
L 344.547368 60.679789 
L 344.872347 58.1708 
L 345.197327 57.205635 
L 345.522306 55.031337 
L 345.847286 53.67655 
L 346.172265 53.059036 
L 346.497245 51.940811 
L 347.147204 49.008274 
L 347.472183 48.338831 
L 348.122142 46.450429 
L 348.772102 44.763647 
L 349.097081 44.093121 
L 349.422061 43.921804 
L 349.74704 43.055732 
L 350.07202 43.042931 
L 350.396999 42.558991 
L 350.721979 46.281696 
L 351.046958 47.076957 
L 351.371938 48.198067 
L 351.696917 47.241689 
L 352.021897 47.880561 
L 352.346876 55.1222 
L 352.671856 53.785696 
L 352.996835 54.697438 
L 353.321815 57.044718 
L 353.646794 55.91765 
L 353.971774 56.389774 
L 354.296753 54.329936 
L 354.621733 53.747604 
L 354.946712 54.558166 
L 355.271692 52.779567 
L 355.596672 52.318203 
L 355.921651 52.415663 
L 356.246631 53.556326 
L 356.57161 52.396246 
L 356.89659 52.278935 
L 357.546549 55.107856 
L 357.871528 54.19903 
L 358.521487 58.291344 
L 358.846467 58.455069 
L 359.171446 59.079333 
L 359.496426 60.860497 
L 359.821405 61.982632 
L 360.146385 59.29359 
L 360.471364 58.245125 
L 360.796344 56.149826 
L 361.121323 59.763714 
L 361.771283 55.342534 
L 362.096262 53.489788 
L 362.421242 52.645755 
L 362.746221 52.668743 
L 363.39618 50.7142 
L 364.046139 47.827382 
L 364.696098 45.703095 
L 365.021078 52.201054 
L 365.346057 51.317632 
L 365.996016 54.257327 
L 366.320996 54.774484 
L 366.645975 54.276827 
L 366.970955 54.703549 
L 367.295934 64.668036 
L 368.270873 57.400662 
L 368.595853 57.148521 
L 369.570791 55.082501 
L 370.22075 51.904396 
L 370.54573 52.814538 
L 370.870709 51.219174 
L 371.195689 51.80227 
L 371.520668 53.871677 
L 371.845648 55.011331 
L 372.170627 54.245816 
L 372.820586 51.665664 
L 373.145566 54.621784 
L 373.470545 55.022135 
L 373.795525 53.661487 
L 374.120504 54.131936 
L 374.445484 57.434162 
L 374.770464 56.419965 
L 375.095443 59.457074 
L 375.420423 59.825868 
L 375.745402 59.995091 
L 376.070382 63.129364 
L 376.720341 58.800898 
L 377.3703 54.87491 
L 377.695279 55.644448 
L 378.020259 55.4165 
L 378.345238 54.151177 
L 378.670218 55.699759 
L 378.995197 53.9801 
L 379.645156 51.977876 
L 379.970136 52.028808 
L 380.295115 52.912958 
L 380.620095 55.256702 
L 380.945074 54.364217 
L 381.270054 54.229191 
L 381.595034 52.985801 
L 381.920013 53.226607 
L 382.244993 56.050392 
L 382.894952 53.313771 
L 383.219931 52.20304 
L 383.544911 50.524804 
L 383.86989 50.28049 
L 384.19487 50.219333 
L 384.519849 49.836514 
L 384.844829 51.037448 
L 385.169808 54.129663 
L 385.494788 53.118124 
L 386.144747 49.843945 
L 386.469726 49.490892 
L 387.119685 47.489962 
L 387.444665 48.505473 
L 387.769645 48.813565 
L 388.094624 48.663534 
L 388.419604 53.47649 
L 388.744583 53.24903 
L 389.069563 53.424937 
L 389.394542 52.359892 
L 389.719522 50.751497 
L 390.044501 51.870847 
L 390.369481 51.077682 
L 390.69446 49.745355 
L 390.69446 49.745355 
" style="fill:none;stroke:#dd8452;stroke-linecap:round;stroke-width:1.5;"/>
   </g>
   <g id="patch_3">
    <path d="M 49.807187 288.430125 
L 49.807187 22.318125 
" style="fill:none;stroke:#ffffff;stroke-linecap:square;stroke-linejoin:miter;stroke-width:1.25;"/>
   </g>
   <g id="patch_4">
    <path d="M 406.927188 288.430125 
L 406.927188 22.318125 
" style="fill:none;stroke:#ffffff;stroke-linecap:square;stroke-linejoin:miter;stroke-width:1.25;"/>
   </g>
   <g id="patch_5">
    <path d="M 49.807187 288.430125 
L 406.927187 288.430125 
" style="fill:none;stroke:#ffffff;stroke-linecap:square;stroke-linejoin:miter;stroke-width:1.25;"/>
   </g>
   <g id="patch_6">
    <path d="M 49.807187 22.318125 
L 406.927187 22.318125 
" style="fill:none;stroke:#ffffff;stroke-linecap:square;stroke-linejoin:miter;stroke-width:1.25;"/>
   </g>
   <g id="text_13">
    <!-- learning curve on cuda of DQN for micro_grid -->
    <g style="fill:#262626;" transform="translate(92.238438 16.318125)scale(0.12 -0.12)">
     <defs>
      <path d="M 603 4863 
L 1178 4863 
L 1178 0 
L 603 0 
L 603 4863 
z
" id="DejaVuSans-6c" transform="scale(0.015625)"/>
      <path d="M 2194 1759 
Q 1497 1759 1228 1600 
Q 959 1441 959 1056 
Q 959 750 1161 570 
Q 1363 391 1709 391 
Q 2188 391 2477 730 
Q 2766 1069 2766 1631 
L 2766 1759 
L 2194 1759 
z
M 3341 1997 
L 3341 0 
L 2766 0 
L 2766 531 
Q 2569 213 2275 61 
Q 1981 -91 1556 -91 
Q 1019 -91 701 211 
Q 384 513 384 1019 
Q 384 1609 779 1909 
Q 1175 2209 1959 2209 
L 2766 2209 
L 2766 2266 
Q 2766 2663 2505 2880 
Q 2244 3097 1772 3097 
Q 1472 3097 1187 3025 
Q 903 2953 641 2809 
L 641 3341 
Q 956 3463 1253 3523 
Q 1550 3584 1831 3584 
Q 2591 3584 2966 3190 
Q 3341 2797 3341 1997 
z
" id="DejaVuSans-61" transform="scale(0.015625)"/>
      <path d="M 2631 2963 
Q 2534 3019 2420 3045 
Q 2306 3072 2169 3072 
Q 1681 3072 1420 2755 
Q 1159 2438 1159 1844 
L 1159 0 
L 581 0 
L 581 3500 
L 1159 3500 
L 1159 2956 
Q 1341 3275 1631 3429 
Q 1922 3584 2338 3584 
Q 2397 3584 2469 3576 
Q 2541 3569 2628 3553 
L 2631 2963 
z
" id="DejaVuSans-72" transform="scale(0.015625)"/>
      <path d="M 3513 2113 
L 3513 0 
L 2938 0 
L 2938 2094 
Q 2938 2591 2744 2837 
Q 2550 3084 2163 3084 
Q 1697 3084 1428 2787 
Q 1159 2491 1159 1978 
L 1159 0 
L 581 0 
L 581 3500 
L 1159 3500 
L 1159 2956 
Q 1366 3272 1645 3428 
Q 1925 3584 2291 3584 
Q 2894 3584 3203 3211 
Q 3513 2838 3513 2113 
z
" id="DejaVuSans-6e" transform="scale(0.015625)"/>
      <path d="M 2906 1791 
Q 2906 2416 2648 2759 
Q 2391 3103 1925 3103 
Q 1463 3103 1205 2759 
Q 947 2416 947 1791 
Q 947 1169 1205 825 
Q 1463 481 1925 481 
Q 2391 481 2648 825 
Q 2906 1169 2906 1791 
z
M 3481 434 
Q 3481 -459 3084 -895 
Q 2688 -1331 1869 -1331 
Q 1566 -1331 1297 -1286 
Q 1028 -1241 775 -1147 
L 775 -588 
Q 1028 -725 1275 -790 
Q 1522 -856 1778 -856 
Q 2344 -856 2625 -561 
Q 2906 -266 2906 331 
L 2906 616 
Q 2728 306 2450 153 
Q 2172 0 1784 0 
Q 1141 0 747 490 
Q 353 981 353 1791 
Q 353 2603 747 3093 
Q 1141 3584 1784 3584 
Q 2172 3584 2450 3431 
Q 2728 3278 2906 2969 
L 2906 3500 
L 3481 3500 
L 3481 434 
z
" id="DejaVuSans-67" transform="scale(0.015625)"/>
      <path id="DejaVuSans-20" transform="scale(0.015625)"/>
      <path d="M 3122 3366 
L 3122 2828 
Q 2878 2963 2633 3030 
Q 2388 3097 2138 3097 
Q 1578 3097 1268 2742 
Q 959 2388 959 1747 
Q 959 1106 1268 751 
Q 1578 397 2138 397 
Q 2388 397 2633 464 
Q 2878 531 3122 666 
L 3122 134 
Q 2881 22 2623 -34 
Q 2366 -91 2075 -91 
Q 1284 -91 818 406 
Q 353 903 353 1747 
Q 353 2603 823 3093 
Q 1294 3584 2113 3584 
Q 2378 3584 2631 3529 
Q 2884 3475 3122 3366 
z
" id="DejaVuSans-63" transform="scale(0.015625)"/>
      <path d="M 544 1381 
L 544 3500 
L 1119 3500 
L 1119 1403 
Q 1119 906 1312 657 
Q 1506 409 1894 409 
Q 2359 409 2629 706 
Q 2900 1003 2900 1516 
L 2900 3500 
L 3475 3500 
L 3475 0 
L 2900 0 
L 2900 538 
Q 2691 219 2414 64 
Q 2138 -91 1772 -91 
Q 1169 -91 856 284 
Q 544 659 544 1381 
z
M 1991 3584 
L 1991 3584 
z
" id="DejaVuSans-75" transform="scale(0.015625)"/>
      <path d="M 191 3500 
L 800 3500 
L 1894 563 
L 2988 3500 
L 3597 3500 
L 2284 0 
L 1503 0 
L 191 3500 
z
" id="DejaVuSans-76" transform="scale(0.015625)"/>
      <path d="M 2375 4863 
L 2375 4384 
L 1825 4384 
Q 1516 4384 1395 4259 
Q 1275 4134 1275 3809 
L 1275 3500 
L 2222 3500 
L 2222 3053 
L 1275 3053 
L 1275 0 
L 697 0 
L 697 3053 
L 147 3053 
L 147 3500 
L 697 3500 
L 697 3744 
Q 697 4328 969 4595 
Q 1241 4863 1831 4863 
L 2375 4863 
z
" id="DejaVuSans-66" transform="scale(0.015625)"/>
      <path d="M 1259 4147 
L 1259 519 
L 2022 519 
Q 2988 519 3436 956 
Q 3884 1394 3884 2338 
Q 3884 3275 3436 3711 
Q 2988 4147 2022 4147 
L 1259 4147 
z
M 628 4666 
L 1925 4666 
Q 3281 4666 3915 4102 
Q 4550 3538 4550 2338 
Q 4550 1131 3912 565 
Q 3275 0 1925 0 
L 628 0 
L 628 4666 
z
" id="DejaVuSans-44" transform="scale(0.015625)"/>
      <path d="M 2522 4238 
Q 1834 4238 1429 3725 
Q 1025 3213 1025 2328 
Q 1025 1447 1429 934 
Q 1834 422 2522 422 
Q 3209 422 3611 934 
Q 4013 1447 4013 2328 
Q 4013 3213 3611 3725 
Q 3209 4238 2522 4238 
z
M 3406 84 
L 4238 -825 
L 3475 -825 
L 2784 -78 
Q 2681 -84 2626 -87 
Q 2572 -91 2522 -91 
Q 1538 -91 948 567 
Q 359 1225 359 2328 
Q 359 3434 948 4092 
Q 1538 4750 2522 4750 
Q 3503 4750 4090 4092 
Q 4678 3434 4678 2328 
Q 4678 1516 4351 937 
Q 4025 359 3406 84 
z
" id="DejaVuSans-51" transform="scale(0.015625)"/>
      <path d="M 628 4666 
L 1478 4666 
L 3547 763 
L 3547 4666 
L 4159 4666 
L 4159 0 
L 3309 0 
L 1241 3903 
L 1241 0 
L 628 0 
L 628 4666 
z
" id="DejaVuSans-4e" transform="scale(0.015625)"/>
      <path d="M 3328 2828 
Q 3544 3216 3844 3400 
Q 4144 3584 4550 3584 
Q 5097 3584 5394 3201 
Q 5691 2819 5691 2113 
L 5691 0 
L 5113 0 
L 5113 2094 
Q 5113 2597 4934 2840 
Q 4756 3084 4391 3084 
Q 3944 3084 3684 2787 
Q 3425 2491 3425 1978 
L 3425 0 
L 2847 0 
L 2847 2094 
Q 2847 2600 2669 2842 
Q 2491 3084 2119 3084 
Q 1678 3084 1418 2786 
Q 1159 2488 1159 1978 
L 1159 0 
L 581 0 
L 581 3500 
L 1159 3500 
L 1159 2956 
Q 1356 3278 1631 3431 
Q 1906 3584 2284 3584 
Q 2666 3584 2933 3390 
Q 3200 3197 3328 2828 
z
" id="DejaVuSans-6d" transform="scale(0.015625)"/>
      <path d="M 3263 -1063 
L 3263 -1509 
L -63 -1509 
L -63 -1063 
L 3263 -1063 
z
" id="DejaVuSans-5f" transform="scale(0.015625)"/>
     </defs>
     <use xlink:href="#DejaVuSans-6c"/>
     <use x="27.783203" xlink:href="#DejaVuSans-65"/>
     <use x="89.306641" xlink:href="#DejaVuSans-61"/>
     <use x="150.585938" xlink:href="#DejaVuSans-72"/>
     <use x="189.949219" xlink:href="#DejaVuSans-6e"/>
     <use x="253.328125" xlink:href="#DejaVuSans-69"/>
     <use x="281.111328" xlink:href="#DejaVuSans-6e"/>
     <use x="344.490234" xlink:href="#DejaVuSans-67"/>
     <use x="407.966797" xlink:href="#DejaVuSans-20"/>
     <use x="439.753906" xlink:href="#DejaVuSans-63"/>
     <use x="494.734375" xlink:href="#DejaVuSans-75"/>
     <use x="558.113281" xlink:href="#DejaVuSans-72"/>
     <use x="599.226562" xlink:href="#DejaVuSans-76"/>
     <use x="658.40625" xlink:href="#DejaVuSans-65"/>
     <use x="719.929688" xlink:href="#DejaVuSans-20"/>
     <use x="751.716797" xlink:href="#DejaVuSans-6f"/>
     <use x="812.898438" xlink:href="#DejaVuSans-6e"/>
     <use x="876.277344" xlink:href="#DejaVuSans-20"/>
     <use x="908.064453" xlink:href="#DejaVuSans-63"/>
     <use x="963.044922" xlink:href="#DejaVuSans-75"/>
     <use x="1026.423828" xlink:href="#DejaVuSans-64"/>
     <use x="1089.900391" xlink:href="#DejaVuSans-61"/>
     <use x="1151.179688" xlink:href="#DejaVuSans-20"/>
     <use x="1182.966797" xlink:href="#DejaVuSans-6f"/>
     <use x="1244.148438" xlink:href="#DejaVuSans-66"/>
     <use x="1279.353516" xlink:href="#DejaVuSans-20"/>
     <use x="1311.140625" xlink:href="#DejaVuSans-44"/>
     <use x="1388.142578" xlink:href="#DejaVuSans-51"/>
     <use x="1466.853516" xlink:href="#DejaVuSans-4e"/>
     <use x="1541.658203" xlink:href="#DejaVuSans-20"/>
     <use x="1573.445312" xlink:href="#DejaVuSans-66"/>
     <use x="1608.650391" xlink:href="#DejaVuSans-6f"/>
     <use x="1669.832031" xlink:href="#DejaVuSans-72"/>
     <use x="1710.945312" xlink:href="#DejaVuSans-20"/>
     <use x="1742.732422" xlink:href="#DejaVuSans-6d"/>
     <use x="1840.144531" xlink:href="#DejaVuSans-69"/>
     <use x="1867.927734" xlink:href="#DejaVuSans-63"/>
     <use x="1922.908203" xlink:href="#DejaVuSans-72"/>
     <use x="1961.771484" xlink:href="#DejaVuSans-6f"/>
     <use x="2022.953125" xlink:href="#DejaVuSans-5f"/>
     <use x="2072.953125" xlink:href="#DejaVuSans-67"/>
     <use x="2136.429688" xlink:href="#DejaVuSans-72"/>
     <use x="2177.542969" xlink:href="#DejaVuSans-69"/>
     <use x="2205.326172" xlink:href="#DejaVuSans-64"/>
    </g>
   </g>
   <g id="legend_1">
    <g id="patch_7">
     <path d="M 296.255156 282.930125 
L 399.227187 282.930125 
Q 401.427187 282.930125 401.427187 280.730125 
L 401.427187 249.53825 
Q 401.427187 247.33825 399.227187 247.33825 
L 296.255156 247.33825 
Q 294.055156 247.33825 294.055156 249.53825 
L 294.055156 280.730125 
Q 294.055156 282.930125 296.255156 282.930125 
z
" style="fill:#eaeaf2;opacity:0.8;stroke:#cccccc;stroke-linejoin:miter;"/>
    </g>
    <g id="line2d_14">
     <path d="M 298.455156 256.246531 
L 320.455156 256.246531 
" style="fill:none;stroke:#4c72b0;stroke-linecap:round;stroke-width:1.5;"/>
    </g>
    <g id="line2d_15"/>
    <g id="text_14">
     <!-- rewards -->
     <g style="fill:#262626;" transform="translate(329.255156 260.096531)scale(0.11 -0.11)">
      <defs>
       <path d="M 269 3500 
L 844 3500 
L 1563 769 
L 2278 3500 
L 2956 3500 
L 3675 769 
L 4391 3500 
L 4966 3500 
L 4050 0 
L 3372 0 
L 2619 2869 
L 1863 0 
L 1184 0 
L 269 3500 
z
" id="DejaVuSans-77" transform="scale(0.015625)"/>
      </defs>
      <use xlink:href="#DejaVuSans-72"/>
      <use x="38.863281" xlink:href="#DejaVuSans-65"/>
      <use x="100.386719" xlink:href="#DejaVuSans-77"/>
      <use x="182.173828" xlink:href="#DejaVuSans-61"/>
      <use x="243.453125" xlink:href="#DejaVuSans-72"/>
      <use x="282.816406" xlink:href="#DejaVuSans-64"/>
      <use x="346.292969" xlink:href="#DejaVuSans-73"/>
     </g>
    </g>
    <g id="line2d_16">
     <path d="M 298.455156 272.392469 
L 320.455156 272.392469 
" style="fill:none;stroke:#dd8452;stroke-linecap:round;stroke-width:1.5;"/>
    </g>
    <g id="line2d_17"/>
    <g id="text_15">
     <!-- soft rewards -->
     <g style="fill:#262626;" transform="translate(329.255156 276.242469)scale(0.11 -0.11)">
      <defs>
       <path d="M 1172 4494 
L 1172 3500 
L 2356 3500 
L 2356 3053 
L 1172 3053 
L 1172 1153 
Q 1172 725 1289 603 
Q 1406 481 1766 481 
L 2356 481 
L 2356 0 
L 1766 0 
Q 1100 0 847 248 
Q 594 497 594 1153 
L 594 3053 
L 172 3053 
L 172 3500 
L 594 3500 
L 594 4494 
L 1172 4494 
z
" id="DejaVuSans-74" transform="scale(0.015625)"/>
      </defs>
      <use xlink:href="#DejaVuSans-73"/>
      <use x="52.099609" xlink:href="#DejaVuSans-6f"/>
      <use x="113.28125" xlink:href="#DejaVuSans-66"/>
      <use x="146.736328" xlink:href="#DejaVuSans-74"/>
      <use x="185.945312" xlink:href="#DejaVuSans-20"/>
      <use x="217.732422" xlink:href="#DejaVuSans-72"/>
      <use x="256.595703" xlink:href="#DejaVuSans-65"/>
      <use x="318.119141" xlink:href="#DejaVuSans-77"/>
      <use x="399.90625" xlink:href="#DejaVuSans-61"/>
      <use x="461.185547" xlink:href="#DejaVuSans-72"/>
      <use x="500.548828" xlink:href="#DejaVuSans-64"/>
      <use x="564.025391" xlink:href="#DejaVuSans-73"/>
     </g>
    </g>
   </g>
  </g>
  <g id="axes_2">
   <g id="patch_8">
    <path d="M 49.807187 288.430125 
L 406.927188 288.430125 
L 406.927188 22.318125 
L 49.807187 22.318125 
z
" style="fill:#c0c0c0;"/>
   </g>
   <g id="matplotlib.axis_3">
    <g id="xtick_7">
     <g id="line2d_18">
      <path clip-path="url(#p09b2e01af2)" d="M 64.681528 288.430125 
L 64.681528 22.318125 
" style="fill:none;stroke:#ffffff;stroke-linecap:round;"/>
     </g>
     <g id="text_16">
      <!-- 0 -->
      <g style="fill:#262626;" transform="translate(61.182153 306.288406)scale(0.11 -0.11)">
       <use xlink:href="#DejaVuSans-30"/>
      </g>
     </g>
    </g>
    <g id="xtick_8">
     <g id="line2d_19">
      <path clip-path="url(#p09b2e01af2)" d="M 132.600889 288.430125 
L 132.600889 22.318125 
" style="fill:none;stroke:#ffffff;stroke-linecap:round;"/>
     </g>
     <g id="text_17">
      <!-- 50 -->
      <g style="fill:#262626;" transform="translate(125.602139 306.288406)scale(0.11 -0.11)">
       <defs>
        <path d="M 691 4666 
L 3169 4666 
L 3169 4134 
L 1269 4134 
L 1269 2991 
Q 1406 3038 1543 3061 
Q 1681 3084 1819 3084 
Q 2600 3084 3056 2656 
Q 3513 2228 3513 1497 
Q 3513 744 3044 326 
Q 2575 -91 1722 -91 
Q 1428 -91 1123 -41 
Q 819 9 494 109 
L 494 744 
Q 775 591 1075 516 
Q 1375 441 1709 441 
Q 2250 441 2565 725 
Q 2881 1009 2881 1497 
Q 2881 1984 2565 2268 
Q 2250 2553 1709 2553 
Q 1456 2553 1204 2497 
Q 953 2441 691 2322 
L 691 4666 
z
" id="DejaVuSans-35" transform="scale(0.015625)"/>
       </defs>
       <use xlink:href="#DejaVuSans-35"/>
       <use x="63.623047" xlink:href="#DejaVuSans-30"/>
      </g>
     </g>
    </g>
    <g id="xtick_9">
     <g id="line2d_20">
      <path clip-path="url(#p09b2e01af2)" d="M 200.52025 288.430125 
L 200.52025 22.318125 
" style="fill:none;stroke:#ffffff;stroke-linecap:round;"/>
     </g>
     <g id="text_18">
      <!-- 100 -->
      <g style="fill:#262626;" transform="translate(190.022125 306.288406)scale(0.11 -0.11)">
       <use xlink:href="#DejaVuSans-31"/>
       <use x="63.623047" xlink:href="#DejaVuSans-30"/>
       <use x="127.246094" xlink:href="#DejaVuSans-30"/>
      </g>
     </g>
    </g>
    <g id="xtick_10">
     <g id="line2d_21">
      <path clip-path="url(#p09b2e01af2)" d="M 268.43961 288.430125 
L 268.43961 22.318125 
" style="fill:none;stroke:#ffffff;stroke-linecap:round;"/>
     </g>
     <g id="text_19">
      <!-- 150 -->
      <g style="fill:#262626;" transform="translate(257.941485 306.288406)scale(0.11 -0.11)">
       <use xlink:href="#DejaVuSans-31"/>
       <use x="63.623047" xlink:href="#DejaVuSans-35"/>
       <use x="127.246094" xlink:href="#DejaVuSans-30"/>
      </g>
     </g>
    </g>
    <g id="xtick_11">
     <g id="line2d_22">
      <path clip-path="url(#p09b2e01af2)" d="M 336.358971 288.430125 
L 336.358971 22.318125 
" style="fill:none;stroke:#ffffff;stroke-linecap:round;"/>
     </g>
     <g id="text_20">
      <!-- 200 -->
      <g style="fill:#262626;" transform="translate(325.860846 306.288406)scale(0.11 -0.11)">
       <use xlink:href="#DejaVuSans-32"/>
       <use x="63.623047" xlink:href="#DejaVuSans-30"/>
       <use x="127.246094" xlink:href="#DejaVuSans-30"/>
      </g>
     </g>
    </g>
    <g id="xtick_12">
     <g id="line2d_23">
      <path clip-path="url(#p09b2e01af2)" d="M 404.278332 288.430125 
L 404.278332 22.318125 
" style="fill:none;stroke:#ffffff;stroke-linecap:round;"/>
     </g>
     <g id="text_21">
      <!-- 250 -->
      <g style="fill:#262626;" transform="translate(393.780207 306.288406)scale(0.11 -0.11)">
       <use xlink:href="#DejaVuSans-32"/>
       <use x="63.623047" xlink:href="#DejaVuSans-35"/>
       <use x="127.246094" xlink:href="#DejaVuSans-30"/>
      </g>
     </g>
    </g>
    <g id="text_22">
     <!-- Time (h) -->
     <g style="fill:#262626;" transform="translate(203.295625 321.694187)scale(0.12 -0.12)">
      <defs>
       <path d="M -19 4666 
L 3928 4666 
L 3928 4134 
L 2272 4134 
L 2272 0 
L 1638 0 
L 1638 4134 
L -19 4134 
L -19 4666 
z
" id="DejaVuSans-54" transform="scale(0.015625)"/>
       <path d="M 1984 4856 
Q 1566 4138 1362 3434 
Q 1159 2731 1159 2009 
Q 1159 1288 1364 580 
Q 1569 -128 1984 -844 
L 1484 -844 
Q 1016 -109 783 600 
Q 550 1309 550 2009 
Q 550 2706 781 3412 
Q 1013 4119 1484 4856 
L 1984 4856 
z
" id="DejaVuSans-28" transform="scale(0.015625)"/>
       <path d="M 3513 2113 
L 3513 0 
L 2938 0 
L 2938 2094 
Q 2938 2591 2744 2837 
Q 2550 3084 2163 3084 
Q 1697 3084 1428 2787 
Q 1159 2491 1159 1978 
L 1159 0 
L 581 0 
L 581 4863 
L 1159 4863 
L 1159 2956 
Q 1366 3272 1645 3428 
Q 1925 3584 2291 3584 
Q 2894 3584 3203 3211 
Q 3513 2838 3513 2113 
z
" id="DejaVuSans-68" transform="scale(0.015625)"/>
       <path d="M 513 4856 
L 1013 4856 
Q 1481 4119 1714 3412 
Q 1947 2706 1947 2009 
Q 1947 1309 1714 600 
Q 1481 -109 1013 -844 
L 513 -844 
Q 928 -128 1133 580 
Q 1338 1288 1338 2009 
Q 1338 2731 1133 3434 
Q 928 4138 513 4856 
z
" id="DejaVuSans-29" transform="scale(0.015625)"/>
      </defs>
      <use xlink:href="#DejaVuSans-54"/>
      <use x="57.958984" xlink:href="#DejaVuSans-69"/>
      <use x="85.742188" xlink:href="#DejaVuSans-6d"/>
      <use x="183.154297" xlink:href="#DejaVuSans-65"/>
      <use x="244.677734" xlink:href="#DejaVuSans-20"/>
      <use x="276.464844" xlink:href="#DejaVuSans-28"/>
      <use x="315.478516" xlink:href="#DejaVuSans-68"/>
      <use x="378.857422" xlink:href="#DejaVuSans-29"/>
     </g>
    </g>
   </g>
   <g id="matplotlib.axis_4">
    <g id="ytick_6">
     <g id="line2d_24">
      <path clip-path="url(#p09b2e01af2)" d="M 49.807187 268.905552 
L 406.927188 268.905552 
" style="fill:none;stroke:#ffffff;stroke-linecap:round;"/>
     </g>
     <g id="text_23">
      <!-- 0.0 -->
      <g style="fill:#262626;" transform="translate(22.81375 273.084693)scale(0.11 -0.11)">
       <use xlink:href="#DejaVuSans-30"/>
       <use x="63.623047" xlink:href="#DejaVuSans-2e"/>
       <use x="95.410156" xlink:href="#DejaVuSans-30"/>
      </g>
     </g>
    </g>
    <g id="ytick_7">
     <g id="line2d_25">
      <path clip-path="url(#p09b2e01af2)" d="M 49.807187 219.800634 
L 406.927188 219.800634 
" style="fill:none;stroke:#ffffff;stroke-linecap:round;"/>
     </g>
     <g id="text_24">
      <!-- 0.2 -->
      <g style="fill:#262626;" transform="translate(22.81375 223.979775)scale(0.11 -0.11)">
       <use xlink:href="#DejaVuSans-30"/>
       <use x="63.623047" xlink:href="#DejaVuSans-2e"/>
       <use x="95.410156" xlink:href="#DejaVuSans-32"/>
      </g>
     </g>
    </g>
    <g id="ytick_8">
     <g id="line2d_26">
      <path clip-path="url(#p09b2e01af2)" d="M 49.807187 170.695716 
L 406.927188 170.695716 
" style="fill:none;stroke:#ffffff;stroke-linecap:round;"/>
     </g>
     <g id="text_25">
      <!-- 0.4 -->
      <g style="fill:#262626;" transform="translate(22.81375 174.874857)scale(0.11 -0.11)">
       <use xlink:href="#DejaVuSans-30"/>
       <use x="63.623047" xlink:href="#DejaVuSans-2e"/>
       <use x="95.410156" xlink:href="#DejaVuSans-34"/>
      </g>
     </g>
    </g>
    <g id="ytick_9">
     <g id="line2d_27">
      <path clip-path="url(#p09b2e01af2)" d="M 49.807187 121.590798 
L 406.927188 121.590798 
" style="fill:none;stroke:#ffffff;stroke-linecap:round;"/>
     </g>
     <g id="text_26">
      <!-- 0.6 -->
      <g style="fill:#262626;" transform="translate(22.81375 125.769938)scale(0.11 -0.11)">
       <use xlink:href="#DejaVuSans-30"/>
       <use x="63.623047" xlink:href="#DejaVuSans-2e"/>
       <use x="95.410156" xlink:href="#DejaVuSans-36"/>
      </g>
     </g>
    </g>
    <g id="ytick_10">
     <g id="line2d_28">
      <path clip-path="url(#p09b2e01af2)" d="M 49.807187 72.48588 
L 406.927188 72.48588 
" style="fill:none;stroke:#ffffff;stroke-linecap:round;"/>
     </g>
     <g id="text_27">
      <!-- 0.8 -->
      <g style="fill:#262626;" transform="translate(22.81375 76.66502)scale(0.11 -0.11)">
       <use xlink:href="#DejaVuSans-30"/>
       <use x="63.623047" xlink:href="#DejaVuSans-2e"/>
       <use x="95.410156" xlink:href="#DejaVuSans-38"/>
      </g>
     </g>
    </g>
    <g id="ytick_11">
     <g id="line2d_29">
      <path clip-path="url(#p09b2e01af2)" d="M 49.807187 23.380962 
L 406.927188 23.380962 
" style="fill:none;stroke:#ffffff;stroke-linecap:round;"/>
     </g>
     <g id="text_28">
      <!-- 1.0 -->
      <g style="fill:#262626;" transform="translate(22.81375 27.560102)scale(0.11 -0.11)">
       <use xlink:href="#DejaVuSans-31"/>
       <use x="63.623047" xlink:href="#DejaVuSans-2e"/>
       <use x="95.410156" xlink:href="#DejaVuSans-30"/>
      </g>
     </g>
    </g>
    <g id="text_29">
     <!-- average soc -->
     <g style="fill:#262626;" transform="translate(16.318125 191.941312)rotate(-90)scale(0.12 -0.12)">
      <use xlink:href="#DejaVuSans-61"/>
      <use x="61.279297" xlink:href="#DejaVuSans-76"/>
      <use x="120.458984" xlink:href="#DejaVuSans-65"/>
      <use x="181.982422" xlink:href="#DejaVuSans-72"/>
      <use x="223.095703" xlink:href="#DejaVuSans-61"/>
      <use x="284.375" xlink:href="#DejaVuSans-67"/>
      <use x="347.851562" xlink:href="#DejaVuSans-65"/>
      <use x="409.375" xlink:href="#DejaVuSans-20"/>
      <use x="441.162109" xlink:href="#DejaVuSans-73"/>
      <use x="493.261719" xlink:href="#DejaVuSans-6f"/>
      <use x="554.443359" xlink:href="#DejaVuSans-63"/>
     </g>
    </g>
   </g>
   <g id="line2d_30">
    <path clip-path="url(#p09b2e01af2)" d="M 66.039915 255.278401 
L 67.398302 245.461948 
L 71.473464 219.555321 
L 97.282821 57.990574 
L 98.641208 220.027706 
L 99.999595 228.204444 
L 101.357982 232.410487 
L 104.074757 238.668488 
L 105.433144 223.02902 
L 106.791531 212.347599 
L 109.508306 193.566307 
L 119.017016 131.32634 
L 127.16734 78.818616 
L 129.884114 61.624888 
L 131.242501 233.636982 
L 132.600889 223.226013 
L 136.67605 195.476429 
L 142.109599 159.676699 
L 143.467986 169.580275 
L 144.826374 174.521436 
L 146.184761 159.673378 
L 147.543148 149.546571 
L 150.259922 131.810718 
L 155.693471 98.534726 
L 159.768633 74.028928 
L 161.12702 84.461701 
L 162.485407 71.317542 
L 163.843795 241.783394 
L 165.202182 250.270269 
L 166.560569 236.225352 
L 167.918956 226.182931 
L 169.277343 235.703612 
L 170.635731 240.451784 
L 171.994118 225.458115 
L 173.352505 215.151348 
L 177.427667 188.129541 
L 184.219603 144.429099 
L 195.086701 76.24218 
L 196.445088 230.248286 
L 197.803475 220.016387 
L 203.237024 183.394912 
L 211.387347 129.774255 
L 222.254445 60.679524 
L 224.971219 41.743531 
L 226.329607 35.857384 
L 227.687994 34.414125 
L 229.046381 218.778057 
L 230.404768 208.508076 
L 231.763156 199.220297 
L 233.121543 208.845382 
L 234.47993 194.899458 
L 235.838317 184.855595 
L 239.913479 158.256012 
L 246.705415 115.983416 
L 248.063802 107.879777 
L 249.422189 118.433328 
L 250.780577 124.087516 
L 253.497351 132.843484 
L 254.855738 118.398499 
L 256.214125 108.936025 
L 258.9309 93.301116 
L 260.289287 85.88021 
L 261.647674 248.094546 
L 263.006062 238.891573 
L 265.722836 223.016358 
L 267.081223 233.867094 
L 268.43961 239.81608 
L 271.156385 248.777679 
L 272.514772 234.262392 
L 273.873159 224.5843 
L 277.948321 199.19491 
L 286.098644 150.221277 
L 292.89058 110.038744 
L 294.248968 216.297176 
L 296.965742 198.156975 
L 301.040904 173.50623 
L 303.757678 157.886562 
L 305.116065 168.774366 
L 306.474453 174.707715 
L 307.83284 179.352932 
L 309.191227 164.908264 
L 310.549614 155.460037 
L 313.266389 139.415519 
L 322.775099 84.893711 
L 324.133486 95.847823 
L 325.491874 101.833001 
L 326.850261 245.181401 
L 328.208648 235.407605 
L 332.28381 209.24311 
L 344.509295 134.063764 
L 348.584456 109.622746 
L 349.942844 101.875515 
L 351.301231 112.734181 
L 352.659618 100.146345 
L 354.018005 91.330999 
L 355.376393 83.451555 
L 356.73478 94.495732 
L 358.093167 100.755214 
L 359.451554 243.340723 
L 360.809941 252.857237 
L 362.168329 258.177983 
L 363.526716 262.503727 
L 364.885103 265.499021 
L 366.24349 268.782435 
L 367.601877 273.267006 
L 368.960265 276.334125 
L 370.318652 262.075651 
L 371.677039 271.189706 
L 373.035426 257.859863 
L 374.393814 248.46416 
L 378.468975 224.072116 
L 383.902524 193.036568 
L 389.336073 163.202392 
L 390.69446 155.902736 
L 390.69446 155.902736 
" style="fill:none;stroke:#4c72b0;stroke-linecap:round;stroke-opacity:0.8;stroke-width:1.5;"/>
   </g>
   <g id="line2d_31">
    <path clip-path="url(#p09b2e01af2)" d="M 66.039915 255.278401 
L 67.398302 254.296756 
L 68.756689 252.533351 
L 70.115076 250.082393 
L 71.473464 247.029686 
L 72.831851 243.433084 
L 74.190238 239.334741 
L 75.548625 234.780342 
L 78.2654 224.506025 
L 80.982174 212.933985 
L 83.698949 200.323794 
L 87.77411 179.970874 
L 91.849272 158.435308 
L 95.924434 135.84864 
L 97.282821 128.062834 
L 101.357982 154.959499 
L 104.074757 170.585099 
L 105.433144 175.829491 
L 106.791531 179.481302 
L 108.149919 181.812105 
L 109.508306 182.987526 
L 110.866693 183.166199 
L 112.22508 182.436185 
L 113.583467 180.88966 
L 114.941855 178.607147 
L 116.300242 175.669657 
L 117.658629 172.127492 
L 119.017016 168.047377 
L 120.375404 163.490791 
L 123.092178 153.140353 
L 125.808952 141.445214 
L 128.525727 128.682325 
L 129.884114 121.976581 
L 131.242501 133.142621 
L 132.600889 142.15096 
L 133.959276 149.315322 
L 135.317663 154.83978 
L 136.67605 158.903445 
L 138.034437 161.658114 
L 139.392825 163.239173 
L 140.751212 163.772586 
L 142.109599 163.362997 
L 143.467986 163.984725 
L 144.826374 165.038396 
L 146.184761 164.501894 
L 147.543148 163.006362 
L 148.901535 160.750294 
L 150.259922 157.856337 
L 151.61831 154.405398 
L 152.976697 150.461449 
L 154.335084 146.085765 
L 157.051858 136.225905 
L 159.768633 125.14013 
L 161.12702 121.072288 
L 162.485407 116.096813 
L 165.202182 140.825951 
L 166.560569 150.365891 
L 170.635731 173.196055 
L 171.994118 178.422261 
L 173.352505 182.09517 
L 174.710892 184.474868 
L 176.06928 185.72778 
L 177.427667 185.967956 
L 178.786054 185.298435 
L 180.144441 183.818253 
L 181.502828 181.605442 
L 182.861216 178.752794 
L 184.219603 175.320425 
L 185.57799 171.37099 
L 186.936377 166.961988 
L 189.653152 156.925397 
L 192.369926 145.562447 
L 195.086701 133.151324 
L 196.445088 142.86102 
L 197.803475 150.576557 
L 199.161862 156.58864 
L 200.52025 161.085921 
L 201.878637 164.226517 
L 203.237024 166.143357 
L 204.595411 166.967115 
L 205.953798 166.810217 
L 207.312186 165.76732 
L 208.670573 163.932002 
L 210.02896 161.395582 
L 211.387347 158.233449 
L 212.745734 154.520963 
L 214.104122 150.303274 
L 215.462509 145.62513 
L 218.179283 135.107085 
L 220.896058 123.33845 
L 223.612832 110.470472 
L 226.329607 96.823739 
L 227.687994 90.582777 
L 229.046381 103.402305 
L 230.404768 113.912882 
L 233.121543 131.083799 
L 234.47993 137.465365 
L 235.838317 142.204388 
L 237.196704 145.558202 
L 238.555092 147.68871 
L 239.913479 148.74544 
L 241.271866 148.839663 
L 242.630253 148.069255 
L 243.988641 146.528873 
L 245.347028 144.301082 
L 246.705415 141.469315 
L 248.063802 138.110361 
L 249.422189 136.142658 
L 250.780577 134.937144 
L 252.138964 134.302878 
L 253.497351 134.156939 
L 254.855738 132.581095 
L 256.214125 130.216588 
L 257.572513 127.279748 
L 258.9309 123.881885 
L 260.289287 120.081717 
L 261.647674 132.883 
L 263.006062 143.483858 
L 264.364449 152.210808 
L 267.081223 166.748936 
L 269.797998 181.098064 
L 271.156385 187.866026 
L 272.514772 192.505662 
L 273.873159 195.713526 
L 275.231547 197.733653 
L 276.589934 198.709614 
L 277.948321 198.758143 
L 279.306708 197.975627 
L 280.665095 196.450649 
L 282.023483 194.258728 
L 283.38187 191.443446 
L 284.740257 188.121243 
L 286.098644 184.331246 
L 287.457032 180.121932 
L 290.173806 170.600454 
L 292.89058 159.832583 
L 294.248968 165.479042 
L 295.607355 169.616581 
L 296.965742 172.470621 
L 298.324129 174.203558 
L 299.682517 174.932794 
L 301.040904 174.790137 
L 302.399291 173.884055 
L 303.757678 172.284306 
L 305.116065 171.933312 
L 306.474453 172.210752 
L 307.83284 172.92497 
L 309.191227 172.123299 
L 310.549614 170.456973 
L 311.908001 168.141405 
L 313.266389 165.268816 
L 314.624776 161.912504 
L 315.983163 158.111931 
L 317.34155 153.912156 
L 320.058325 144.456208 
L 322.775099 133.838344 
L 324.133486 130.039292 
L 325.491874 127.218663 
L 326.850261 139.014937 
L 328.208648 148.654204 
L 329.567035 156.438511 
L 330.925423 162.573134 
L 332.28381 167.240132 
L 333.642197 170.597659 
L 335.000584 172.790751 
L 336.358971 173.941523 
L 337.717359 174.143398 
L 339.075746 173.5051 
L 340.434133 172.085441 
L 341.79252 169.968009 
L 343.150908 167.209375 
L 344.509295 163.894814 
L 345.867682 160.080818 
L 347.226069 155.835008 
L 349.942844 146.279955 
L 351.301231 142.925378 
L 352.659618 138.647474 
L 355.376393 128.8694 
L 356.73478 125.432033 
L 358.093167 122.964351 
L 360.809941 146.787513 
L 363.526716 168.384277 
L 366.24349 187.16442 
L 368.960265 203.830623 
L 371.677039 215.808584 
L 373.035426 220.013712 
L 374.393814 222.858757 
L 375.752201 224.584508 
L 377.110588 225.328291 
L 378.468975 225.202673 
L 379.827362 224.299822 
L 381.18575 222.713251 
L 382.544137 220.504812 
L 383.902524 217.757988 
L 385.260911 214.526323 
L 386.619299 210.875534 
L 389.336073 202.481535 
L 390.69446 197.823655 
L 390.69446 197.823655 
" style="fill:none;stroke:#c44e52;stroke-linecap:round;stroke-opacity:0.8;stroke-width:1.5;"/>
   </g>
   <g id="patch_9">
    <path d="M 49.807187 288.430125 
L 49.807187 22.318125 
" style="fill:none;stroke:#ffffff;stroke-linecap:square;stroke-linejoin:miter;stroke-width:1.25;"/>
   </g>
   <g id="patch_10">
    <path d="M 406.927188 288.430125 
L 406.927188 22.318125 
" style="fill:none;stroke:#ffffff;stroke-linecap:square;stroke-linejoin:miter;stroke-width:1.25;"/>
   </g>
   <g id="patch_11">
    <path d="M 49.807187 288.430125 
L 406.927188 288.430125 
" style="fill:none;stroke:#ffffff;stroke-linecap:square;stroke-linejoin:miter;stroke-width:1.25;"/>
   </g>
   <g id="patch_12">
    <path d="M 49.807187 22.318125 
L 406.927188 22.318125 
" style="fill:none;stroke:#ffffff;stroke-linecap:square;stroke-linejoin:miter;stroke-width:1.25;"/>
   </g>
   <g id="text_30">
    <!-- Comfort SOC -->
    <g style="fill:#262626;" transform="translate(189.430937 16.318125)scale(0.12 -0.12)">
     <defs>
      <path d="M 4122 4306 
L 4122 3641 
Q 3803 3938 3442 4084 
Q 3081 4231 2675 4231 
Q 1875 4231 1450 3742 
Q 1025 3253 1025 2328 
Q 1025 1406 1450 917 
Q 1875 428 2675 428 
Q 3081 428 3442 575 
Q 3803 722 4122 1019 
L 4122 359 
Q 3791 134 3420 21 
Q 3050 -91 2638 -91 
Q 1578 -91 968 557 
Q 359 1206 359 2328 
Q 359 3453 968 4101 
Q 1578 4750 2638 4750 
Q 3056 4750 3426 4639 
Q 3797 4528 4122 4306 
z
" id="DejaVuSans-43" transform="scale(0.015625)"/>
      <path d="M 3425 4513 
L 3425 3897 
Q 3066 4069 2747 4153 
Q 2428 4238 2131 4238 
Q 1616 4238 1336 4038 
Q 1056 3838 1056 3469 
Q 1056 3159 1242 3001 
Q 1428 2844 1947 2747 
L 2328 2669 
Q 3034 2534 3370 2195 
Q 3706 1856 3706 1288 
Q 3706 609 3251 259 
Q 2797 -91 1919 -91 
Q 1588 -91 1214 -16 
Q 841 59 441 206 
L 441 856 
Q 825 641 1194 531 
Q 1563 422 1919 422 
Q 2459 422 2753 634 
Q 3047 847 3047 1241 
Q 3047 1584 2836 1778 
Q 2625 1972 2144 2069 
L 1759 2144 
Q 1053 2284 737 2584 
Q 422 2884 422 3419 
Q 422 4038 858 4394 
Q 1294 4750 2059 4750 
Q 2388 4750 2728 4690 
Q 3069 4631 3425 4513 
z
" id="DejaVuSans-53" transform="scale(0.015625)"/>
      <path d="M 2522 4238 
Q 1834 4238 1429 3725 
Q 1025 3213 1025 2328 
Q 1025 1447 1429 934 
Q 1834 422 2522 422 
Q 3209 422 3611 934 
Q 4013 1447 4013 2328 
Q 4013 3213 3611 3725 
Q 3209 4238 2522 4238 
z
M 2522 4750 
Q 3503 4750 4090 4092 
Q 4678 3434 4678 2328 
Q 4678 1225 4090 567 
Q 3503 -91 2522 -91 
Q 1538 -91 948 565 
Q 359 1222 359 2328 
Q 359 3434 948 4092 
Q 1538 4750 2522 4750 
z
" id="DejaVuSans-4f" transform="scale(0.015625)"/>
     </defs>
     <use xlink:href="#DejaVuSans-43"/>
     <use x="69.824219" xlink:href="#DejaVuSans-6f"/>
     <use x="131.005859" xlink:href="#DejaVuSans-6d"/>
     <use x="228.417969" xlink:href="#DejaVuSans-66"/>
     <use x="263.623047" xlink:href="#DejaVuSans-6f"/>
     <use x="324.804688" xlink:href="#DejaVuSans-72"/>
     <use x="365.917969" xlink:href="#DejaVuSans-74"/>
     <use x="405.126953" xlink:href="#DejaVuSans-20"/>
     <use x="436.914062" xlink:href="#DejaVuSans-53"/>
     <use x="500.390625" xlink:href="#DejaVuSans-4f"/>
     <use x="579.101562" xlink:href="#DejaVuSans-43"/>
    </g>
   </g>
   <g id="legend_2">
    <g id="patch_13">
     <path d="M 57.507188 63.41 
L 181.576875 63.41 
Q 183.776875 63.41 183.776875 61.21 
L 183.776875 30.018125 
Q 183.776875 27.818125 181.576875 27.818125 
L 57.507188 27.818125 
Q 55.307187 27.818125 55.307187 30.018125 
L 55.307187 61.21 
Q 55.307187 63.41 57.507188 63.41 
z
" style="fill:#eaeaf2;opacity:0.8;stroke:#cccccc;stroke-linejoin:miter;"/>
    </g>
    <g id="line2d_32">
     <path d="M 59.707187 36.726406 
L 81.707188 36.726406 
" style="fill:none;stroke:#4c72b0;stroke-linecap:round;stroke-opacity:0.8;stroke-width:1.5;"/>
    </g>
    <g id="line2d_33"/>
    <g id="text_31">
     <!-- Comfort -->
     <g style="fill:#262626;" transform="translate(90.507188 40.576406)scale(0.11 -0.11)">
      <use xlink:href="#DejaVuSans-43"/>
      <use x="69.824219" xlink:href="#DejaVuSans-6f"/>
      <use x="131.005859" xlink:href="#DejaVuSans-6d"/>
      <use x="228.417969" xlink:href="#DejaVuSans-66"/>
      <use x="263.623047" xlink:href="#DejaVuSans-6f"/>
      <use x="324.804688" xlink:href="#DejaVuSans-72"/>
      <use x="365.917969" xlink:href="#DejaVuSans-74"/>
     </g>
    </g>
    <g id="line2d_34">
     <path d="M 59.707187 52.872344 
L 81.707188 52.872344 
" style="fill:none;stroke:#c44e52;stroke-linecap:round;stroke-opacity:0.8;stroke-width:1.5;"/>
    </g>
    <g id="line2d_35"/>
    <g id="text_32">
     <!-- Smooth comfort -->
     <g style="fill:#262626;" transform="translate(90.507188 56.722344)scale(0.11 -0.11)">
      <use xlink:href="#DejaVuSans-53"/>
      <use x="63.476562" xlink:href="#DejaVuSans-6d"/>
      <use x="160.888672" xlink:href="#DejaVuSans-6f"/>
      <use x="222.070312" xlink:href="#DejaVuSans-6f"/>
      <use x="283.251953" xlink:href="#DejaVuSans-74"/>
      <use x="322.460938" xlink:href="#DejaVuSans-68"/>
      <use x="385.839844" xlink:href="#DejaVuSans-20"/>
      <use x="417.626953" xlink:href="#DejaVuSans-63"/>
      <use x="472.607422" xlink:href="#DejaVuSans-6f"/>
      <use x="533.789062" xlink:href="#DejaVuSans-6d"/>
      <use x="631.201172" xlink:href="#DejaVuSans-66"/>
      <use x="666.40625" xlink:href="#DejaVuSans-6f"/>
      <use x="727.587891" xlink:href="#DejaVuSans-72"/>
      <use x="768.701172" xlink:href="#DejaVuSans-74"/>
     </g>
    </g>
   </g>
  </g>
 </g>
 <defs>
  <clipPath id="p09b2e01af2">
   <rect height="266.112" width="357.12" x="49.807187" y="22.318125"/>
  </clipPath>
 </defs>
</svg>
